<score-partwise>
  <work>
    <work-title>Minuet 2</work-title>
    </work>
  <identification>
    <encoding>
      <software>MuseScore 2.0.3.1</software>
      <encoding-date>2017-01-03</encoding-date>
      <supports element="accidental" type="yes" />
      <supports element="beam" type="yes" />
      <supports attribute="new-page" element="print" type="yes" value="yes" />
      <supports attribute="new-system" element="print" type="yes" value="yes" />
      <supports element="stem" type="yes" />
      </encoding>
    </identification>
  <defaults>
    <scaling>
      <millimeters>7.05556</millimeters>
      <tenths>40</tenths>
      </scaling>
    <page-layout>
      <page-height>1683.36</page-height>
      <page-width>980</page-width>
      <page-margins type="even">
        <left-margin>56.6929</left-margin>
        <right-margin>56.6929</right-margin>
        <top-margin>56.6929</top-margin>
        <bottom-margin>113.386</bottom-margin>
        </page-margins>
      <page-margins type="odd">
        <left-margin>56.6929</left-margin>
        <right-margin>56.6929</right-margin>
        <top-margin>56.6929</top-margin>
        <bottom-margin>113.386</bottom-margin>
        </page-margins>
      </page-layout>
    <word-font font-family="FreeSerif" font-size="10" />
    <lyric-font font-family="FreeSerif" font-size="11" />
    </defaults>
  <credit page="1">
    <credit-words default-x="490" default-y="1626.67" font-size="24" justify="center" valign="top">Minuet 2</credit-words>
    </credit>
  <part-list>
    <score-part id="P1">
      <part-name>Piano</part-name>
      <part-abbreviation>Pno.</part-abbreviation>
      <score-instrument id="P1-I1">
        <instrument-name>Piano</instrument-name>
        </score-instrument>
      <midi-device id="P1-I1" port="1" />
      <midi-instrument id="P1-I1">
        <midi-channel>1</midi-channel>
        <midi-program>1</midi-program>
        <volume>78.7402</volume>
        <pan>0</pan>
        </midi-instrument>
      </score-part>
    </part-list>
  <part id="P1">
    <measure number="1" width="191.40">
      <print>
        <system-layout>
          <system-margins>
            <left-margin>21.00</left-margin>
            <right-margin>-0.00</right-margin>
            </system-margins>
          <top-system-distance>170.00</top-system-distance>
          </system-layout>
        <staff-layout number="2">
          <staff-distance>65.00</staff-distance>
          </staff-layout>
        </print>
      <attributes>
        <divisions>4</divisions>
        <key>
          <fifths>0</fifths>
          </key>
        <time>
          <beats>3</beats>
          <beat-type>4</beat-type>
          </time>
        <staves>2</staves>
        <clef number="1">
          <sign>G</sign>
          <line>2</line>
          </clef>
        <clef number="2">
          <sign>F</sign>
          <line>4</line>
          </clef>
        </attributes>
      <direction placement="above">
        <direction-type>
          <metronome parentheses="no">
            <beat-unit>quarter</beat-unit>
            <per-minute>70.0</per-minute>
            </metronome>
          </direction-type>
        <staff>1</staff>
        <sound tempo="70.0" />
        </direction>
      <note>
        <rest />
        <duration>8</duration>
        <voice>1</voice>
        <type>half</type>
        <staff>1</staff>
        <rhythm>2.0</rhythm><TotalPI>1</TotalPI><melody>main</melody></note>
      <note default-x="136.25" default-y="-50.00">
        <pitch>
          <step>C</step>
          <octave>4</octave>
          </pitch>
        <duration>2</duration>
        <voice>1</voice>
        <type>eighth</type>
        <stem>up</stem>
        <staff>1</staff>
        <beam number="1">begin</beam>
        <rhythm>0.5</rhythm><MIDI>60</MIDI><TotalPI>3.0</TotalPI><melody>main</melody></note>
      <note default-x="163.03" default-y="-45.00">
        <pitch>
          <step>D</step>
          <octave>4</octave>
          </pitch>
        <duration>2</duration>
        <voice>1</voice>
        <type>eighth</type>
        <stem>up</stem>
        <staff>1</staff>
        <beam number="1">end</beam>
        <rhythm>0.5</rhythm><MIDI>62</MIDI><TotalPI>3.5</TotalPI><melody>main</melody></note>
      <backup>
        <duration>12</duration>
        </backup>
      <note>
        <rest />
        <duration>8</duration>
        <voice>5</voice>
        <type>half</type>
        <staff>2</staff>
        <rhythm>2.0</rhythm><TotalPI>1</TotalPI><melody>no_main</melody></note>
      <note default-x="136.25" default-y="-120.00">
        <pitch>
          <step>E</step>
          <octave>3</octave>
          </pitch>
        <duration>2</duration>
        <voice>5</voice>
        <type>eighth</type>
        <stem>down</stem>
        <staff>2</staff>
        <beam number="1">begin</beam>
        <rhythm>0.5</rhythm><MIDI>52</MIDI><TotalPI>3.0</TotalPI><melody>no_main</melody></note>
      <note default-x="163.03" default-y="-115.00">
        <pitch>
          <step>F</step>
          <octave>3</octave>
          </pitch>
        <duration>2</duration>
        <voice>5</voice>
        <type>eighth</type>
        <stem>down</stem>
        <staff>2</staff>
        <beam number="1">end</beam>
        <rhythm>0.5</rhythm><MIDI>53</MIDI><TotalPI>3.5</TotalPI><melody>no_main</melody></note>
      </measure>
    <measure number="2" width="197.21">
      <note default-x="12.00" default-y="-40.00">
        <pitch>
          <step>E</step>
          <octave>4</octave>
          </pitch>
        <duration>2</duration>
        <voice>1</voice>
        <type>eighth</type>
        <stem>up</stem>
        <staff>1</staff>
        <beam number="1">begin</beam>
        <rhythm>0.5</rhythm><MIDI>64</MIDI><TotalPI>1</TotalPI><melody>main</melody></note>
      <note default-x="42.60" default-y="-35.00">
        <pitch>
          <step>F</step>
          <octave>4</octave>
          </pitch>
        <duration>2</duration>
        <voice>1</voice>
        <type>eighth</type>
        <stem>up</stem>
        <staff>1</staff>
        <beam number="1">end</beam>
        <rhythm>0.5</rhythm><MIDI>65</MIDI><TotalPI>1.5</TotalPI><melody>main</melody></note>
      <note default-x="73.20" default-y="-30.00">
        <pitch>
          <step>G</step>
          <octave>4</octave>
          </pitch>
        <duration>2</duration>
        <voice>1</voice>
        <type>eighth</type>
        <stem>up</stem>
        <staff>1</staff>
        <beam number="1">begin</beam>
        <rhythm>0.5</rhythm><MIDI>67</MIDI><TotalPI>2.0</TotalPI><melody>main</melody></note>
      <note default-x="103.80" default-y="-25.00">
        <pitch>
          <step>A</step>
          <octave>4</octave>
          </pitch>
        <duration>2</duration>
        <voice>1</voice>
        <type>eighth</type>
        <stem>up</stem>
        <staff>1</staff>
        <beam number="1">end</beam>
        <rhythm>0.5</rhythm><MIDI>69</MIDI><TotalPI>2.5</TotalPI><melody>main</melody></note>
      <note default-x="134.40" default-y="-20.00">
        <pitch>
          <step>B</step>
          <octave>4</octave>
          </pitch>
        <duration>2</duration>
        <voice>1</voice>
        <type>eighth</type>
        <stem>down</stem>
        <staff>1</staff>
        <beam number="1">begin</beam>
        <rhythm>0.5</rhythm><MIDI>71</MIDI><TotalPI>3.0</TotalPI><melody>main</melody></note>
      <note default-x="165.01" default-y="-15.00">
        <pitch>
          <step>C</step>
          <octave>5</octave>
          </pitch>
        <duration>2</duration>
        <voice>1</voice>
        <type>eighth</type>
        <stem>down</stem>
        <staff>1</staff>
        <beam number="1">end</beam>
        <rhythm>0.5</rhythm><MIDI>72</MIDI><TotalPI>3.5</TotalPI><melody>main</melody></note>
      <backup>
        <duration>12</duration>
        </backup>
      <note default-x="12.00" default-y="-110.00">
        <pitch>
          <step>G</step>
          <octave>3</octave>
          </pitch>
        <duration>2</duration>
        <voice>5</voice>
        <type>eighth</type>
        <stem>down</stem>
        <staff>2</staff>
        <beam number="1">begin</beam>
        <rhythm>0.5</rhythm><MIDI>55</MIDI><TotalPI>1</TotalPI><melody>no_main</melody></note>
      <note default-x="42.60" default-y="-105.00">
        <pitch>
          <step>A</step>
          <octave>3</octave>
          </pitch>
        <duration>2</duration>
        <voice>5</voice>
        <type>eighth</type>
        <stem>down</stem>
        <staff>2</staff>
        <beam number="1">end</beam>
        <rhythm>0.5</rhythm><MIDI>57</MIDI><TotalPI>1.5</TotalPI><melody>no_main</melody></note>
      <note default-x="73.20" default-y="-100.00">
        <pitch>
          <step>B</step>
          <octave>3</octave>
          </pitch>
        <duration>2</duration>
        <voice>5</voice>
        <type>eighth</type>
        <stem>down</stem>
        <staff>2</staff>
        <beam number="1">begin</beam>
        <rhythm>0.5</rhythm><MIDI>59</MIDI><TotalPI>2.0</TotalPI><melody>no_main</melody></note>
      <note default-x="103.80" default-y="-95.00">
        <pitch>
          <step>C</step>
          <octave>4</octave>
          </pitch>
        <duration>2</duration>
        <voice>5</voice>
        <type>eighth</type>
        <stem>down</stem>
        <staff>2</staff>
        <beam number="1">end</beam>
        <rhythm>0.5</rhythm><MIDI>60</MIDI><TotalPI>2.5</TotalPI><melody>no_main</melody></note>
      <note default-x="134.40" default-y="-90.00">
        <pitch>
          <step>D</step>
          <octave>4</octave>
          </pitch>
        <duration>2</duration>
        <voice>5</voice>
        <type>eighth</type>
        <stem>down</stem>
        <staff>2</staff>
        <beam number="1">begin</beam>
        <rhythm>0.5</rhythm><MIDI>62</MIDI><TotalPI>3.0</TotalPI><melody>no_main</melody></note>
      <note default-x="165.01" default-y="-85.00">
        <pitch>
          <step>E</step>
          <octave>4</octave>
          </pitch>
        <duration>2</duration>
        <voice>5</voice>
        <type>eighth</type>
        <stem>down</stem>
        <staff>2</staff>
        <beam number="1">end</beam>
        <rhythm>0.5</rhythm><MIDI>64</MIDI><TotalPI>3.5</TotalPI><melody>no_main</melody></note>
      </measure>
    <measure number="3" width="228.80">
      <note default-x="12.00" default-y="-10.00">
        <pitch>
          <step>D</step>
          <octave>5</octave>
          </pitch>
        <duration>2</duration>
        <voice>1</voice>
        <type>eighth</type>
        <stem>down</stem>
        <staff>1</staff>
        <beam number="1">begin</beam>
        <rhythm>0.5</rhythm><MIDI>74</MIDI><TotalPI>1</TotalPI><melody>main</melody></note>
      <note default-x="43.35" default-y="0.00">
        <pitch>
          <step>F</step>
          <octave>5</octave>
          </pitch>
        <duration>1</duration>
        <voice>1</voice>
        <type>16th</type>
        <stem>down</stem>
        <staff>1</staff>
        <beam number="1">continue</beam>
        <beam number="2">begin</beam>
        <rhythm>0.25</rhythm><MIDI>77</MIDI><TotalPI>1.5</TotalPI><melody>main</melody></note>
      <note default-x="62.95" default-y="-5.00">
        <pitch>
          <step>E</step>
          <octave>5</octave>
          </pitch>
        <duration>1</duration>
        <voice>1</voice>
        <type>16th</type>
        <stem>down</stem>
        <staff>1</staff>
        <beam number="1">end</beam>
        <beam number="2">end</beam>
        <rhythm>0.25</rhythm><MIDI>76</MIDI><TotalPI>1.75</TotalPI><melody>main</melody></note>
      <note default-x="82.54" default-y="-10.00">
        <pitch>
          <step>D</step>
          <octave>5</octave>
          </pitch>
        <duration>2</duration>
        <voice>1</voice>
        <type>eighth</type>
        <stem>down</stem>
        <staff>1</staff>
        <beam number="1">begin</beam>
        <rhythm>0.5</rhythm><MIDI>74</MIDI><TotalPI>2.0</TotalPI><melody>main</melody></note>
      <note default-x="113.90" default-y="-10.00">
        <pitch>
          <step>D</step>
          <octave>5</octave>
          </pitch>
        <duration>1</duration>
        <voice>1</voice>
        <type>16th</type>
        <stem>down</stem>
        <staff>1</staff>
        <beam number="1">continue</beam>
        <beam number="2">begin</beam>
        <rhythm>0.25</rhythm><MIDI>74</MIDI><TotalPI>2.5</TotalPI><melody>main</melody></note>
      <note default-x="133.49" default-y="-15.00">
        <pitch>
          <step>C</step>
          <octave>5</octave>
          </pitch>
        <duration>1</duration>
        <voice>1</voice>
        <type>16th</type>
        <stem>down</stem>
        <staff>1</staff>
        <beam number="1">end</beam>
        <beam number="2">end</beam>
        <rhythm>0.25</rhythm><MIDI>72</MIDI><TotalPI>2.75</TotalPI><melody>main</melody></note>
      <note default-x="153.09" default-y="-20.00">
        <pitch>
          <step>B</step>
          <octave>4</octave>
          </pitch>
        <duration>2</duration>
        <voice>1</voice>
        <type>eighth</type>
        <stem>up</stem>
        <staff>1</staff>
        <beam number="1">begin</beam>
        <rhythm>0.5</rhythm><MIDI>71</MIDI><TotalPI>3.0</TotalPI><melody>main</melody></note>
      <note default-x="184.44" default-y="-20.00">
        <pitch>
          <step>B</step>
          <octave>4</octave>
          </pitch>
        <duration>1</duration>
        <voice>1</voice>
        <type>16th</type>
        <stem>up</stem>
        <staff>1</staff>
        <beam number="1">continue</beam>
        <beam number="2">begin</beam>
        <rhythm>0.25</rhythm><MIDI>71</MIDI><TotalPI>3.5</TotalPI><melody>main</melody></note>
      <note default-x="204.04" default-y="-25.00">
        <pitch>
          <step>A</step>
          <octave>4</octave>
          </pitch>
        <duration>1</duration>
        <voice>1</voice>
        <type>16th</type>
        <stem>up</stem>
        <staff>1</staff>
        <beam number="1">end</beam>
        <beam number="2">end</beam>
        <rhythm>0.25</rhythm><MIDI>69</MIDI><TotalPI>3.75</TotalPI><melody>main</melody></note>
      <backup>
        <duration>12</duration>
        </backup>
      <note default-x="12.00" default-y="-80.00">
        <pitch>
          <step>F</step>
          <octave>4</octave>
          </pitch>
        <duration>2</duration>
        <voice>5</voice>
        <type>eighth</type>
        <stem>down</stem>
        <staff>2</staff>
        <rhythm>0.5</rhythm><MIDI>65</MIDI><TotalPI>1</TotalPI><melody>no_main</melody></note>
      <note>
        <rest />
        <duration>2</duration>
        <voice>5</voice>
        <type>eighth</type>
        <staff>2</staff>
        <rhythm>0.5</rhythm><TotalPI>1.5</TotalPI><melody>no_main</melody></note>
      <note default-x="82.54" default-y="-110.00">
        <pitch>
          <step>G</step>
          <octave>3</octave>
          </pitch>
        <duration>2</duration>
        <voice>5</voice>
        <type>eighth</type>
        <stem>down</stem>
        <staff>2</staff>
        <rhythm>0.5</rhythm><MIDI>55</MIDI><TotalPI>2.0</TotalPI><melody>no_main</melody></note>
      <note default-x="82.54" default-y="-100.00">
        <chord />
        <pitch>
          <step>B</step>
          <octave>3</octave>
          </pitch>
        <duration>2</duration>
        <voice>5</voice>
        <type>eighth</type>
        <stem>down</stem>
        <staff>2</staff>
        <rhythm>0.5</rhythm><MIDI>59</MIDI><TotalPI>2.0</TotalPI><melody>no_main</melody></note>
      <note default-x="82.54" default-y="-80.00">
        <chord />
        <pitch>
          <step>F</step>
          <octave>4</octave>
          </pitch>
        <duration>2</duration>
        <voice>5</voice>
        <type>eighth</type>
        <stem>down</stem>
        <staff>2</staff>
        <rhythm>0.5</rhythm><MIDI>65</MIDI><TotalPI>2.0</TotalPI><melody>no_main</melody></note>
      <note>
        <rest />
        <duration>2</duration>
        <voice>5</voice>
        <type>eighth</type>
        <staff>2</staff>
        <rhythm>0.5</rhythm><TotalPI>2.5</TotalPI><melody>no_main</melody></note>
      <note default-x="153.09" default-y="-110.00">
        <pitch>
          <step>G</step>
          <octave>3</octave>
          </pitch>
        <duration>2</duration>
        <voice>5</voice>
        <type>eighth</type>
        <stem>down</stem>
        <staff>2</staff>
        <rhythm>0.5</rhythm><MIDI>55</MIDI><TotalPI>3.0</TotalPI><melody>no_main</melody></note>
      <note default-x="153.09" default-y="-100.00">
        <chord />
        <pitch>
          <step>B</step>
          <octave>3</octave>
          </pitch>
        <duration>2</duration>
        <voice>5</voice>
        <type>eighth</type>
        <stem>down</stem>
        <staff>2</staff>
        <rhythm>0.5</rhythm><MIDI>59</MIDI><TotalPI>3.0</TotalPI><melody>no_main</melody></note>
      <note default-x="153.09" default-y="-80.00">
        <chord />
        <pitch>
          <step>F</step>
          <octave>4</octave>
          </pitch>
        <duration>2</duration>
        <voice>5</voice>
        <type>eighth</type>
        <stem>down</stem>
        <staff>2</staff>
        <rhythm>0.5</rhythm><MIDI>65</MIDI><TotalPI>3.0</TotalPI><melody>no_main</melody></note>
      <note>
        <rest />
        <duration>2</duration>
        <voice>5</voice>
        <type>eighth</type>
        <staff>2</staff>
        <rhythm>0.5</rhythm><TotalPI>3.5</TotalPI><melody>no_main</melody></note>
      </measure>
    <measure number="4" width="228.20">
      <note default-x="12.36" default-y="-30.00">
        <pitch>
          <step>G</step>
          <octave>4</octave>
          </pitch>
        <duration>2</duration>
        <voice>1</voice>
        <type>eighth</type>
        <stem>up</stem>
        <staff>1</staff>
        <beam number="1">begin</beam>
        <rhythm>0.5</rhythm><MIDI>67</MIDI><TotalPI>1</TotalPI><melody>main</melody></note>
      <note default-x="44.10" default-y="-25.00">
        <pitch>
          <step>A</step>
          <octave>4</octave>
          </pitch>
        <duration>1</duration>
        <voice>1</voice>
        <type>16th</type>
        <stem>up</stem>
        <staff>1</staff>
        <beam number="1">continue</beam>
        <beam number="2">begin</beam>
        <rhythm>0.25</rhythm><MIDI>69</MIDI><TotalPI>1.5</TotalPI><melody>main</melody></note>
      <note default-x="63.94" default-y="-20.00">
        <pitch>
          <step>B</step>
          <octave>4</octave>
          </pitch>
        <duration>1</duration>
        <voice>1</voice>
        <type>16th</type>
        <stem>up</stem>
        <staff>1</staff>
        <beam number="1">end</beam>
        <beam number="2">end</beam>
        <rhythm>0.25</rhythm><MIDI>71</MIDI><TotalPI>1.75</TotalPI><melody>main</melody></note>
      <note default-x="83.78" default-y="-15.00">
        <pitch>
          <step>C</step>
          <octave>5</octave>
          </pitch>
        <duration>1</duration>
        <voice>1</voice>
        <type>16th</type>
        <stem>down</stem>
        <staff>1</staff>
        <beam number="1">begin</beam>
        <beam number="2">begin</beam>
        <rhythm>0.25</rhythm><MIDI>72</MIDI><TotalPI>2.0</TotalPI><melody>main</melody></note>
      <note default-x="103.61" default-y="-10.00">
        <pitch>
          <step>D</step>
          <octave>5</octave>
          </pitch>
        <duration>1</duration>
        <voice>1</voice>
        <type>16th</type>
        <stem>down</stem>
        <staff>1</staff>
        <beam number="1">continue</beam>
        <beam number="2">continue</beam>
        <rhythm>0.25</rhythm><MIDI>74</MIDI><TotalPI>2.25</TotalPI><melody>main</melody></note>
      <note default-x="123.45" default-y="-5.00">
        <pitch>
          <step>E</step>
          <octave>5</octave>
          </pitch>
        <duration>1</duration>
        <voice>1</voice>
        <type>16th</type>
        <stem>down</stem>
        <staff>1</staff>
        <beam number="1">continue</beam>
        <beam number="2">continue</beam>
        <rhythm>0.25</rhythm><MIDI>76</MIDI><TotalPI>2.5</TotalPI><melody>main</melody></note>
      <note default-x="143.29" default-y="0.00">
        <pitch>
          <step>F</step>
          <octave>5</octave>
          </pitch>
        <duration>1</duration>
        <voice>1</voice>
        <type>16th</type>
        <stem>down</stem>
        <staff>1</staff>
        <beam number="1">end</beam>
        <beam number="2">end</beam>
        <rhythm>0.25</rhythm><MIDI>77</MIDI><TotalPI>2.75</TotalPI><melody>main</melody></note>
      <note default-x="163.12" default-y="5.00">
        <pitch>
          <step>G</step>
          <octave>5</octave>
          </pitch>
        <duration>2</duration>
        <voice>1</voice>
        <type>eighth</type>
        <stem>down</stem>
        <staff>1</staff>
        <beam number="1">begin</beam>
        <rhythm>0.5</rhythm><MIDI>79</MIDI><TotalPI>3.0</TotalPI><melody>main</melody></note>
      <note default-x="194.86" default-y="-30.00">
        <pitch>
          <step>G</step>
          <octave>4</octave>
          </pitch>
        <duration>2</duration>
        <voice>1</voice>
        <type>eighth</type>
        <stem>down</stem>
        <staff>1</staff>
        <beam number="1">end</beam>
        <rhythm>0.5</rhythm><MIDI>67</MIDI><TotalPI>3.5</TotalPI><melody>main</melody></note>
      <backup>
        <duration>12</duration>
        </backup>
      <note default-x="12.00" default-y="-110.00">
        <pitch>
          <step>G</step>
          <octave>3</octave>
          </pitch>
        <duration>12</duration>
        <voice>5</voice>
        <type>half</type>
        <dot />
        <stem>down</stem>
        <staff>2</staff>
        <rhythm>3.0</rhythm><MIDI>55</MIDI><TotalPI>1</TotalPI><melody>no_main</melody></note>
      <note default-x="12.00" default-y="-100.00">
        <chord />
        <pitch>
          <step>B</step>
          <octave>3</octave>
          </pitch>
        <duration>12</duration>
        <voice>5</voice>
        <type>half</type>
        <dot />
        <stem>down</stem>
        <staff>2</staff>
        <rhythm>3.0</rhythm><MIDI>59</MIDI><TotalPI>1.0</TotalPI><melody>no_main</melody></note>
      <note default-x="12.00" default-y="-80.00">
        <chord />
        <pitch>
          <step>F</step>
          <octave>4</octave>
          </pitch>
        <duration>12</duration>
        <voice>5</voice>
        <type>half</type>
        <dot />
        <stem>down</stem>
        <staff>2</staff>
        <rhythm>3.0</rhythm><MIDI>65</MIDI><TotalPI>1.0</TotalPI><melody>no_main</melody></note>
      </measure>
    <measure number="5" width="282.06">
      <print new-system="yes">
        <system-layout>
          <system-margins>
            <left-margin>21.00</left-margin>
            <right-margin>-0.00</right-margin>
            </system-margins>
          <system-distance>150.00</system-distance>
          </system-layout>
        <staff-layout number="2">
          <staff-distance>65.00</staff-distance>
          </staff-layout>
        </print>
      <note default-x="51.25" default-y="-5.00">
        <pitch>
          <step>E</step>
          <octave>5</octave>
          </pitch>
        <duration>2</duration>
        <voice>1</voice>
        <type>eighth</type>
        <stem>down</stem>
        <staff>1</staff>
        <beam number="1">begin</beam>
        <rhythm>0.5</rhythm><MIDI>76</MIDI><TotalPI>1</TotalPI><melody>main</melody></note>
      <note default-x="83.81" default-y="-30.00">
        <pitch>
          <step>G</step>
          <octave>4</octave>
          </pitch>
        <duration>1</duration>
        <voice>1</voice>
        <type>16th</type>
        <stem>down</stem>
        <staff>1</staff>
        <beam number="1">continue</beam>
        <beam number="2">begin</beam>
        <rhythm>0.25</rhythm><MIDI>67</MIDI><TotalPI>1.5</TotalPI><melody>main</melody></note>
      <note default-x="107.47" default-y="-35.00">
        <pitch>
          <step>F</step>
          <octave>4</octave>
          </pitch>
        <duration>1</duration>
        <voice>1</voice>
        <type>16th</type>
        <stem>down</stem>
        <staff>1</staff>
        <beam number="1">end</beam>
        <beam number="2">end</beam>
        <rhythm>0.25</rhythm><MIDI>65</MIDI><TotalPI>1.75</TotalPI><melody>main</melody></note>
      <note default-x="131.14" default-y="-40.00">
        <pitch>
          <step>E</step>
          <octave>4</octave>
          </pitch>
        <duration>2</duration>
        <voice>1</voice>
        <type>eighth</type>
        <stem>up</stem>
        <staff>1</staff>
        <beam number="1">begin</beam>
        <rhythm>0.5</rhythm><MIDI>64</MIDI><TotalPI>2.0</TotalPI><melody>main</melody></note>
      <note default-x="163.70" default-y="-40.00">
        <pitch>
          <step>E</step>
          <octave>4</octave>
          </pitch>
        <duration>1</duration>
        <voice>1</voice>
        <type>16th</type>
        <stem>up</stem>
        <staff>1</staff>
        <beam number="1">continue</beam>
        <beam number="2">begin</beam>
        <rhythm>0.25</rhythm><MIDI>64</MIDI><TotalPI>2.5</TotalPI><melody>main</melody></note>
      <note default-x="184.04" default-y="-45.00">
        <pitch>
          <step>D</step>
          <octave>4</octave>
          </pitch>
        <duration>1</duration>
        <voice>1</voice>
        <type>16th</type>
        <stem>up</stem>
        <staff>1</staff>
        <beam number="1">end</beam>
        <beam number="2">end</beam>
        <rhythm>0.25</rhythm><MIDI>62</MIDI><TotalPI>2.75</TotalPI><melody>main</melody></note>
      <note default-x="204.39" default-y="-50.00">
        <pitch>
          <step>C</step>
          <octave>4</octave>
          </pitch>
        <duration>2</duration>
        <voice>1</voice>
        <type>eighth</type>
        <stem>up</stem>
        <staff>1</staff>
        <beam number="1">begin</beam>
        <rhythm>0.5</rhythm><MIDI>60</MIDI><TotalPI>3.0</TotalPI><melody>main</melody></note>
      <note default-x="236.95" default-y="-5.00">
        <pitch>
          <step>E</step>
          <octave>5</octave>
          </pitch>
        <duration>1</duration>
        <voice>1</voice>
        <type>16th</type>
        <stem>up</stem>
        <staff>1</staff>
        <beam number="1">continue</beam>
        <beam number="2">begin</beam>
        <rhythm>0.25</rhythm><MIDI>76</MIDI><TotalPI>3.5</TotalPI><melody>main</melody></note>
      <note default-x="236.95" default-y="5.00">
        <chord />
        <pitch>
          <step>G</step>
          <octave>5</octave>
          </pitch>
        <duration>1</duration>
        <voice>1</voice>
        <type>16th</type>
        <stem>up</stem>
        <staff>1</staff>
        <rhythm>0.25</rhythm><MIDI>79</MIDI><TotalPI>3.5</TotalPI><melody>main</melody></note>
      <note default-x="257.30" default-y="-10.00">
        <pitch>
          <step>D</step>
          <octave>5</octave>
          </pitch>
        <duration>1</duration>
        <voice>1</voice>
        <type>16th</type>
        <stem>up</stem>
        <staff>1</staff>
        <beam number="1">end</beam>
        <beam number="2">end</beam>
        <rhythm>0.25</rhythm><MIDI>74</MIDI><TotalPI>3.75</TotalPI><melody>main</melody></note>
      <note default-x="257.30" default-y="0.00">
        <chord />
        <pitch>
          <step>F</step>
          <octave>5</octave>
          </pitch>
        <duration>1</duration>
        <voice>1</voice>
        <type>16th</type>
        <stem>up</stem>
        <staff>1</staff>
        <rhythm>0.25</rhythm><MIDI>77</MIDI><TotalPI>3.75</TotalPI><melody>main</melody></note>
      <backup>
        <duration>12</duration>
        </backup>
      <note default-x="51.25" default-y="-95.00">
        <pitch>
          <step>C</step>
          <octave>4</octave>
          </pitch>
        <duration>2</duration>
        <voice>5</voice>
        <type>eighth</type>
        <stem>down</stem>
        <staff>2</staff>
        <beam number="1">begin</beam>
        <rhythm>0.5</rhythm><MIDI>60</MIDI><TotalPI>1</TotalPI><melody>no_main</melody></note>
      <note default-x="83.81" default-y="-85.00">
        <pitch>
          <step>E</step>
          <octave>4</octave>
          </pitch>
        <duration>1</duration>
        <voice>5</voice>
        <type>16th</type>
        <stem>down</stem>
        <staff>2</staff>
        <beam number="1">continue</beam>
        <beam number="2">begin</beam>
        <rhythm>0.25</rhythm><MIDI>64</MIDI><TotalPI>1.5</TotalPI><melody>no_main</melody></note>
      <note default-x="107.47" default-y="-90.00">
        <pitch>
          <step>D</step>
          <octave>4</octave>
          </pitch>
        <duration>1</duration>
        <voice>5</voice>
        <type>16th</type>
        <stem>down</stem>
        <staff>2</staff>
        <beam number="1">end</beam>
        <beam number="2">end</beam>
        <rhythm>0.25</rhythm><MIDI>62</MIDI><TotalPI>1.75</TotalPI><melody>no_main</melody></note>
      <note default-x="131.14" default-y="-95.00">
        <pitch>
          <step>C</step>
          <octave>4</octave>
          </pitch>
        <duration>2</duration>
        <voice>5</voice>
        <type>eighth</type>
        <stem>down</stem>
        <staff>2</staff>
        <beam number="1">begin</beam>
        <rhythm>0.5</rhythm><MIDI>60</MIDI><TotalPI>2.0</TotalPI><melody>no_main</melody></note>
      <note default-x="163.70" default-y="-110.00">
        <pitch>
          <step>G</step>
          <octave>3</octave>
          </pitch>
        <duration>1</duration>
        <voice>5</voice>
        <type>16th</type>
        <stem>down</stem>
        <staff>2</staff>
        <beam number="1">continue</beam>
        <beam number="2">begin</beam>
        <rhythm>0.25</rhythm><MIDI>55</MIDI><TotalPI>2.5</TotalPI><melody>no_main</melody></note>
      <note default-x="184.04" default-y="-115.00">
        <pitch>
          <step>F</step>
          <octave>3</octave>
          </pitch>
        <duration>1</duration>
        <voice>5</voice>
        <type>16th</type>
        <stem>down</stem>
        <staff>2</staff>
        <beam number="1">end</beam>
        <beam number="2">end</beam>
        <rhythm>0.25</rhythm><MIDI>53</MIDI><TotalPI>2.75</TotalPI><melody>no_main</melody></note>
      <note default-x="204.39" default-y="-120.00">
        <pitch>
          <step>E</step>
          <octave>3</octave>
          </pitch>
        <duration>2</duration>
        <voice>5</voice>
        <type>eighth</type>
        <stem>down</stem>
        <staff>2</staff>
        <rhythm>0.5</rhythm><MIDI>52</MIDI><TotalPI>3.0</TotalPI><melody>no_main</melody></note>
      <note>
        <rest />
        <duration>2</duration>
        <voice>5</voice>
        <type>eighth</type>
        <staff>2</staff>
        <rhythm>0.5</rhythm><TotalPI>3.5</TotalPI><melody>no_main</melody></note>
      </measure>
    <measure number="6" width="197.03">
      <note default-x="12.00" default-y="-15.00">
        <pitch>
          <step>C</step>
          <octave>5</octave>
          </pitch>
        <duration>2</duration>
        <voice>1</voice>
        <type>eighth</type>
        <stem>down</stem>
        <staff>1</staff>
        <beam number="1">begin</beam>
        <rhythm>0.5</rhythm><MIDI>72</MIDI><TotalPI>1</TotalPI><melody>main</melody></note>
      <note default-x="12.00" default-y="-5.00">
        <chord />
        <pitch>
          <step>E</step>
          <octave>5</octave>
          </pitch>
        <duration>2</duration>
        <voice>1</voice>
        <type>eighth</type>
        <stem>down</stem>
        <staff>1</staff>
        <rhythm>0.5</rhythm><MIDI>76</MIDI><TotalPI>1.0</TotalPI><melody>main</melody></note>
      <note default-x="42.47" default-y="-20.00">
        <pitch>
          <step>B</step>
          <octave>4</octave>
          </pitch>
        <duration>2</duration>
        <voice>1</voice>
        <type>eighth</type>
        <stem>down</stem>
        <staff>1</staff>
        <beam number="1">end</beam>
        <rhythm>0.5</rhythm><MIDI>71</MIDI><TotalPI>1.5</TotalPI><melody>main</melody></note>
      <note default-x="42.47" default-y="-10.00">
        <chord />
        <pitch>
          <step>D</step>
          <octave>5</octave>
          </pitch>
        <duration>2</duration>
        <voice>1</voice>
        <type>eighth</type>
        <stem>down</stem>
        <staff>1</staff>
        <rhythm>0.5</rhythm><MIDI>74</MIDI><TotalPI>1.5</TotalPI><melody>main</melody></note>
      <note default-x="72.94" default-y="-25.00">
        <pitch>
          <step>A</step>
          <octave>4</octave>
          </pitch>
        <duration>2</duration>
        <voice>1</voice>
        <type>eighth</type>
        <stem>up</stem>
        <staff>1</staff>
        <beam number="1">begin</beam>
        <rhythm>0.5</rhythm><MIDI>69</MIDI><TotalPI>2.0</TotalPI><melody>main</melody></note>
      <note default-x="72.94" default-y="-15.00">
        <chord />
        <pitch>
          <step>C</step>
          <octave>5</octave>
          </pitch>
        <duration>2</duration>
        <voice>1</voice>
        <type>eighth</type>
        <stem>up</stem>
        <staff>1</staff>
        <rhythm>0.5</rhythm><MIDI>72</MIDI><TotalPI>2.0</TotalPI><melody>main</melody></note>
      <note default-x="103.41" default-y="-30.00">
        <pitch>
          <step>G</step>
          <octave>4</octave>
          </pitch>
        <duration>2</duration>
        <voice>1</voice>
        <type>eighth</type>
        <stem>up</stem>
        <staff>1</staff>
        <beam number="1">end</beam>
        <rhythm>0.5</rhythm><MIDI>67</MIDI><TotalPI>2.5</TotalPI><melody>main</melody></note>
      <note default-x="103.41" default-y="-20.00">
        <chord />
        <pitch>
          <step>B</step>
          <octave>4</octave>
          </pitch>
        <duration>2</duration>
        <voice>1</voice>
        <type>eighth</type>
        <stem>up</stem>
        <staff>1</staff>
        <rhythm>0.5</rhythm><MIDI>71</MIDI><TotalPI>2.5</TotalPI><melody>main</melody></note>
      <note default-x="134.49" default-y="-35.00">
        <pitch>
          <step>F</step>
          <alter>1</alter>
          <octave>4</octave>
          </pitch>
        <duration>2</duration>
        <voice>1</voice>
        <type>eighth</type>
        <accidental>sharp</accidental>
        <stem>up</stem>
        <staff>1</staff>
        <beam number="1">begin</beam>
        <rhythm>0.5</rhythm><MIDI>66</MIDI><TotalPI>3.0</TotalPI><melody>main</melody></note>
      <note default-x="134.49" default-y="-25.00">
        <chord />
        <pitch>
          <step>A</step>
          <octave>4</octave>
          </pitch>
        <duration>2</duration>
        <voice>1</voice>
        <type>eighth</type>
        <stem>up</stem>
        <staff>1</staff>
        <rhythm>0.5</rhythm><MIDI>69</MIDI><TotalPI>3.0</TotalPI><melody>main</melody></note>
      <note default-x="164.96" default-y="-40.00">
        <pitch>
          <step>E</step>
          <octave>4</octave>
          </pitch>
        <duration>2</duration>
        <voice>1</voice>
        <type>eighth</type>
        <stem>up</stem>
        <staff>1</staff>
        <beam number="1">end</beam>
        <rhythm>0.5</rhythm><MIDI>64</MIDI><TotalPI>3.5</TotalPI><melody>main</melody></note>
      <note default-x="164.96" default-y="-30.00">
        <chord />
        <pitch>
          <step>G</step>
          <octave>4</octave>
          </pitch>
        <duration>2</duration>
        <voice>1</voice>
        <type>eighth</type>
        <stem>up</stem>
        <staff>1</staff>
        <rhythm>0.5</rhythm><MIDI>67</MIDI><TotalPI>3.5</TotalPI><melody>main</melody></note>
      <backup>
        <duration>12</duration>
        </backup>
      <note>
        <rest />
        <duration>12</duration>
        <voice>5</voice>
        <staff>2</staff>
        <rhythm>3.0</rhythm><TotalPI>1</TotalPI><melody>no_main</melody></note>
      </measure>
    <measure number="7" width="169.50">
      <note default-x="12.00" default-y="-45.00">
        <pitch>
          <step>D</step>
          <octave>4</octave>
          </pitch>
        <duration>2</duration>
        <voice>1</voice>
        <type>eighth</type>
        <stem>up</stem>
        <staff>1</staff>
        <rhythm>0.5</rhythm><MIDI>62</MIDI><TotalPI>1</TotalPI><melody>main</melody></note>
      <note default-x="12.00" default-y="-35.00">
        <chord />
        <pitch>
          <step>F</step>
          <octave>4</octave>
          </pitch>
        <duration>2</duration>
        <voice>1</voice>
        <type>eighth</type>
        <stem>up</stem>
        <staff>1</staff>
        <rhythm>0.5</rhythm><MIDI>65</MIDI><TotalPI>1.0</TotalPI><melody>main</melody></note>
      <note default-x="12.00" default-y="-25.00">
        <chord />
        <pitch>
          <step>A</step>
          <octave>4</octave>
          </pitch>
        <duration>2</duration>
        <voice>1</voice>
        <type>eighth</type>
        <stem>up</stem>
        <staff>1</staff>
        <rhythm>0.5</rhythm><MIDI>69</MIDI><TotalPI>1.0</TotalPI><melody>main</melody></note>
      <note default-x="37.27" default-y="-45.00">
        <pitch>
          <step>D</step>
          <octave>4</octave>
          </pitch>
        <duration>4</duration>
        <voice>1</voice>
        <type>quarter</type>
        <stem>up</stem>
        <staff>1</staff>
        <rhythm>1.0</rhythm><MIDI>62</MIDI><TotalPI>1.5</TotalPI><melody>main</melody></note>
      <note default-x="37.27" default-y="-35.00">
        <chord />
        <pitch>
          <step>F</step>
          <octave>4</octave>
          </pitch>
        <duration>4</duration>
        <voice>1</voice>
        <type>quarter</type>
        <stem>up</stem>
        <staff>1</staff>
        <rhythm>1.0</rhythm><MIDI>65</MIDI><TotalPI>1.5</TotalPI><melody>main</melody></note>
      <note default-x="86.20" default-y="-45.00">
        <pitch>
          <step>D</step>
          <octave>4</octave>
          </pitch>
        <duration>4</duration>
        <voice>1</voice>
        <type>quarter</type>
        <stem>up</stem>
        <staff>1</staff>
        <rhythm>1.0</rhythm><MIDI>62</MIDI><TotalPI>2.5</TotalPI><melody>main</melody></note>
      <note default-x="86.20" default-y="-35.00">
        <chord />
        <pitch>
          <step>F</step>
          <octave>4</octave>
          </pitch>
        <duration>4</duration>
        <voice>1</voice>
        <type>quarter</type>
        <stem>up</stem>
        <staff>1</staff>
        <rhythm>1.0</rhythm><MIDI>65</MIDI><TotalPI>2.5</TotalPI><melody>main</melody></note>
      <note default-x="135.12" default-y="-45.00">
        <pitch>
          <step>D</step>
          <octave>4</octave>
          </pitch>
        <duration>2</duration>
        <voice>1</voice>
        <type>eighth</type>
        <stem>up</stem>
        <staff>1</staff>
        <rhythm>0.5</rhythm><MIDI>62</MIDI><TotalPI>3.5</TotalPI><melody>main</melody></note>
      <note default-x="135.12" default-y="-35.00">
        <chord />
        <pitch>
          <step>F</step>
          <octave>4</octave>
          </pitch>
        <duration>2</duration>
        <voice>1</voice>
        <type>eighth</type>
        <stem>up</stem>
        <staff>1</staff>
        <rhythm>0.5</rhythm><MIDI>65</MIDI><TotalPI>3.5</TotalPI><melody>main</melody></note>
      <backup>
        <duration>12</duration>
        </backup>
      <note default-x="12.00" default-y="-130.00">
        <pitch>
          <step>C</step>
          <octave>3</octave>
          </pitch>
        <duration>4</duration>
        <voice>5</voice>
        <type>quarter</type>
        <stem>down</stem>
        <staff>2</staff>
        <rhythm>1.0</rhythm><MIDI>48</MIDI><TotalPI>1</TotalPI><melody>no_main</melody></note>
      <note default-x="12.00" default-y="-105.00">
        <chord />
        <pitch>
          <step>A</step>
          <octave>3</octave>
          </pitch>
        <duration>4</duration>
        <voice>5</voice>
        <type>quarter</type>
        <stem>down</stem>
        <staff>2</staff>
        <rhythm>1.0</rhythm><MIDI>57</MIDI><TotalPI>1.0</TotalPI><melody>no_main</melody></note>
      <note default-x="61.74" default-y="-130.00">
        <pitch>
          <step>C</step>
          <octave>3</octave>
          </pitch>
        <duration>4</duration>
        <voice>5</voice>
        <type>quarter</type>
        <stem>down</stem>
        <staff>2</staff>
        <rhythm>1.0</rhythm><MIDI>48</MIDI><TotalPI>2.0</TotalPI><melody>no_main</melody></note>
      <note default-x="61.74" default-y="-105.00">
        <chord />
        <pitch>
          <step>A</step>
          <octave>3</octave>
          </pitch>
        <duration>4</duration>
        <voice>5</voice>
        <type>quarter</type>
        <stem>down</stem>
        <staff>2</staff>
        <rhythm>1.0</rhythm><MIDI>57</MIDI><TotalPI>2.0</TotalPI><melody>no_main</melody></note>
      <note default-x="110.66" default-y="-130.00">
        <pitch>
          <step>C</step>
          <octave>3</octave>
          </pitch>
        <duration>4</duration>
        <voice>5</voice>
        <type>quarter</type>
        <stem>down</stem>
        <staff>2</staff>
        <rhythm>1.0</rhythm><MIDI>48</MIDI><TotalPI>3.0</TotalPI><melody>no_main</melody></note>
      <note default-x="110.66" default-y="-105.00">
        <chord />
        <pitch>
          <step>A</step>
          <octave>3</octave>
          </pitch>
        <duration>4</duration>
        <voice>5</voice>
        <type>quarter</type>
        <stem>down</stem>
        <staff>2</staff>
        <rhythm>1.0</rhythm><MIDI>57</MIDI><TotalPI>3.0</TotalPI><melody>no_main</melody></note>
      </measure>
    <measure number="8" width="197.03">
      <note default-x="12.00" default-y="-30.00">
        <pitch>
          <step>G</step>
          <octave>4</octave>
          </pitch>
        <duration>2</duration>
        <voice>1</voice>
        <type>eighth</type>
        <stem>down</stem>
        <staff>1</staff>
        <beam number="1">begin</beam>
        <rhythm>0.5</rhythm><MIDI>67</MIDI><TotalPI>1</TotalPI><melody>main</melody></note>
      <note default-x="12.00" default-y="-20.00">
        <chord />
        <pitch>
          <step>B</step>
          <octave>4</octave>
          </pitch>
        <duration>2</duration>
        <voice>1</voice>
        <type>eighth</type>
        <stem>down</stem>
        <staff>1</staff>
        <rhythm>0.5</rhythm><MIDI>71</MIDI><TotalPI>1.0</TotalPI><melody>main</melody></note>
      <note default-x="42.47" default-y="-20.00">
        <pitch>
          <step>B</step>
          <octave>4</octave>
          </pitch>
        <duration>2</duration>
        <voice>1</voice>
        <type>eighth</type>
        <stem>down</stem>
        <staff>1</staff>
        <beam number="1">end</beam>
        <rhythm>0.5</rhythm><MIDI>71</MIDI><TotalPI>1.5</TotalPI><melody>main</melody></note>
      <note default-x="42.47" default-y="-10.00">
        <chord />
        <pitch>
          <step>D</step>
          <octave>5</octave>
          </pitch>
        <duration>2</duration>
        <voice>1</voice>
        <type>eighth</type>
        <stem>down</stem>
        <staff>1</staff>
        <rhythm>0.5</rhythm><MIDI>74</MIDI><TotalPI>1.5</TotalPI><melody>main</melody></note>
      <note default-x="72.94" default-y="-20.00">
        <pitch>
          <step>B</step>
          <octave>4</octave>
          </pitch>
        <duration>2</duration>
        <voice>1</voice>
        <type>eighth</type>
        <stem>down</stem>
        <staff>1</staff>
        <beam number="1">begin</beam>
        <rhythm>0.5</rhythm><MIDI>71</MIDI><TotalPI>2.0</TotalPI><melody>main</melody></note>
      <note default-x="72.94" default-y="-10.00">
        <chord />
        <pitch>
          <step>D</step>
          <octave>5</octave>
          </pitch>
        <duration>2</duration>
        <voice>1</voice>
        <type>eighth</type>
        <stem>down</stem>
        <staff>1</staff>
        <rhythm>0.5</rhythm><MIDI>74</MIDI><TotalPI>2.0</TotalPI><melody>main</melody></note>
      <note default-x="103.41" default-y="-25.00">
        <pitch>
          <step>A</step>
          <octave>4</octave>
          </pitch>
        <duration>2</duration>
        <voice>1</voice>
        <type>eighth</type>
        <stem>down</stem>
        <staff>1</staff>
        <beam number="1">end</beam>
        <rhythm>0.5</rhythm><MIDI>69</MIDI><TotalPI>2.5</TotalPI><melody>main</melody></note>
      <note default-x="103.41" default-y="-15.00">
        <chord />
        <pitch>
          <step>C</step>
          <octave>5</octave>
          </pitch>
        <duration>2</duration>
        <voice>1</voice>
        <type>eighth</type>
        <stem>down</stem>
        <staff>1</staff>
        <rhythm>0.5</rhythm><MIDI>72</MIDI><TotalPI>2.5</TotalPI><melody>main</melody></note>
      <note default-x="133.88" default-y="-30.00">
        <pitch>
          <step>G</step>
          <octave>4</octave>
          </pitch>
        <duration>2</duration>
        <voice>1</voice>
        <type>eighth</type>
        <stem>up</stem>
        <staff>1</staff>
        <beam number="1">begin</beam>
        <rhythm>0.5</rhythm><MIDI>67</MIDI><TotalPI>3.0</TotalPI><melody>main</melody></note>
      <note default-x="133.88" default-y="-20.00">
        <chord />
        <pitch>
          <step>B</step>
          <octave>4</octave>
          </pitch>
        <duration>2</duration>
        <voice>1</voice>
        <type>eighth</type>
        <stem>up</stem>
        <staff>1</staff>
        <rhythm>0.5</rhythm><MIDI>71</MIDI><TotalPI>3.0</TotalPI><melody>main</melody></note>
      <note default-x="164.96" default-y="-35.00">
        <pitch>
          <step>F</step>
          <alter>1</alter>
          <octave>4</octave>
          </pitch>
        <duration>2</duration>
        <voice>1</voice>
        <type>eighth</type>
        <accidental>sharp</accidental>
        <stem>up</stem>
        <staff>1</staff>
        <beam number="1">end</beam>
        <rhythm>0.5</rhythm><MIDI>66</MIDI><TotalPI>3.5</TotalPI><melody>main</melody></note>
      <note default-x="164.96" default-y="-25.00">
        <chord />
        <pitch>
          <step>A</step>
          <octave>4</octave>
          </pitch>
        <duration>2</duration>
        <voice>1</voice>
        <type>eighth</type>
        <stem>up</stem>
        <staff>1</staff>
        <rhythm>0.5</rhythm><MIDI>69</MIDI><TotalPI>3.5</TotalPI><melody>main</melody></note>
      <backup>
        <duration>12</duration>
        </backup>
      <note default-x="12.00" default-y="-135.00">
        <pitch>
          <step>B</step>
          <octave>2</octave>
          </pitch>
        <duration>4</duration>
        <voice>5</voice>
        <type>quarter</type>
        <stem>down</stem>
        <staff>2</staff>
        <rhythm>1.0</rhythm><MIDI>47</MIDI><TotalPI>1</TotalPI><melody>no_main</melody></note>
      <note default-x="12.00" default-y="-110.00">
        <chord />
        <pitch>
          <step>G</step>
          <octave>3</octave>
          </pitch>
        <duration>4</duration>
        <voice>5</voice>
        <type>quarter</type>
        <stem>down</stem>
        <staff>2</staff>
        <rhythm>1.0</rhythm><MIDI>55</MIDI><TotalPI>1.0</TotalPI><melody>no_main</melody></note>
      <note default-x="72.94" default-y="-130.00">
        <pitch>
          <step>C</step>
          <octave>3</octave>
          </pitch>
        <duration>4</duration>
        <voice>5</voice>
        <type>quarter</type>
        <stem>down</stem>
        <staff>2</staff>
        <rhythm>1.0</rhythm><MIDI>48</MIDI><TotalPI>2.0</TotalPI><melody>no_main</melody></note>
      <note default-x="72.94" default-y="-105.00">
        <chord />
        <pitch>
          <step>A</step>
          <octave>3</octave>
          </pitch>
        <duration>4</duration>
        <voice>5</voice>
        <type>quarter</type>
        <stem>down</stem>
        <staff>2</staff>
        <rhythm>1.0</rhythm><MIDI>57</MIDI><TotalPI>2.0</TotalPI><melody>no_main</melody></note>
      <note default-x="133.88" default-y="-125.00">
        <pitch>
          <step>D</step>
          <octave>3</octave>
          </pitch>
        <duration>4</duration>
        <voice>5</voice>
        <type>quarter</type>
        <stem>down</stem>
        <staff>2</staff>
        <rhythm>1.0</rhythm><MIDI>50</MIDI><TotalPI>3.0</TotalPI><melody>no_main</melody></note>
      <note default-x="133.88" default-y="-95.00">
        <chord />
        <pitch>
          <step>C</step>
          <octave>4</octave>
          </pitch>
        <duration>4</duration>
        <voice>5</voice>
        <type>quarter</type>
        <stem>down</stem>
        <staff>2</staff>
        <rhythm>1.0</rhythm><MIDI>60</MIDI><TotalPI>3.0</TotalPI><melody>no_main</melody></note>
      </measure>
    <measure number="9" width="321.69">
      <print new-system="yes">
        <system-layout>
          <system-margins>
            <left-margin>21.00</left-margin>
            <right-margin>523.93</right-margin>
            </system-margins>
          <system-distance>150.00</system-distance>
          </system-layout>
        <staff-layout number="2">
          <staff-distance>65.00</staff-distance>
          </staff-layout>
        </print>
      <note default-x="51.25" default-y="-30.00">
        <pitch>
          <step>G</step>
          <octave>4</octave>
          </pitch>
        <duration>2</duration>
        <voice>1</voice>
        <type>eighth</type>
        <stem>up</stem>
        <staff>1</staff>
        <beam number="1">begin</beam>
        <rhythm>0.5</rhythm><MIDI>67</MIDI><TotalPI>1</TotalPI><melody>main</melody></note>
      <note default-x="97.65" default-y="-45.00">
        <pitch>
          <step>D</step>
          <octave>4</octave>
          </pitch>
        <duration>2</duration>
        <voice>1</voice>
        <type>eighth</type>
        <stem>up</stem>
        <staff>1</staff>
        <beam number="1">end</beam>
        <rhythm>0.5</rhythm><MIDI>62</MIDI><TotalPI>1.5</TotalPI><melody>main</melody></note>
      <note default-x="144.05" default-y="-55.00">
        <pitch>
          <step>B</step>
          <octave>3</octave>
          </pitch>
        <duration>2</duration>
        <voice>1</voice>
        <type>eighth</type>
        <stem>up</stem>
        <staff>1</staff>
        <rhythm>0.5</rhythm><MIDI>59</MIDI><TotalPI>2.0</TotalPI><melody>main</melody></note>
      <note>
        <rest />
        <duration>2</duration>
        <voice>1</voice>
        <type>eighth</type>
        <staff>1</staff>
        <rhythm>0.5</rhythm><TotalPI>2.5</TotalPI><melody>main</melody></note>
      <note>
        <rest />
        <duration>4</duration>
        <voice>1</voice>
        <type>quarter</type>
        <staff>1</staff>
        <rhythm>1.0</rhythm><TotalPI>3.0</TotalPI><melody>main</melody></note>
      <backup>
        <duration>12</duration>
        </backup>
      <note default-x="51.25" default-y="-110.00">
        <pitch>
          <step>G</step>
          <octave>3</octave>
          </pitch>
        <duration>2</duration>
        <voice>5</voice>
        <type>eighth</type>
        <stem>down</stem>
        <staff>2</staff>
        <rhythm>0.5</rhythm><MIDI>55</MIDI><TotalPI>1</TotalPI><melody>no_main</melody></note>
      <note default-x="51.25" default-y="-100.00">
        <chord />
        <pitch>
          <step>B</step>
          <octave>3</octave>
          </pitch>
        <duration>2</duration>
        <voice>5</voice>
        <type>eighth</type>
        <stem>down</stem>
        <staff>2</staff>
        <rhythm>0.5</rhythm><MIDI>59</MIDI><TotalPI>1.0</TotalPI><melody>no_main</melody></note>
      <note>
        <rest />
        <duration>2</duration>
        <voice>5</voice>
        <type>eighth</type>
        <staff>2</staff>
        <rhythm>0.5</rhythm><TotalPI>1.5</TotalPI><melody>no_main</melody></note>
      <note default-x="144.05" default-y="-145.00">
        <pitch>
          <step>G</step>
          <octave>2</octave>
          </pitch>
        <duration>2</duration>
        <voice>5</voice>
        <type>eighth</type>
        <stem>up</stem>
        <staff>2</staff>
        <rhythm>0.5</rhythm><MIDI>43</MIDI><TotalPI>2.0</TotalPI><melody>no_main</melody></note>
      <note>
        <rest />
        <duration>2</duration>
        <voice>5</voice>
        <type>eighth</type>
        <staff>2</staff>
        <rhythm>0.5</rhythm><TotalPI>2.5</TotalPI><melody>no_main</melody></note>
      <note>
        <rest />
        <duration>4</duration>
        <voice>5</voice>
        <type>quarter</type>
        <staff>2</staff>
        <rhythm>1.0</rhythm><TotalPI>3.0</TotalPI><melody>no_main</melody></note>
      <barline location="right">
        <bar-style>light-heavy</bar-style>
        </barline>
      </measure>
    </part>
  </score-partwise>