<score-partwise>
  <work>
    <work-title>S &#21256;&#29273;&#21033;&#33310;&#26354;</work-title>
    </work>
  <identification>
    <encoding>
      <software>MuseScore 2.0.3.1</software>
      <encoding-date>2016-11-17</encoding-date>
      <supports element="accidental" type="yes" />
      <supports element="beam" type="yes" />
      <supports attribute="new-page" element="print" type="yes" value="yes" />
      <supports attribute="new-system" element="print" type="yes" value="yes" />
      <supports element="stem" type="yes" />
      </encoding>
    </identification>
  <defaults>
    <scaling>
      <millimeters>7.05556</millimeters>
      <tenths>40</tenths>
      </scaling>
    <page-layout>
      <page-height>1683.36</page-height>
      <page-width>980</page-width>
      <page-margins type="even">
        <left-margin>56.6929</left-margin>
        <right-margin>56.6929</right-margin>
        <top-margin>56.6929</top-margin>
        <bottom-margin>113.386</bottom-margin>
        </page-margins>
      <page-margins type="odd">
        <left-margin>56.6929</left-margin>
        <right-margin>56.6929</right-margin>
        <top-margin>56.6929</top-margin>
        <bottom-margin>113.386</bottom-margin>
        </page-margins>
      </page-layout>
    <word-font font-family="FreeSerif" font-size="10" />
    <lyric-font font-family="FreeSerif" font-size="11" />
    </defaults>
  <credit page="1">
    <credit-words default-x="490" default-y="1626.67" font-size="24" justify="center" valign="top">S &#21256;&#29273;&#21033;&#33310;&#26354;</credit-words>
    </credit>
  <part-list>
    <score-part id="P1">
      <part-name>Piano</part-name>
      <part-abbreviation>Pno.</part-abbreviation>
      <score-instrument id="P1-I1">
        <instrument-name>Piano</instrument-name>
        </score-instrument>
      <midi-device id="P1-I1" port="1" />
      <midi-instrument id="P1-I1">
        <midi-channel>1</midi-channel>
        <midi-program>1</midi-program>
        <volume>78.7402</volume>
        <pan>0</pan>
        </midi-instrument>
      </score-part>
    </part-list>
  <part id="P1">
    <measure number="1" width="330.30">
      <print>
        <system-layout>
          <system-margins>
            <left-margin>21.00</left-margin>
            <right-margin>0.00</right-margin>
            </system-margins>
          <top-system-distance>170.00</top-system-distance>
          </system-layout>
        <staff-layout number="2">
          <staff-distance>65.00</staff-distance>
          </staff-layout>
        </print>
      <attributes>
        <divisions>4</divisions>
        <key>
          <fifths>-2</fifths>
          </key>
        <time>
          <beats>4</beats>
          <beat-type>4</beat-type>
          </time>
        <staves>2</staves>
        <clef number="1">
          <sign>G</sign>
          <line>2</line>
          </clef>
        <clef number="2">
          <sign>F</sign>
          <line>4</line>
          </clef>
        </attributes>
      <direction placement="above">
        <direction-type>
          <metronome parentheses="no">
            <beat-unit>quarter</beat-unit>
            <per-minute>108.0</per-minute>
            </metronome>
          </direction-type>
        <staff>1</staff>
        <sound tempo="108.0" />
        </direction>
      <note default-x="96.46" default-y="-45.00">
        <pitch>
          <step>D</step>
          <octave>4</octave>
          <alter>0</alter></pitch>
        <duration>6</duration>
        <voice>1</voice>
        <type>quarter</type>
        <dot />
        <stem>up</stem>
        <staff>1</staff>
        <rest /><rhythm>1.5</rhythm><MIDI>62</MIDI><TotalPI>1</TotalPI></note>
      <note default-x="181.94" default-y="-30.00">
        <pitch>
          <step>G</step>
          <octave>4</octave>
          <alter>0</alter></pitch>
        <duration>2</duration>
        <voice>1</voice>
        <type>eighth</type>
        <stem>up</stem>
        <staff>1</staff>
        <rest /><rhythm>0.5</rhythm><MIDI>67</MIDI><TotalPI>2.5</TotalPI></note>
      <note default-x="210.44" default-y="-20.00">
        <pitch>
          <step>A</step>
          <alter>1</alter>
          <octave>4</octave>
          </pitch>
        <duration>6</duration>
        <voice>1</voice>
        <type>quarter</type>
        <dot />
        <stem>down</stem>
        <staff>1</staff>
        <rest /><rhythm>1.5</rhythm><MIDI>70</MIDI><TotalPI>3.0</TotalPI></note>
      <note default-x="295.93" default-y="-30.00">
        <pitch>
          <step>G</step>
          <octave>4</octave>
          <alter>0</alter></pitch>
        <duration>2</duration>
        <voice>1</voice>
        <type>eighth</type>
        <stem>up</stem>
        <staff>1</staff>
        <rest /><rhythm>0.5</rhythm><MIDI>67</MIDI><TotalPI>4.5</TotalPI></note>
      <backup>
        <duration>16</duration>
        </backup>
      <note default-x="96.46" default-y="-145.00">
        <pitch>
          <step>G</step>
          <octave>2</octave>
          <alter>0</alter></pitch>
        <duration>2</duration>
        <voice>5</voice>
        <type>eighth</type>
        <stem>up</stem>
        <staff>2</staff>
        <beam number="1">begin</beam>
        <rhythm>0.5</rhythm><MIDI>43</MIDI><TotalPI>1</TotalPI></note>
      <note default-x="124.95" default-y="-125.00">
        <pitch>
          <step>D</step>
          <octave>3</octave>
          <alter>0</alter></pitch>
        <duration>2</duration>
        <voice>5</voice>
        <type>eighth</type>
        <stem>up</stem>
        <staff>2</staff>
        <beam number="1">continue</beam>
        <rhythm>0.5</rhythm><MIDI>50</MIDI><TotalPI>1.5</TotalPI></note>
      <note default-x="153.45" default-y="-160.00">
        <pitch>
          <step>D</step>
          <octave>2</octave>
          <alter>0</alter></pitch>
        <duration>2</duration>
        <voice>5</voice>
        <type>eighth</type>
        <stem>up</stem>
        <staff>2</staff>
        <beam number="1">continue</beam>
        <rhythm>0.5</rhythm><MIDI>38</MIDI><TotalPI>2.0</TotalPI></note>
      <note default-x="181.94" default-y="-125.00">
        <pitch>
          <step>D</step>
          <octave>3</octave>
          <alter>0</alter></pitch>
        <duration>2</duration>
        <voice>5</voice>
        <type>eighth</type>
        <stem>up</stem>
        <staff>2</staff>
        <beam number="1">end</beam>
        <rhythm>0.5</rhythm><MIDI>50</MIDI><TotalPI>2.5</TotalPI></note>
      <note default-x="210.44" default-y="-145.00">
        <pitch>
          <step>G</step>
          <octave>2</octave>
          <alter>0</alter></pitch>
        <duration>2</duration>
        <voice>5</voice>
        <type>eighth</type>
        <stem>up</stem>
        <staff>2</staff>
        <beam number="1">begin</beam>
        <rhythm>0.5</rhythm><MIDI>43</MIDI><TotalPI>3.0</TotalPI></note>
      <note default-x="238.94" default-y="-125.00">
        <pitch>
          <step>D</step>
          <octave>3</octave>
          <alter>0</alter></pitch>
        <duration>2</duration>
        <voice>5</voice>
        <type>eighth</type>
        <stem>up</stem>
        <staff>2</staff>
        <beam number="1">continue</beam>
        <rhythm>0.5</rhythm><MIDI>50</MIDI><TotalPI>3.5</TotalPI></note>
      <note default-x="267.43" default-y="-160.00">
        <pitch>
          <step>D</step>
          <octave>2</octave>
          <alter>0</alter></pitch>
        <duration>2</duration>
        <voice>5</voice>
        <type>eighth</type>
        <stem>up</stem>
        <staff>2</staff>
        <beam number="1">continue</beam>
        <rhythm>0.5</rhythm><MIDI>38</MIDI><TotalPI>4.0</TotalPI></note>
      <note default-x="295.93" default-y="-125.00">
        <pitch>
          <step>D</step>
          <octave>3</octave>
          <alter>0</alter></pitch>
        <duration>2</duration>
        <voice>5</voice>
        <type>eighth</type>
        <stem>up</stem>
        <staff>2</staff>
        <beam number="1">end</beam>
        <rhythm>0.5</rhythm><MIDI>50</MIDI><TotalPI>4.5</TotalPI></note>
      </measure>
    <measure number="2" width="262.66">
      <note default-x="18.42" default-y="-35.00">
        <pitch>
          <step>F</step>
          <alter>1</alter>
          <octave>4</octave>
          </pitch>
        <duration>6</duration>
        <voice>1</voice>
        <type>quarter</type>
        <dot />
        <accidental>sharp</accidental>
        <stem>up</stem>
        <staff>1</staff>
        <rest /><rhythm>1.5</rhythm><MIDI>66</MIDI><TotalPI>1</TotalPI></note>
      <note default-x="106.65" default-y="-30.00">
        <pitch>
          <step>G</step>
          <octave>4</octave>
          <alter>0</alter></pitch>
        <duration>1</duration>
        <voice>1</voice>
        <type>16th</type>
        <stem>up</stem>
        <staff>1</staff>
        <beam number="1">begin</beam>
        <beam number="2">begin</beam>
        <rest /><rhythm>0.25</rhythm><MIDI>67</MIDI><TotalPI>2.5</TotalPI></note>
      <note default-x="125.03" default-y="-25.00">
        <pitch>
          <step>A</step>
          <octave>4</octave>
          <alter>0</alter></pitch>
        <duration>1</duration>
        <voice>1</voice>
        <type>16th</type>
        <stem>up</stem>
        <staff>1</staff>
        <beam number="1">end</beam>
        <beam number="2">end</beam>
        <rest /><rhythm>0.25</rhythm><MIDI>69</MIDI><TotalPI>2.75</TotalPI></note>
      <note default-x="143.05" default-y="-30.00">
        <pitch>
          <step>G</step>
          <octave>4</octave>
          <alter>0</alter></pitch>
        <duration>8</duration>
        <voice>1</voice>
        <type>half</type>
        <stem>up</stem>
        <staff>1</staff>
        <rest /><rhythm>2.0</rhythm><MIDI>67</MIDI><TotalPI>3.0</TotalPI></note>
      <backup>
        <duration>16</duration>
        </backup>
      <note default-x="18.42" default-y="-145.00">
        <pitch>
          <step>G</step>
          <octave>2</octave>
          <alter>0</alter></pitch>
        <duration>2</duration>
        <voice>5</voice>
        <type>eighth</type>
        <stem>up</stem>
        <staff>2</staff>
        <beam number="1">begin</beam>
        <rhythm>0.5</rhythm><MIDI>43</MIDI><TotalPI>1</TotalPI></note>
      <note default-x="47.83" default-y="-120.00">
        <pitch>
          <step>D</step>
          <alter>1</alter>
          <octave>3</octave>
          </pitch>
        <duration>2</duration>
        <voice>5</voice>
        <type>eighth</type>
        <stem>up</stem>
        <staff>2</staff>
        <beam number="1">continue</beam>
        <rhythm>0.5</rhythm><MIDI>51</MIDI><TotalPI>1.5</TotalPI></note>
      <note default-x="77.24" default-y="-165.00">
        <pitch>
          <step>C</step>
          <octave>2</octave>
          <alter>0</alter></pitch>
        <duration>2</duration>
        <voice>5</voice>
        <type>eighth</type>
        <stem>up</stem>
        <staff>2</staff>
        <beam number="1">continue</beam>
        <rhythm>0.5</rhythm><MIDI>36</MIDI><TotalPI>2.0</TotalPI></note>
      <note default-x="106.65" default-y="-120.00">
        <pitch>
          <step>D</step>
          <alter>1</alter>
          <octave>3</octave>
          </pitch>
        <duration>2</duration>
        <voice>5</voice>
        <type>eighth</type>
        <stem>up</stem>
        <staff>2</staff>
        <beam number="1">end</beam>
        <rhythm>0.5</rhythm><MIDI>51</MIDI><TotalPI>2.5</TotalPI></note>
      <note default-x="143.41" default-y="-145.00">
        <pitch>
          <step>G</step>
          <octave>2</octave>
          <alter>0</alter></pitch>
        <duration>2</duration>
        <voice>5</voice>
        <type>eighth</type>
        <stem>up</stem>
        <staff>2</staff>
        <beam number="1">begin</beam>
        <rhythm>0.5</rhythm><MIDI>43</MIDI><TotalPI>3.0</TotalPI></note>
      <note default-x="172.82" default-y="-125.00">
        <pitch>
          <step>D</step>
          <octave>3</octave>
          <alter>0</alter></pitch>
        <duration>2</duration>
        <voice>5</voice>
        <type>eighth</type>
        <stem>up</stem>
        <staff>2</staff>
        <beam number="1">continue</beam>
        <rhythm>0.5</rhythm><MIDI>50</MIDI><TotalPI>3.5</TotalPI></note>
      <note default-x="202.23" default-y="-160.00">
        <pitch>
          <step>D</step>
          <octave>2</octave>
          <alter>0</alter></pitch>
        <duration>2</duration>
        <voice>5</voice>
        <type>eighth</type>
        <stem>up</stem>
        <staff>2</staff>
        <beam number="1">continue</beam>
        <rhythm>0.5</rhythm><MIDI>38</MIDI><TotalPI>4.0</TotalPI></note>
      <note default-x="231.64" default-y="-125.00">
        <pitch>
          <step>D</step>
          <octave>3</octave>
          <alter>0</alter></pitch>
        <duration>2</duration>
        <voice>5</voice>
        <type>eighth</type>
        <stem>up</stem>
        <staff>2</staff>
        <beam number="1">end</beam>
        <rhythm>0.5</rhythm><MIDI>50</MIDI><TotalPI>4.5</TotalPI></note>
      </measure>
    <measure number="3" width="252.66">
      <note default-x="12.00" default-y="-40.00">
        <pitch>
          <step>D</step>
          <alter>1</alter>
          <octave>4</octave>
          </pitch>
        <duration>6</duration>
        <voice>1</voice>
        <type>quarter</type>
        <dot />
        <stem>up</stem>
        <staff>1</staff>
        <rest /><rhythm>1.5</rhythm><MIDI>63</MIDI><TotalPI>1</TotalPI></note>
      <note default-x="98.93" default-y="-35.00">
        <pitch>
          <step>F</step>
          <octave>4</octave>
          <alter>0</alter></pitch>
        <duration>1</duration>
        <voice>1</voice>
        <type>16th</type>
        <stem>up</stem>
        <staff>1</staff>
        <beam number="1">begin</beam>
        <beam number="2">begin</beam>
        <rest /><rhythm>0.25</rhythm><MIDI>65</MIDI><TotalPI>2.5</TotalPI></note>
      <note default-x="117.04" default-y="-30.00">
        <pitch>
          <step>G</step>
          <octave>4</octave>
          <alter>0</alter></pitch>
        <duration>1</duration>
        <voice>1</voice>
        <type>16th</type>
        <stem>up</stem>
        <staff>1</staff>
        <beam number="1">end</beam>
        <beam number="2">end</beam>
        <rest /><rhythm>0.25</rhythm><MIDI>67</MIDI><TotalPI>2.75</TotalPI></note>
      <note default-x="134.79" default-y="-45.00">
        <pitch>
          <step>D</step>
          <octave>4</octave>
          <alter>0</alter></pitch>
        <duration>8</duration>
        <voice>1</voice>
        <type>half</type>
        <stem>up</stem>
        <staff>1</staff>
        <rest /><rhythm>2.0</rhythm><MIDI>62</MIDI><TotalPI>3.0</TotalPI></note>
      <backup>
        <duration>16</duration>
        </backup>
      <note default-x="12.00" default-y="-145.00">
        <pitch>
          <step>G</step>
          <octave>2</octave>
          <alter>0</alter></pitch>
        <duration>2</duration>
        <voice>5</voice>
        <type>eighth</type>
        <stem>up</stem>
        <staff>2</staff>
        <beam number="1">begin</beam>
        <rhythm>0.5</rhythm><MIDI>43</MIDI><TotalPI>1</TotalPI></note>
      <note default-x="40.98" default-y="-130.00">
        <pitch>
          <step>C</step>
          <octave>3</octave>
          <alter>0</alter></pitch>
        <duration>2</duration>
        <voice>5</voice>
        <type>eighth</type>
        <stem>up</stem>
        <staff>2</staff>
        <beam number="1">continue</beam>
        <rhythm>0.5</rhythm><MIDI>48</MIDI><TotalPI>1.5</TotalPI></note>
      <note default-x="69.95" default-y="-165.00">
        <pitch>
          <step>C</step>
          <octave>2</octave>
          <alter>0</alter></pitch>
        <duration>2</duration>
        <voice>5</voice>
        <type>eighth</type>
        <stem>up</stem>
        <staff>2</staff>
        <beam number="1">continue</beam>
        <rhythm>0.5</rhythm><MIDI>36</MIDI><TotalPI>2.0</TotalPI></note>
      <note default-x="98.93" default-y="-130.00">
        <pitch>
          <step>C</step>
          <octave>3</octave>
          <alter>0</alter></pitch>
        <duration>2</duration>
        <voice>5</voice>
        <type>eighth</type>
        <stem>up</stem>
        <staff>2</staff>
        <beam number="1">end</beam>
        <rhythm>0.5</rhythm><MIDI>48</MIDI><TotalPI>2.5</TotalPI></note>
      <note default-x="135.15" default-y="-145.00">
        <pitch>
          <step>G</step>
          <octave>2</octave>
          <alter>0</alter></pitch>
        <duration>2</duration>
        <voice>5</voice>
        <type>eighth</type>
        <stem>up</stem>
        <staff>2</staff>
        <beam number="1">begin</beam>
        <rhythm>0.5</rhythm><MIDI>43</MIDI><TotalPI>3.0</TotalPI></note>
      <note default-x="164.13" default-y="-135.00">
        <pitch>
          <step>A</step>
          <alter>1</alter>
          <octave>2</octave>
          </pitch>
        <duration>2</duration>
        <voice>5</voice>
        <type>eighth</type>
        <stem>up</stem>
        <staff>2</staff>
        <beam number="1">continue</beam>
        <rhythm>0.5</rhythm><MIDI>46</MIDI><TotalPI>3.5</TotalPI></note>
      <note default-x="193.10" default-y="-165.00">
        <pitch>
          <step>C</step>
          <octave>2</octave>
          <alter>0</alter></pitch>
        <duration>2</duration>
        <voice>5</voice>
        <type>eighth</type>
        <stem>up</stem>
        <staff>2</staff>
        <beam number="1">continue</beam>
        <rhythm>0.5</rhythm><MIDI>36</MIDI><TotalPI>4.0</TotalPI></note>
      <note default-x="222.08" default-y="-135.00">
        <pitch>
          <step>A</step>
          <alter>1</alter>
          <octave>2</octave>
          </pitch>
        <duration>2</duration>
        <voice>5</voice>
        <type>eighth</type>
        <stem>up</stem>
        <staff>2</staff>
        <beam number="1">end</beam>
        <rhythm>0.5</rhythm><MIDI>46</MIDI><TotalPI>4.5</TotalPI></note>
      </measure>
    <measure number="4" width="358.97">
      <print new-system="yes">
        <system-layout>
          <system-margins>
            <left-margin>21.00</left-margin>
            <right-margin>-0.00</right-margin>
            </system-margins>
          <system-distance>150.00</system-distance>
          </system-layout>
        <staff-layout number="2">
          <staff-distance>65.00</staff-distance>
          </staff-layout>
        </print>
      <note default-x="90.77" default-y="-50.00">
        <pitch>
          <step>C</step>
          <octave>4</octave>
          <alter>0</alter></pitch>
        <duration>1</duration>
        <voice>1</voice>
        <type>16th</type>
        <stem>up</stem>
        <staff>1</staff>
        <beam number="1">begin</beam>
        <beam number="2">begin</beam>
        <rest /><rhythm>0.25</rhythm><MIDI>60</MIDI><TotalPI>1</TotalPI></note>
      <note default-x="114.44" default-y="-55.00">
        <pitch>
          <step>A</step>
          <alter>1</alter>
          <octave>3</octave>
          </pitch>
        <duration>1</duration>
        <voice>1</voice>
        <type>16th</type>
        <stem>up</stem>
        <staff>1</staff>
        <beam number="1">continue</beam>
        <beam number="2">continue</beam>
        <rest /><rhythm>0.25</rhythm><MIDI>58</MIDI><TotalPI>1.25</TotalPI></note>
      <note default-x="138.10" default-y="-55.00">
        <pitch>
          <step>A</step>
          <alter>1</alter>
          <octave>3</octave>
          </pitch>
        <duration>1</duration>
        <voice>1</voice>
        <type>16th</type>
        <stem>up</stem>
        <staff>1</staff>
        <beam number="1">continue</beam>
        <beam number="2">continue</beam>
        <rest /><rhythm>0.25</rhythm><MIDI>58</MIDI><TotalPI>1.5</TotalPI></note>
      <note default-x="161.77" default-y="-60.00">
        <pitch>
          <step>A</step>
          <octave>3</octave>
          <alter>0</alter></pitch>
        <duration>1</duration>
        <voice>1</voice>
        <type>16th</type>
        <stem>up</stem>
        <staff>1</staff>
        <beam number="1">end</beam>
        <beam number="2">end</beam>
        <rest /><rhythm>0.25</rhythm><MIDI>57</MIDI><TotalPI>1.75</TotalPI></note>
      <note default-x="185.43" default-y="-60.00">
        <pitch>
          <step>A</step>
          <octave>3</octave>
          <alter>0</alter></pitch>
        <duration>3</duration>
        <voice>1</voice>
        <type>eighth</type>
        <dot />
        <stem>up</stem>
        <staff>1</staff>
        <beam number="1">begin</beam>
        <rest /><rhythm>0.75</rhythm><MIDI>57</MIDI><TotalPI>2.0</TotalPI></note>
      <note default-x="228.16" default-y="-55.00">
        <pitch>
          <step>A</step>
          <alter>1</alter>
          <octave>3</octave>
          </pitch>
        <duration>1</duration>
        <voice>1</voice>
        <type>16th</type>
        <stem>up</stem>
        <staff>1</staff>
        <beam number="1">end</beam>
        <beam number="2">backward hook</beam>
        <rest /><rhythm>0.25</rhythm><MIDI>58</MIDI><TotalPI>2.75</TotalPI></note>
      <note default-x="251.83" default-y="-65.00">
        <pitch>
          <step>G</step>
          <octave>3</octave>
          <alter>0</alter></pitch>
        <duration>8</duration>
        <voice>1</voice>
        <type>half</type>
        <stem>up</stem>
        <staff>1</staff>
        <rest /><rhythm>2.0</rhythm><MIDI>55</MIDI><TotalPI>3.0</TotalPI></note>
      <backup>
        <duration>16</duration>
        </backup>
      <note default-x="90.77" default-y="-150.00">
        <pitch>
          <step>F</step>
          <alter>1</alter>
          <octave>2</octave>
          </pitch>
        <duration>2</duration>
        <voice>5</voice>
        <type>eighth</type>
        <accidental>sharp</accidental>
        <stem>up</stem>
        <staff>2</staff>
        <beam number="1">begin</beam>
        <rhythm>0.5</rhythm><MIDI>42</MIDI><TotalPI>1</TotalPI></note>
      <note default-x="138.10" default-y="-125.00">
        <pitch>
          <step>D</step>
          <octave>3</octave>
          <alter>0</alter></pitch>
        <duration>2</duration>
        <voice>5</voice>
        <type>eighth</type>
        <stem>up</stem>
        <staff>2</staff>
        <beam number="1">continue</beam>
        <rhythm>0.5</rhythm><MIDI>50</MIDI><TotalPI>1.5</TotalPI></note>
      <note default-x="185.43" default-y="-160.00">
        <pitch>
          <step>D</step>
          <octave>2</octave>
          <alter>0</alter></pitch>
        <duration>2</duration>
        <voice>5</voice>
        <type>eighth</type>
        <stem>up</stem>
        <staff>2</staff>
        <beam number="1">continue</beam>
        <rhythm>0.5</rhythm><MIDI>38</MIDI><TotalPI>2.0</TotalPI></note>
      <note default-x="211.73" default-y="-125.00">
        <pitch>
          <step>D</step>
          <octave>3</octave>
          <alter>0</alter></pitch>
        <duration>2</duration>
        <voice>5</voice>
        <type>eighth</type>
        <stem>up</stem>
        <staff>2</staff>
        <beam number="1">end</beam>
        <rhythm>0.5</rhythm><MIDI>50</MIDI><TotalPI>2.5</TotalPI></note>
      <note default-x="252.19" default-y="-145.00">
        <pitch>
          <step>G</step>
          <octave>2</octave>
          <alter>0</alter></pitch>
        <duration>2</duration>
        <voice>5</voice>
        <type>eighth</type>
        <stem>up</stem>
        <staff>2</staff>
        <beam number="1">begin</beam>
        <rhythm>0.5</rhythm><MIDI>43</MIDI><TotalPI>3.0</TotalPI></note>
      <note default-x="278.49" default-y="-135.00">
        <pitch>
          <step>A</step>
          <alter>1</alter>
          <octave>2</octave>
          </pitch>
        <duration>2</duration>
        <voice>5</voice>
        <type>eighth</type>
        <stem>up</stem>
        <staff>2</staff>
        <beam number="1">continue</beam>
        <rhythm>0.5</rhythm><MIDI>46</MIDI><TotalPI>3.5</TotalPI></note>
      <note default-x="304.78" default-y="-160.00">
        <pitch>
          <step>D</step>
          <octave>2</octave>
          <alter>0</alter></pitch>
        <duration>2</duration>
        <voice>5</voice>
        <type>eighth</type>
        <stem>up</stem>
        <staff>2</staff>
        <beam number="1">continue</beam>
        <rhythm>0.5</rhythm><MIDI>38</MIDI><TotalPI>4.0</TotalPI></note>
      <note default-x="331.08" default-y="-135.00">
        <pitch>
          <step>A</step>
          <alter>1</alter>
          <octave>2</octave>
          </pitch>
        <duration>2</duration>
        <voice>5</voice>
        <type>eighth</type>
        <stem>up</stem>
        <staff>2</staff>
        <beam number="1">end</beam>
        <rhythm>0.5</rhythm><MIDI>46</MIDI><TotalPI>4.5</TotalPI></note>
      </measure>
    <measure number="5" width="234.14">
      <note default-x="12.00" default-y="-10.00">
        <pitch>
          <step>D</step>
          <octave>5</octave>
          <alter>0</alter></pitch>
        <duration>6</duration>
        <voice>1</voice>
        <type>quarter</type>
        <dot />
        <stem>up</stem>
        <staff>1</staff>
        <rest /><rhythm>1.5</rhythm><MIDI>74</MIDI><TotalPI>1</TotalPI></note>
      <note default-x="89.46" default-y="5.00">
        <pitch>
          <step>G</step>
          <octave>5</octave>
          <alter>0</alter></pitch>
        <duration>1</duration>
        <voice>1</voice>
        <type>16th</type>
        <stem>down</stem>
        <staff>1</staff>
        <rest /><rhythm>0.25</rhythm><MIDI>79</MIDI><TotalPI>2.5</TotalPI></note>
      <note default-x="105.60" default-y="15.00">
        <pitch>
          <step>A</step>
          <alter>1</alter>
          <octave>5</octave>
          </pitch>
        <duration>1</duration>
        <voice>1</voice>
        <type>16th</type>
        <stem>down</stem>
        <staff>1</staff>
        <rest /><rhythm>0.25</rhythm><MIDI>82</MIDI><TotalPI>2.75</TotalPI></note>
      <note default-x="129.26" default-y="25.00">
        <pitch>
          <step>D</step>
          <octave>6</octave>
          <alter>0</alter></pitch>
        <duration>6</duration>
        <voice>1</voice>
        <type>quarter</type>
        <dot />
        <stem>down</stem>
        <staff>1</staff>
        <rest /><rhythm>1.5</rhythm><MIDI>86</MIDI><TotalPI>3.0</TotalPI></note>
      <note default-x="206.72" default-y="15.00">
        <pitch>
          <step>A</step>
          <alter>1</alter>
          <octave>5</octave>
          </pitch>
        <duration>2</duration>
        <voice>1</voice>
        <type>eighth</type>
        <stem>down</stem>
        <staff>1</staff>
        <rest /><rhythm>0.5</rhythm><MIDI>82</MIDI><TotalPI>4.5</TotalPI></note>
      <backup>
        <duration>16</duration>
        </backup>
      <note default-x="12.00" default-y="-145.00">
        <pitch>
          <step>G</step>
          <octave>2</octave>
          <alter>0</alter></pitch>
        <duration>2</duration>
        <voice>5</voice>
        <type>eighth</type>
        <stem>up</stem>
        <staff>2</staff>
        <beam number="1">begin</beam>
        <rhythm>0.5</rhythm><MIDI>43</MIDI><TotalPI>1</TotalPI></note>
      <note default-x="37.82" default-y="-125.00">
        <pitch>
          <step>D</step>
          <octave>3</octave>
          <alter>0</alter></pitch>
        <duration>2</duration>
        <voice>5</voice>
        <type>eighth</type>
        <stem>up</stem>
        <staff>2</staff>
        <beam number="1">continue</beam>
        <rhythm>0.5</rhythm><MIDI>50</MIDI><TotalPI>1.5</TotalPI></note>
      <note default-x="63.64" default-y="-160.00">
        <pitch>
          <step>D</step>
          <octave>2</octave>
          <alter>0</alter></pitch>
        <duration>2</duration>
        <voice>5</voice>
        <type>eighth</type>
        <stem>up</stem>
        <staff>2</staff>
        <beam number="1">continue</beam>
        <rhythm>0.5</rhythm><MIDI>38</MIDI><TotalPI>2.0</TotalPI></note>
      <note default-x="89.46" default-y="-125.00">
        <pitch>
          <step>D</step>
          <octave>3</octave>
          <alter>0</alter></pitch>
        <duration>2</duration>
        <voice>5</voice>
        <type>eighth</type>
        <stem>up</stem>
        <staff>2</staff>
        <beam number="1">end</beam>
        <rhythm>0.5</rhythm><MIDI>50</MIDI><TotalPI>2.5</TotalPI></note>
      <note default-x="129.26" default-y="-145.00">
        <pitch>
          <step>G</step>
          <octave>2</octave>
          <alter>0</alter></pitch>
        <duration>2</duration>
        <voice>5</voice>
        <type>eighth</type>
        <stem>up</stem>
        <staff>2</staff>
        <beam number="1">begin</beam>
        <rhythm>0.5</rhythm><MIDI>43</MIDI><TotalPI>3.0</TotalPI></note>
      <note default-x="155.08" default-y="-125.00">
        <pitch>
          <step>D</step>
          <octave>3</octave>
          <alter>0</alter></pitch>
        <duration>2</duration>
        <voice>5</voice>
        <type>eighth</type>
        <stem>up</stem>
        <staff>2</staff>
        <beam number="1">continue</beam>
        <rhythm>0.5</rhythm><MIDI>50</MIDI><TotalPI>3.5</TotalPI></note>
      <note default-x="180.90" default-y="-160.00">
        <pitch>
          <step>D</step>
          <octave>2</octave>
          <alter>0</alter></pitch>
        <duration>2</duration>
        <voice>5</voice>
        <type>eighth</type>
        <stem>up</stem>
        <staff>2</staff>
        <beam number="1">continue</beam>
        <rhythm>0.5</rhythm><MIDI>38</MIDI><TotalPI>4.0</TotalPI></note>
      <note default-x="206.72" default-y="-125.00">
        <pitch>
          <step>D</step>
          <octave>3</octave>
          <alter>0</alter></pitch>
        <duration>2</duration>
        <voice>5</voice>
        <type>eighth</type>
        <stem>up</stem>
        <staff>2</staff>
        <beam number="1">end</beam>
        <rhythm>0.5</rhythm><MIDI>50</MIDI><TotalPI>4.5</TotalPI></note>
      </measure>
    <measure number="6" width="252.50">
      <note default-x="12.00" default-y="10.00">
        <pitch>
          <step>A</step>
          <octave>5</octave>
          <alter>0</alter></pitch>
        <duration>6</duration>
        <voice>1</voice>
        <type>quarter</type>
        <dot />
        <stem>down</stem>
        <staff>1</staff>
        <rest /><rhythm>1.5</rhythm><MIDI>81</MIDI><TotalPI>1</TotalPI></note>
      <note default-x="93.95" default-y="15.00">
        <pitch>
          <step>A</step>
          <alter>1</alter>
          <octave>5</octave>
          </pitch>
        <duration>1</duration>
        <voice>1</voice>
        <type>16th</type>
        <stem>down</stem>
        <staff>1</staff>
        <rest /><rhythm>0.25</rhythm><MIDI>82</MIDI><TotalPI>2.5</TotalPI></note>
      <note default-x="117.61" default-y="20.00">
        <pitch>
          <step>C</step>
          <octave>6</octave>
          <alter>0</alter></pitch>
        <duration>1</duration>
        <voice>1</voice>
        <type>16th</type>
        <stem>down</stem>
        <staff>1</staff>
        <rest /><rhythm>0.25</rhythm><MIDI>84</MIDI><TotalPI>2.75</TotalPI></note>
      <note default-x="141.28" default-y="15.00">
        <pitch>
          <step>A</step>
          <alter>1</alter>
          <octave>5</octave>
          </pitch>
        <duration>8</duration>
        <voice>1</voice>
        <type>half</type>
        <stem>down</stem>
        <staff>1</staff>
        <rest /><rhythm>2.0</rhythm><MIDI>82</MIDI><TotalPI>3.0</TotalPI></note>
      <backup>
        <duration>16</duration>
        </backup>
      <note default-x="12.00" default-y="-145.00">
        <pitch>
          <step>G</step>
          <octave>2</octave>
          <alter>0</alter></pitch>
        <duration>2</duration>
        <voice>5</voice>
        <type>eighth</type>
        <stem>up</stem>
        <staff>2</staff>
        <beam number="1">begin</beam>
        <rhythm>0.5</rhythm><MIDI>43</MIDI><TotalPI>1</TotalPI></note>
      <note default-x="39.32" default-y="-120.00">
        <pitch>
          <step>D</step>
          <alter>1</alter>
          <octave>3</octave>
          </pitch>
        <duration>2</duration>
        <voice>5</voice>
        <type>eighth</type>
        <stem>up</stem>
        <staff>2</staff>
        <beam number="1">continue</beam>
        <rhythm>0.5</rhythm><MIDI>51</MIDI><TotalPI>1.5</TotalPI></note>
      <note default-x="66.63" default-y="-165.00">
        <pitch>
          <step>C</step>
          <octave>2</octave>
          <alter>0</alter></pitch>
        <duration>2</duration>
        <voice>5</voice>
        <type>eighth</type>
        <stem>up</stem>
        <staff>2</staff>
        <beam number="1">continue</beam>
        <rhythm>0.5</rhythm><MIDI>36</MIDI><TotalPI>2.0</TotalPI></note>
      <note default-x="93.95" default-y="-120.00">
        <pitch>
          <step>D</step>
          <alter>1</alter>
          <octave>3</octave>
          </pitch>
        <duration>2</duration>
        <voice>5</voice>
        <type>eighth</type>
        <stem>up</stem>
        <staff>2</staff>
        <beam number="1">end</beam>
        <rhythm>0.5</rhythm><MIDI>51</MIDI><TotalPI>2.5</TotalPI></note>
      <note default-x="141.64" default-y="-145.00">
        <pitch>
          <step>G</step>
          <octave>2</octave>
          <alter>0</alter></pitch>
        <duration>2</duration>
        <voice>5</voice>
        <type>eighth</type>
        <stem>up</stem>
        <staff>2</staff>
        <beam number="1">begin</beam>
        <rhythm>0.5</rhythm><MIDI>43</MIDI><TotalPI>3.0</TotalPI></note>
      <note default-x="168.96" default-y="-110.00">
        <pitch>
          <step>G</step>
          <octave>3</octave>
          <alter>0</alter></pitch>
        <duration>2</duration>
        <voice>5</voice>
        <type>eighth</type>
        <stem>up</stem>
        <staff>2</staff>
        <beam number="1">continue</beam>
        <rhythm>0.5</rhythm><MIDI>55</MIDI><TotalPI>3.5</TotalPI></note>
      <note default-x="196.27" default-y="-180.00">
        <pitch>
          <step>G</step>
          <octave>1</octave>
          <alter>0</alter></pitch>
        <duration>2</duration>
        <voice>5</voice>
        <type>eighth</type>
        <stem>up</stem>
        <staff>2</staff>
        <beam number="1">continue</beam>
        <rhythm>0.5</rhythm><MIDI>31</MIDI><TotalPI>4.0</TotalPI></note>
      <note default-x="223.59" default-y="-110.00">
        <pitch>
          <step>G</step>
          <octave>3</octave>
          <alter>0</alter></pitch>
        <duration>2</duration>
        <voice>5</voice>
        <type>eighth</type>
        <stem>up</stem>
        <staff>2</staff>
        <beam number="1">end</beam>
        <rhythm>0.5</rhythm><MIDI>55</MIDI><TotalPI>4.5</TotalPI></note>
      </measure>
    <measure number="7" width="845.61">
      <print new-system="yes">
        <system-layout>
          <system-margins>
            <left-margin>21.00</left-margin>
            <right-margin>-0.00</right-margin>
            </system-margins>
          <system-distance>150.00</system-distance>
          </system-layout>
        <staff-layout number="2">
          <staff-distance>65.00</staff-distance>
          </staff-layout>
        </print>
      <note default-x="75.36" default-y="30.00">
        <pitch>
          <step>D</step>
          <alter>1</alter>
          <octave>6</octave>
          </pitch>
        <duration>1</duration>
        <voice>1</voice>
        <type>16th</type>
        <stem>down</stem>
        <staff>1</staff>
        <beam number="1">begin</beam>
        <beam number="2">begin</beam>
        <rest /><rhythm>0.25</rhythm><MIDI>87</MIDI><TotalPI>1</TotalPI></note>
      <note default-x="123.40" default-y="35.00">
        <pitch>
          <step>F</step>
          <octave>6</octave>
          <alter>0</alter></pitch>
        <duration>1</duration>
        <voice>1</voice>
        <type>16th</type>
        <stem>down</stem>
        <staff>1</staff>
        <beam number="1">continue</beam>
        <beam number="2">continue</beam>
        <rest /><rhythm>0.25</rhythm><MIDI>89</MIDI><TotalPI>1.25</TotalPI></note>
      <note default-x="171.44" default-y="40.00">
        <pitch>
          <step>G</step>
          <octave>6</octave>
          <alter>0</alter></pitch>
        <duration>1</duration>
        <voice>1</voice>
        <type>16th</type>
        <stem>down</stem>
        <staff>1</staff>
        <beam number="1">continue</beam>
        <beam number="2">continue</beam>
        <rest /><rhythm>0.25</rhythm><MIDI>91</MIDI><TotalPI>1.5</TotalPI></note>
      <note default-x="219.48" default-y="30.00">
        <pitch>
          <step>D</step>
          <alter>1</alter>
          <octave>6</octave>
          </pitch>
        <duration>1</duration>
        <voice>1</voice>
        <type>16th</type>
        <stem>down</stem>
        <staff>1</staff>
        <beam number="1">end</beam>
        <beam number="2">end</beam>
        <rest /><rhythm>0.25</rhythm><MIDI>87</MIDI><TotalPI>1.75</TotalPI></note>
      <note default-x="267.52" default-y="25.00">
        <pitch>
          <step>D</step>
          <octave>6</octave>
          <alter>0</alter></pitch>
        <duration>1</duration>
        <voice>1</voice>
        <type>16th</type>
        <stem>down</stem>
        <staff>1</staff>
        <beam number="1">begin</beam>
        <beam number="2">begin</beam>
        <rest /><rhythm>0.25</rhythm><MIDI>86</MIDI><TotalPI>2.0</TotalPI></note>
      <note default-x="315.56" default-y="30.00">
        <pitch>
          <step>D</step>
          <alter>1</alter>
          <octave>6</octave>
          </pitch>
        <duration>1</duration>
        <voice>1</voice>
        <type>16th</type>
        <stem>down</stem>
        <staff>1</staff>
        <beam number="1">continue</beam>
        <beam number="2">continue</beam>
        <rest /><rhythm>0.25</rhythm><MIDI>87</MIDI><TotalPI>2.25</TotalPI></note>
      <note default-x="363.60" default-y="35.00">
        <pitch>
          <step>F</step>
          <octave>6</octave>
          <alter>0</alter></pitch>
        <duration>1</duration>
        <voice>1</voice>
        <type>16th</type>
        <stem>down</stem>
        <staff>1</staff>
        <beam number="1">continue</beam>
        <beam number="2">continue</beam>
        <rest /><rhythm>0.25</rhythm><MIDI>89</MIDI><TotalPI>2.5</TotalPI></note>
      <note default-x="411.64" default-y="25.00">
        <pitch>
          <step>D</step>
          <octave>6</octave>
          <alter>0</alter></pitch>
        <duration>1</duration>
        <voice>1</voice>
        <type>16th</type>
        <stem>down</stem>
        <staff>1</staff>
        <beam number="1">end</beam>
        <beam number="2">end</beam>
        <rest /><rhythm>0.25</rhythm><MIDI>86</MIDI><TotalPI>2.75</TotalPI></note>
      <note default-x="459.69" default-y="20.00">
        <pitch>
          <step>C</step>
          <octave>6</octave>
          <alter>0</alter></pitch>
        <duration>1</duration>
        <voice>1</voice>
        <type>16th</type>
        <stem>down</stem>
        <staff>1</staff>
        <beam number="1">begin</beam>
        <beam number="2">begin</beam>
        <rest /><rhythm>0.25</rhythm><MIDI>84</MIDI><TotalPI>3.0</TotalPI></note>
      <note default-x="507.73" default-y="25.00">
        <pitch>
          <step>D</step>
          <octave>6</octave>
          <alter>0</alter></pitch>
        <duration>1</duration>
        <voice>1</voice>
        <type>16th</type>
        <stem>down</stem>
        <staff>1</staff>
        <beam number="1">continue</beam>
        <beam number="2">continue</beam>
        <rest /><rhythm>0.25</rhythm><MIDI>86</MIDI><TotalPI>3.25</TotalPI></note>
      <note default-x="555.77" default-y="30.00">
        <pitch>
          <step>D</step>
          <alter>1</alter>
          <octave>6</octave>
          </pitch>
        <duration>1</duration>
        <voice>1</voice>
        <type>16th</type>
        <stem>down</stem>
        <staff>1</staff>
        <beam number="1">continue</beam>
        <beam number="2">continue</beam>
        <rest /><rhythm>0.25</rhythm><MIDI>87</MIDI><TotalPI>3.5</TotalPI></note>
      <note default-x="603.81" default-y="20.00">
        <pitch>
          <step>C</step>
          <octave>6</octave>
          <alter>0</alter></pitch>
        <duration>1</duration>
        <voice>1</voice>
        <type>16th</type>
        <stem>down</stem>
        <staff>1</staff>
        <beam number="1">end</beam>
        <beam number="2">end</beam>
        <rest /><rhythm>0.25</rhythm><MIDI>84</MIDI><TotalPI>3.75</TotalPI></note>
      <note default-x="651.85" default-y="15.00">
        <pitch>
          <step>A</step>
          <alter>1</alter>
          <octave>5</octave>
          </pitch>
        <duration>1</duration>
        <voice>1</voice>
        <type>16th</type>
        <stem>down</stem>
        <staff>1</staff>
        <beam number="1">begin</beam>
        <beam number="2">begin</beam>
        <rest /><rhythm>0.25</rhythm><MIDI>82</MIDI><TotalPI>4.0</TotalPI></note>
      <note default-x="699.89" default-y="20.00">
        <pitch>
          <step>C</step>
          <octave>6</octave>
          <alter>0</alter></pitch>
        <duration>1</duration>
        <voice>1</voice>
        <type>16th</type>
        <stem>down</stem>
        <staff>1</staff>
        <beam number="1">continue</beam>
        <beam number="2">continue</beam>
        <rest /><rhythm>0.25</rhythm><MIDI>84</MIDI><TotalPI>4.25</TotalPI></note>
      <note default-x="747.93" default-y="25.00">
        <pitch>
          <step>D</step>
          <octave>6</octave>
          <alter>0</alter></pitch>
        <duration>1</duration>
        <voice>1</voice>
        <type>16th</type>
        <stem>down</stem>
        <staff>1</staff>
        <beam number="1">continue</beam>
        <beam number="2">continue</beam>
        <rest /><rhythm>0.25</rhythm><MIDI>86</MIDI><TotalPI>4.5</TotalPI></note>
      <note default-x="795.97" default-y="15.00">
        <pitch>
          <step>A</step>
          <alter>1</alter>
          <octave>5</octave>
          </pitch>
        <duration>1</duration>
        <voice>1</voice>
        <type>16th</type>
        <stem>down</stem>
        <staff>1</staff>
        <beam number="1">end</beam>
        <beam number="2">end</beam>
        <rest /><rhythm>0.25</rhythm><MIDI>82</MIDI><TotalPI>4.75</TotalPI></note>
      <backup>
        <duration>16</duration>
        </backup>
      <note default-x="75.36" default-y="-110.00">
        <pitch>
          <step>G</step>
          <octave>3</octave>
          <alter>0</alter></pitch>
        <duration>2</duration>
        <voice>5</voice>
        <type>eighth</type>
        <stem>down</stem>
        <staff>2</staff>
        <beam number="1">begin</beam>
        <rhythm>0.5</rhythm><MIDI>55</MIDI><TotalPI>1</TotalPI></note>
      <note default-x="171.44" default-y="-100.00">
        <pitch>
          <step>A</step>
          <alter>1</alter>
          <octave>3</octave>
          </pitch>
        <duration>2</duration>
        <voice>5</voice>
        <type>eighth</type>
        <stem>down</stem>
        <staff>2</staff>
        <beam number="1">continue</beam>
        <rhythm>0.5</rhythm><MIDI>58</MIDI><TotalPI>1.5</TotalPI></note>
      <note default-x="267.52" default-y="-115.00">
        <pitch>
          <step>F</step>
          <octave>3</octave>
          <alter>0</alter></pitch>
        <duration>2</duration>
        <voice>5</voice>
        <type>eighth</type>
        <stem>down</stem>
        <staff>2</staff>
        <beam number="1">continue</beam>
        <rhythm>0.5</rhythm><MIDI>53</MIDI><TotalPI>2.0</TotalPI></note>
      <note default-x="363.60" default-y="-105.00">
        <pitch>
          <step>A</step>
          <octave>3</octave>
          <alter>0</alter></pitch>
        <duration>2</duration>
        <voice>5</voice>
        <type>eighth</type>
        <stem>down</stem>
        <staff>2</staff>
        <beam number="1">end</beam>
        <rhythm>0.5</rhythm><MIDI>57</MIDI><TotalPI>2.5</TotalPI></note>
      <note default-x="459.69" default-y="-120.00">
        <pitch>
          <step>D</step>
          <alter>1</alter>
          <octave>3</octave>
          </pitch>
        <duration>2</duration>
        <voice>5</voice>
        <type>eighth</type>
        <stem>down</stem>
        <staff>2</staff>
        <beam number="1">begin</beam>
        <rhythm>0.5</rhythm><MIDI>51</MIDI><TotalPI>3.0</TotalPI></note>
      <note default-x="555.77" default-y="-95.00">
        <pitch>
          <step>C</step>
          <octave>4</octave>
          <alter>0</alter></pitch>
        <duration>2</duration>
        <voice>5</voice>
        <type>eighth</type>
        <stem>down</stem>
        <staff>2</staff>
        <beam number="1">continue</beam>
        <rhythm>0.5</rhythm><MIDI>60</MIDI><TotalPI>3.5</TotalPI></note>
      <note default-x="651.85" default-y="-125.00">
        <pitch>
          <step>D</step>
          <octave>3</octave>
          <alter>0</alter></pitch>
        <duration>2</duration>
        <voice>5</voice>
        <type>eighth</type>
        <stem>down</stem>
        <staff>2</staff>
        <beam number="1">continue</beam>
        <rhythm>0.5</rhythm><MIDI>50</MIDI><TotalPI>4.0</TotalPI></note>
      <note default-x="747.93" default-y="-90.00">
        <pitch>
          <step>D</step>
          <octave>4</octave>
          <alter>0</alter></pitch>
        <duration>2</duration>
        <voice>5</voice>
        <type>eighth</type>
        <stem>down</stem>
        <staff>2</staff>
        <beam number="1">end</beam>
        <rhythm>0.5</rhythm><MIDI>62</MIDI><TotalPI>4.5</TotalPI></note>
      </measure>
    <measure number="8" width="845.61">
      <print new-system="yes">
        <system-layout>
          <system-margins>
            <left-margin>21.00</left-margin>
            <right-margin>-0.00</right-margin>
            </system-margins>
          <system-distance>150.00</system-distance>
          </system-layout>
        <staff-layout number="2">
          <staff-distance>65.00</staff-distance>
          </staff-layout>
        </print>
      <note default-x="75.36" default-y="20.00">
        <pitch>
          <step>C</step>
          <octave>6</octave>
          <alter>0</alter></pitch>
        <duration>1</duration>
        <voice>1</voice>
        <type>16th</type>
        <stem>down</stem>
        <staff>1</staff>
        <beam number="1">begin</beam>
        <beam number="2">begin</beam>
        <rest /><rhythm>0.25</rhythm><MIDI>84</MIDI><TotalPI>1</TotalPI></note>
      <note default-x="129.62" default-y="15.00">
        <pitch>
          <step>A</step>
          <alter>1</alter>
          <octave>5</octave>
          </pitch>
        <duration>1</duration>
        <voice>1</voice>
        <type>16th</type>
        <stem>down</stem>
        <staff>1</staff>
        <beam number="1">continue</beam>
        <beam number="2">continue</beam>
        <rest /><rhythm>0.25</rhythm><MIDI>82</MIDI><TotalPI>1.25</TotalPI></note>
      <note default-x="183.88" default-y="15.00">
        <pitch>
          <step>A</step>
          <alter>1</alter>
          <octave>5</octave>
          </pitch>
        <duration>1</duration>
        <voice>1</voice>
        <type>16th</type>
        <stem>down</stem>
        <staff>1</staff>
        <beam number="1">continue</beam>
        <beam number="2">continue</beam>
        <rest /><rhythm>0.25</rhythm><MIDI>82</MIDI><TotalPI>1.5</TotalPI></note>
      <note default-x="238.14" default-y="10.00">
        <pitch>
          <step>A</step>
          <octave>5</octave>
          <alter>0</alter></pitch>
        <duration>1</duration>
        <voice>1</voice>
        <type>16th</type>
        <stem>down</stem>
        <staff>1</staff>
        <beam number="1">end</beam>
        <beam number="2">end</beam>
        <rest /><rhythm>0.25</rhythm><MIDI>81</MIDI><TotalPI>1.75</TotalPI></note>
      <note default-x="292.40" default-y="10.00">
        <pitch>
          <step>A</step>
          <octave>5</octave>
          <alter>0</alter></pitch>
        <duration>3</duration>
        <voice>1</voice>
        <type>eighth</type>
        <dot />
        <stem>down</stem>
        <staff>1</staff>
        <beam number="1">begin</beam>
        <rest /><rhythm>0.75</rhythm><MIDI>81</MIDI><TotalPI>2.0</TotalPI></note>
      <note default-x="433.48" default-y="25.00">
        <pitch>
          <step>D</step>
          <octave>6</octave>
          <alter>0</alter></pitch>
        <duration>1</duration>
        <voice>1</voice>
        <type>16th</type>
        <stem>down</stem>
        <staff>1</staff>
        <beam number="1">end</beam>
        <beam number="2">backward hook</beam>
        <rest /><rhythm>0.25</rhythm><MIDI>86</MIDI><TotalPI>2.75</TotalPI></note>
      <note default-x="487.74" default-y="5.00">
        <pitch>
          <step>G</step>
          <octave>5</octave>
          <alter>0</alter></pitch>
        <duration>4</duration>
        <voice>1</voice>
        <type>quarter</type>
        <stem>down</stem>
        <staff>1</staff>
        <rest /><rhythm>1.0</rhythm><MIDI>79</MIDI><TotalPI>3.0</TotalPI></note>
      <note default-x="661.38" default-y="5.00">
        <pitch>
          <step>G</step>
          <octave>5</octave>
          <alter>0</alter></pitch>
        <duration>2</duration>
        <voice>1</voice>
        <type>eighth</type>
        <stem>down</stem>
        <staff>1</staff>
        <rest /><rhythm>0.5</rhythm><MIDI>79</MIDI><TotalPI>4.0</TotalPI></note>
      <note>
        <rest />
        <duration>2</duration>
        <voice>1</voice>
        <type>eighth</type>
        <staff>1</staff>
        <rhythm>0.5</rhythm><TotalPI>4.5</TotalPI></note>
      <backup>
        <duration>16</duration>
        </backup>
      <note default-x="75.36" default-y="-160.00">
        <pitch>
          <step>D</step>
          <octave>2</octave>
          <alter>0</alter></pitch>
        <duration>2</duration>
        <voice>5</voice>
        <type>eighth</type>
        <stem>down</stem>
        <staff>2</staff>
        <beam number="1">begin</beam>
        <rhythm>0.5</rhythm><MIDI>38</MIDI><TotalPI>1</TotalPI></note>
      <note default-x="183.88" default-y="-105.00">
        <pitch>
          <step>A</step>
          <octave>3</octave>
          <alter>0</alter></pitch>
        <duration>2</duration>
        <voice>5</voice>
        <type>eighth</type>
        <stem>down</stem>
        <staff>2</staff>
        <beam number="1">continue</beam>
        <rhythm>0.5</rhythm><MIDI>57</MIDI><TotalPI>1.5</TotalPI></note>
      <note default-x="292.40" default-y="-125.00">
        <pitch>
          <step>D</step>
          <octave>3</octave>
          <alter>0</alter></pitch>
        <duration>2</duration>
        <voice>5</voice>
        <type>eighth</type>
        <stem>down</stem>
        <staff>2</staff>
        <beam number="1">continue</beam>
        <rhythm>0.5</rhythm><MIDI>50</MIDI><TotalPI>2.0</TotalPI></note>
      <note default-x="379.22" default-y="-105.00">
        <pitch>
          <step>A</step>
          <octave>3</octave>
          <alter>0</alter></pitch>
        <duration>2</duration>
        <voice>5</voice>
        <type>eighth</type>
        <stem>down</stem>
        <staff>2</staff>
        <beam number="1">end</beam>
        <rhythm>0.5</rhythm><MIDI>57</MIDI><TotalPI>2.5</TotalPI></note>
      <note default-x="487.74" default-y="-145.00">
        <pitch>
          <step>G</step>
          <octave>2</octave>
          <alter>0</alter></pitch>
        <duration>2</duration>
        <voice>5</voice>
        <type>eighth</type>
        <stem>up</stem>
        <staff>2</staff>
        <beam number="1">begin</beam>
        <rhythm>0.5</rhythm><MIDI>43</MIDI><TotalPI>3.0</TotalPI></note>
      <note default-x="574.56" default-y="-110.00">
        <pitch>
          <step>G</step>
          <octave>3</octave>
          <alter>0</alter></pitch>
        <duration>2</duration>
        <voice>5</voice>
        <type>eighth</type>
        <stem>up</stem>
        <staff>2</staff>
        <beam number="1">continue</beam>
        <rhythm>0.5</rhythm><MIDI>55</MIDI><TotalPI>3.5</TotalPI></note>
      <note default-x="661.38" default-y="-180.00">
        <pitch>
          <step>G</step>
          <octave>1</octave>
          <alter>0</alter></pitch>
        <duration>2</duration>
        <voice>5</voice>
        <type>eighth</type>
        <stem>up</stem>
        <staff>2</staff>
        <beam number="1">end</beam>
        <rhythm>0.5</rhythm><MIDI>31</MIDI><TotalPI>4.0</TotalPI></note>
      <note>
        <rest />
        <duration>2</duration>
        <voice>5</voice>
        <type>eighth</type>
        <staff>2</staff>
        <rhythm>0.5</rhythm><TotalPI>4.5</TotalPI></note>
      <barline location="right">
        <bar-style>light-heavy</bar-style>
        </barline>
      </measure>
    </part>
  </score-partwise>