<?xml version="1.0" encoding="UTF-8" standalone="no"?>
<svg width="595.44px" height="841.681px" viewBox="0 0 595.44 841.681"
 xmlns="http://www.w3.org/2000/svg" xmlns:xlink="http://www.w3.org/1999/xlink" version="1.2" baseProfile="tiny">
<title>two-hand-2</title>
<desc>Generated by MuseScore 2.0.3</desc>
<polyline class="StaffLines" fill="none" stroke="#000000" stroke-width="0.40" stroke-linejoin="bevel" points="38.8465,113.347 567.094,113.347"/>
<polyline class="StaffLines" fill="none" stroke="#000000" stroke-width="0.40" stroke-linejoin="bevel" points="38.8465,118.347 567.094,118.347"/>
<polyline class="StaffLines" fill="none" stroke="#000000" stroke-width="0.40" stroke-linejoin="bevel" points="38.8465,123.347 567.094,123.347"/>
<polyline class="StaffLines" fill="none" stroke="#000000" stroke-width="0.40" stroke-linejoin="bevel" points="38.8465,128.347 567.094,128.347"/>
<polyline class="StaffLines" fill="none" stroke="#000000" stroke-width="0.40" stroke-linejoin="bevel" points="38.8465,133.347 567.094,133.347"/>
<polyline class="StaffLines" fill="none" stroke="#000000" stroke-width="0.40" stroke-linejoin="bevel" points="38.8465,165.847 567.094,165.847"/>
<polyline class="StaffLines" fill="none" stroke="#000000" stroke-width="0.40" stroke-linejoin="bevel" points="38.8465,170.847 567.094,170.847"/>
<polyline class="StaffLines" fill="none" stroke="#000000" stroke-width="0.40" stroke-linejoin="bevel" points="38.8465,175.847 567.094,175.847"/>
<polyline class="StaffLines" fill="none" stroke="#000000" stroke-width="0.40" stroke-linejoin="bevel" points="38.8465,180.847 567.094,180.847"/>
<polyline class="StaffLines" fill="none" stroke="#000000" stroke-width="0.40" stroke-linejoin="bevel" points="38.8465,185.847 567.094,185.847"/>
<polyline class="StaffLines" fill="none" stroke="#000000" stroke-width="0.40" stroke-linejoin="bevel" points="38.8465,260.847 175.529,260.847"/>
<polyline class="StaffLines" fill="none" stroke="#000000" stroke-width="0.40" stroke-linejoin="bevel" points="38.8465,265.847 175.529,265.847"/>
<polyline class="StaffLines" fill="none" stroke="#000000" stroke-width="0.40" stroke-linejoin="bevel" points="38.8465,270.847 175.529,270.847"/>
<polyline class="StaffLines" fill="none" stroke="#000000" stroke-width="0.40" stroke-linejoin="bevel" points="38.8465,275.847 175.529,275.847"/>
<polyline class="StaffLines" fill="none" stroke="#000000" stroke-width="0.40" stroke-linejoin="bevel" points="38.8465,280.847 175.529,280.847"/>
<polyline class="StaffLines" fill="none" stroke="#000000" stroke-width="0.40" stroke-linejoin="bevel" points="38.8465,313.347 175.529,313.347"/>
<polyline class="StaffLines" fill="none" stroke="#000000" stroke-width="0.40" stroke-linejoin="bevel" points="38.8465,318.347 175.529,318.347"/>
<polyline class="StaffLines" fill="none" stroke="#000000" stroke-width="0.40" stroke-linejoin="bevel" points="38.8465,323.347 175.529,323.347"/>
<polyline class="StaffLines" fill="none" stroke="#000000" stroke-width="0.40" stroke-linejoin="bevel" points="38.8465,328.347 175.529,328.347"/>
<polyline class="StaffLines" fill="none" stroke="#000000" stroke-width="0.40" stroke-linejoin="bevel" points="38.8465,333.347 175.529,333.347"/>
<path class="Text" d="M39.7025,247.701 C39.7025,247.418 39.6398,247.168 39.5145,246.949 C39.3891,246.73 39.2371,246.561 39.0585,246.441 C38.8798,246.321 38.6798,246.222 38.4585,246.145 C38.2371,246.068 38.0451,246.017 37.8825,245.993 C37.7198,245.969 37.5771,245.957 37.4545,245.957 C37.3905,245.957 37.3585,245.936 37.3585,245.893 C37.3585,245.877 37.3611,245.864 37.3665,245.853 L38.2385,243.957 L39.9105,243.957 C39.9958,243.957 40.0638,243.944 40.1145,243.917 C40.1651,243.89 40.2198,243.834 40.2785,243.749 L40.3505,243.805 L40.0465,244.517 C40.0251,244.565 39.9638,244.589 39.8625,244.589 L38.2945,244.589 L37.9585,245.269 C38.7371,245.408 39.3158,245.633 39.6945,245.945 C40.0731,246.257 40.2625,246.714 40.2625,247.317 C40.2625,247.632 40.2131,247.912 40.1145,248.157 C40.0158,248.402 39.8905,248.6 39.7385,248.749 C39.5865,248.898 39.4105,249.021 39.2105,249.117 C39.0105,249.213 38.8185,249.278 38.6345,249.313 C38.4505,249.348 38.2651,249.365 38.0785,249.365 C37.7798,249.365 37.5425,249.321 37.3665,249.233 C37.1905,249.145 37.1025,249.024 37.1025,248.869 C37.1025,248.672 37.2171,248.573 37.4465,248.573 C37.5958,248.573 37.7891,248.656 38.0265,248.821 C38.2638,248.986 38.4518,249.069 38.5905,249.069 C38.9051,249.069 39.1691,248.937 39.3825,248.673 C39.5958,248.409 39.7025,248.085 39.7025,247.701"/>
<polyline class="BarLine" fill="none" stroke="#000000" stroke-width="0.80" stroke-linejoin="bevel" points="39.2465,260.847 39.2465,333.347"/>
<polyline class="BarLine" fill="none" stroke="#000000" stroke-width="0.80" stroke-linejoin="bevel" points="39.2465,113.347 39.2465,185.847"/>
<polyline class="BarLine" fill="none" stroke="#000000" stroke-width="0.80" stroke-linejoin="bevel" points="170.629,260.847 170.629,333.347"/>
<polyline class="BarLine" fill="none" stroke="#000000" stroke-width="2.50" stroke-linejoin="bevel" points="174.279,260.847 174.279,333.347"/>
<polyline class="BarLine" fill="none" stroke="#000000" stroke-width="0.80" stroke-linejoin="bevel" points="566.694,113.347 566.694,185.847"/>
<polyline class="BarLine" fill="none" stroke="#000000" stroke-width="0.80" stroke-linejoin="bevel" points="449.874,113.347 449.874,185.847"/>
<polyline class="BarLine" fill="none" stroke="#000000" stroke-width="0.80" stroke-linejoin="bevel" points="348.251,113.347 348.251,185.847"/>
<polyline class="BarLine" fill="none" stroke="#000000" stroke-width="0.80" stroke-linejoin="bevel" points="213.963,113.347 213.963,185.847"/>
<polyline class="Stem" fill="none" stroke="#000000" stroke-width="0.65" stroke-linecap="round" stroke-linejoin="bevel" points="108.662,314.131 108.662,335.222"/>
<polyline class="Stem" fill="none" stroke="#000000" stroke-width="0.65" stroke-linecap="round" stroke-linejoin="bevel" points="77.9863,321.786 77.9863,337.097"/>
<polyline class="Stem" fill="none" stroke="#000000" stroke-width="0.65" stroke-linecap="round" stroke-linejoin="bevel" points="84.0996,280.079 84.0996,263.347"/>
<polyline class="Stem" fill="none" stroke="#000000" stroke-width="0.65" stroke-linecap="round" stroke-linejoin="bevel" points="546.972,124.286 546.972,138.347"/>
<polyline class="Stem" fill="none" stroke="#000000" stroke-width="0.65" stroke-linecap="round" stroke-linejoin="bevel" points="527.326,126.786 527.326,139.597"/>
<polyline class="Stem" fill="none" stroke="#000000" stroke-width="0.65" stroke-linecap="round" stroke-linejoin="bevel" points="507.68,124.286 507.68,138.347"/>
<polyline class="Stem" fill="none" stroke="#000000" stroke-width="0.65" stroke-linecap="round" stroke-linejoin="bevel" points="488.033,174.286 488.033,189.597"/>
<polyline class="Stem" fill="none" stroke="#000000" stroke-width="0.65" stroke-linecap="round" stroke-linejoin="bevel" points="488.033,126.786 488.033,139.597"/>
<polyline class="Stem" fill="none" stroke="#000000" stroke-width="0.65" stroke-linecap="round" stroke-linejoin="bevel" points="456.599,174.286 456.599,189.597"/>
<polyline class="Stem" fill="none" stroke="#000000" stroke-width="0.65" stroke-linecap="round" stroke-linejoin="bevel" points="456.599,116.786 456.599,133.347"/>
<polyline class="Stem" fill="none" stroke="#000000" stroke-width="0.65" stroke-linecap="round" stroke-linejoin="bevel" points="418.191,119.286 418.191,135.222"/>
<polyline class="Stem" fill="none" stroke="#000000" stroke-width="0.65" stroke-linecap="round" stroke-linejoin="bevel" points="386.583,176.786 386.583,195.222"/>
<polyline class="Stem" fill="none" stroke="#000000" stroke-width="0.65" stroke-linecap="round" stroke-linejoin="bevel" points="386.583,124.286 386.583,138.972"/>
<polyline class="Stem" fill="none" stroke="#000000" stroke-width="0.65" stroke-linecap="round" stroke-linejoin="bevel" points="354.976,174.286 354.976,189.597"/>
<polyline class="Stem" fill="none" stroke="#000000" stroke-width="0.65" stroke-linecap="round" stroke-linejoin="bevel" points="354.976,114.286 354.976,146.472"/>
<polyline class="Stem" fill="none" stroke="#000000" stroke-width="0.65" stroke-linecap="round" stroke-linejoin="bevel" points="337.708,179.907 337.708,163.347"/>
<polyline class="Stem" fill="none" stroke="#000000" stroke-width="0.65" stroke-linecap="round" stroke-linejoin="bevel" points="323.823,179.907 323.823,163.347"/>
<polyline class="Stem" fill="none" stroke="#000000" stroke-width="0.65" stroke-linecap="round" stroke-linejoin="bevel" points="317.89,111.786 317.89,137.097"/>
<polyline class="Stem" fill="none" stroke="#000000" stroke-width="0.65" stroke-linecap="round" stroke-linejoin="bevel" points="295.672,174.286 295.672,200.847"/>
<polyline class="Stem" fill="none" stroke="#000000" stroke-width="0.65" stroke-linecap="round" stroke-linejoin="bevel" points="295.672,119.286 295.672,144.597"/>
<polyline class="Stem" fill="none" stroke="#000000" stroke-width="0.65" stroke-linecap="round" stroke-linejoin="bevel" points="265.123,176.786 265.123,191.472"/>
<polyline class="Stem" fill="none" stroke="#000000" stroke-width="0.65" stroke-linecap="round" stroke-linejoin="bevel" points="265.123,116.786 265.123,138.972"/>
<polyline class="Stem" fill="none" stroke="#000000" stroke-width="0.65" stroke-linecap="round" stroke-linejoin="bevel" points="242.906,126.786 242.906,152.097"/>
<polyline class="Stem" fill="none" stroke="#000000" stroke-width="0.65" stroke-linecap="round" stroke-linejoin="bevel" points="226.621,182.407 226.621,165.847"/>
<polyline class="Stem" fill="none" stroke="#000000" stroke-width="0.65" stroke-linecap="round" stroke-linejoin="bevel" points="220.688,116.786 220.688,145.847"/>
<polyline class="Stem" fill="none" stroke="#000000" stroke-width="0.65" stroke-linecap="round" stroke-linejoin="bevel" points="193.803,174.286 193.803,198.347"/>
<polyline class="Stem" fill="none" stroke="#000000" stroke-width="0.65" stroke-linecap="round" stroke-linejoin="bevel" points="193.803,119.286 193.803,142.097"/>
<polyline class="Stem" fill="none" stroke="#000000" stroke-width="0.65" stroke-linecap="round" stroke-linejoin="bevel" points="179.651,179.907 179.651,163.972"/>
<polyline class="Stem" fill="none" stroke="#000000" stroke-width="0.65" stroke-linecap="round" stroke-linejoin="bevel" points="173.718,129.286 173.718,148.347"/>
<polyline class="Stem" fill="none" stroke="#000000" stroke-width="0.65" stroke-linecap="round" stroke-linejoin="bevel" points="153.633,164.286 153.633,189.597"/>
<polyline class="Stem" fill="none" stroke="#000000" stroke-width="0.65" stroke-linecap="round" stroke-linejoin="bevel" points="153.633,111.786 153.633,142.097"/>
<polyline class="Stem" fill="none" stroke="#000000" stroke-width="0.65" stroke-linecap="round" stroke-linejoin="bevel" points="133.548,169.286 133.548,194.597"/>
<polyline class="Stem" fill="none" stroke="#000000" stroke-width="0.65" stroke-linecap="round" stroke-linejoin="bevel" points="133.548,129.286 133.548,148.347"/>
<polyline class="Stem" fill="none" stroke="#000000" stroke-width="0.65" stroke-linecap="round" stroke-linejoin="bevel" points="113.462,174.286 113.462,195.847"/>
<polyline class="Stem" fill="none" stroke="#000000" stroke-width="0.65" stroke-linecap="round" stroke-linejoin="bevel" points="88.3559,166.786 88.3559,197.097"/>
<polyline class="Stem" fill="none" stroke="#000000" stroke-width="0.65" stroke-linecap="round" stroke-linejoin="bevel" points="88.3559,114.286 88.3559,135.847"/>
<path class="Note" d="M114.645,312.038 C114.645,311.817 114.561,311.628 114.392,311.472 C114.222,311.302 114.027,311.218 113.806,311.218 C113.415,311.218 112.627,311.608 111.442,312.39 C110.218,313.184 109.47,313.75 109.196,314.089 C109.053,314.271 108.981,314.46 108.981,314.655 C108.981,314.877 109.066,315.065 109.235,315.222 C109.392,315.391 109.587,315.476 109.821,315.476 C110.199,315.476 110.993,315.085 112.204,314.304 C113.402,313.522 114.144,312.956 114.431,312.604 C114.574,312.435 114.645,312.246 114.645,312.038 M113.61,310.593 C114.73,310.593 115.29,311.075 115.29,312.038 C115.29,312.507 115.153,313.054 114.88,313.679 C114.606,314.291 114.242,314.759 113.786,315.085 C112.783,315.762 111.527,316.101 110.017,316.101 C108.897,316.101 108.337,315.619 108.337,314.655 C108.337,314.226 108.474,313.685 108.747,313.034 C109.007,312.409 109.372,311.934 109.841,311.608 C110.843,310.931 112.1,310.593 113.61,310.593"/>
<path class="Note" d="M114.645,317.038 C114.645,316.817 114.561,316.628 114.392,316.472 C114.222,316.302 114.027,316.218 113.806,316.218 C113.415,316.218 112.627,316.608 111.442,317.39 C110.218,318.184 109.47,318.75 109.196,319.089 C109.053,319.271 108.981,319.46 108.981,319.655 C108.981,319.877 109.066,320.065 109.235,320.222 C109.392,320.391 109.587,320.476 109.821,320.476 C110.199,320.476 110.993,320.085 112.204,319.304 C113.402,318.522 114.144,317.956 114.431,317.604 C114.574,317.435 114.645,317.246 114.645,317.038 M113.61,315.593 C114.73,315.593 115.29,316.075 115.29,317.038 C115.29,317.507 115.153,318.054 114.88,318.679 C114.606,319.291 114.242,319.759 113.786,320.085 C112.783,320.762 111.527,321.101 110.017,321.101 C108.897,321.101 108.337,320.619 108.337,319.655 C108.337,319.226 108.474,318.685 108.747,318.034 C109.007,317.409 109.372,316.934 109.841,316.608 C110.843,315.931 112.1,315.593 113.61,315.593"/>
<path class="Note" d="M82.0559,318.093 C82.6809,318.093 83.2082,318.256 83.6379,318.581 C84.0416,318.933 84.2434,319.375 84.2434,319.909 C84.2434,320.808 83.7811,321.647 82.8567,322.429 C81.9192,323.21 80.9166,323.601 79.8488,323.601 C79.2238,323.601 78.6965,323.438 78.2668,323.112 C77.8632,322.761 77.6613,322.318 77.6613,321.784 C77.6613,320.886 78.1301,320.046 79.0676,319.265 C79.9791,318.483 80.9751,318.093 82.0559,318.093"/>
<path class="Note" d="M83.7895,279.538 C83.7895,279.317 83.7048,279.128 83.5356,278.972 C83.3663,278.802 83.171,278.718 82.9496,278.718 C82.559,278.718 81.7712,279.108 80.5863,279.89 C79.3624,280.684 78.6137,281.25 78.3402,281.589 C78.197,281.771 78.1254,281.96 78.1254,282.155 C78.1254,282.377 78.21,282.565 78.3793,282.722 C78.5356,282.891 78.7309,282.976 78.9652,282.976 C79.3429,282.976 80.1371,282.585 81.3481,281.804 C82.546,281.022 83.2882,280.456 83.5746,280.104 C83.7179,279.935 83.7895,279.746 83.7895,279.538 M82.7543,278.093 C83.8741,278.093 84.434,278.574 84.434,279.538 C84.434,280.007 84.2973,280.554 84.0238,281.179 C83.7504,281.791 83.3858,282.259 82.9301,282.585 C81.9275,283.262 80.671,283.601 79.1606,283.601 C78.0408,283.601 77.4809,283.119 77.4809,282.155 C77.4809,281.726 77.6176,281.185 77.891,280.534 C78.1514,279.909 78.516,279.434 78.9848,279.108 C79.9874,278.431 81.2439,278.093 82.7543,278.093"/>
<path class="Note" d="M551.042,120.593 C551.667,120.593 552.194,120.755 552.624,121.081 C553.028,121.432 553.23,121.875 553.23,122.409 C553.23,123.307 552.767,124.147 551.843,124.929 C550.905,125.71 549.903,126.1 548.835,126.1 C548.21,126.1 547.683,125.938 547.253,125.612 C546.849,125.261 546.647,124.818 546.647,124.284 C546.647,123.386 547.116,122.546 548.054,121.764 C548.965,120.983 549.961,120.593 551.042,120.593"/>
<path class="Note" d="M531.396,123.093 C532.021,123.093 532.548,123.255 532.978,123.581 C533.381,123.932 533.583,124.375 533.583,124.909 C533.583,125.807 533.121,126.647 532.196,127.429 C531.259,128.21 530.256,128.6 529.189,128.6 C528.564,128.6 528.036,128.438 527.607,128.112 C527.203,127.761 527.001,127.318 527.001,126.784 C527.001,125.886 527.47,125.046 528.407,124.264 C529.319,123.483 530.315,123.093 531.396,123.093"/>
<path class="Note" d="M511.749,120.593 C512.374,120.593 512.901,120.755 513.331,121.081 C513.735,121.432 513.937,121.875 513.937,122.409 C513.937,123.307 513.474,124.147 512.55,124.929 C511.612,125.71 510.61,126.1 509.542,126.1 C508.917,126.1 508.39,125.938 507.96,125.612 C507.556,125.261 507.355,124.818 507.355,124.284 C507.355,123.386 507.823,122.546 508.761,121.764 C509.672,120.983 510.668,120.593 511.749,120.593"/>
<path class="Note" d="M492.103,170.593 C492.728,170.593 493.255,170.755 493.685,171.081 C494.088,171.432 494.29,171.875 494.29,172.409 C494.29,173.307 493.828,174.147 492.903,174.929 C491.966,175.71 490.963,176.1 489.896,176.1 C489.271,176.1 488.743,175.938 488.314,175.612 C487.91,175.261 487.708,174.818 487.708,174.284 C487.708,173.386 488.177,172.546 489.114,171.765 C490.026,170.983 491.022,170.593 492.103,170.593"/>
<path class="Note" d="M492.103,123.093 C492.728,123.093 493.255,123.255 493.685,123.581 C494.088,123.932 494.29,124.375 494.29,124.909 C494.29,125.807 493.828,126.647 492.903,127.429 C491.966,128.21 490.963,128.6 489.896,128.6 C489.271,128.6 488.743,128.438 488.314,128.112 C487.91,127.761 487.708,127.318 487.708,126.784 C487.708,125.886 488.177,125.046 489.114,124.264 C490.026,123.483 491.022,123.093 492.103,123.093"/>
<path class="Note" d="M460.668,170.593 C461.293,170.593 461.821,170.755 462.25,171.081 C462.654,171.432 462.856,171.875 462.856,172.409 C462.856,173.307 462.394,174.147 461.469,174.929 C460.532,175.71 459.529,176.1 458.461,176.1 C457.836,176.1 457.309,175.938 456.879,175.612 C456.476,175.261 456.274,174.818 456.274,174.284 C456.274,173.386 456.743,172.546 457.68,171.765 C458.592,170.983 459.588,170.593 460.668,170.593"/>
<path class="Note" d="M460.668,113.093 C461.293,113.093 461.821,113.255 462.25,113.581 C462.654,113.932 462.856,114.375 462.856,114.909 C462.856,115.807 462.394,116.647 461.469,117.429 C460.532,118.21 459.529,118.6 458.461,118.6 C457.836,118.6 457.309,118.438 456.879,118.112 C456.476,117.761 456.274,117.318 456.274,116.784 C456.274,115.886 456.743,115.046 457.68,114.264 C458.592,113.483 459.588,113.093 460.668,113.093"/>
<path class="Note" d="M422.261,115.593 C422.886,115.593 423.413,115.755 423.843,116.081 C424.246,116.432 424.448,116.875 424.448,117.409 C424.448,118.307 423.986,119.147 423.061,119.929 C422.124,120.71 421.121,121.1 420.054,121.1 C419.429,121.1 418.901,120.938 418.472,120.612 C418.068,120.261 417.866,119.818 417.866,119.284 C417.866,118.386 418.335,117.546 419.272,116.764 C420.184,115.983 421.18,115.593 422.261,115.593"/>
<path class="Note" d="M390.653,173.093 C391.278,173.093 391.805,173.255 392.235,173.581 C392.639,173.932 392.84,174.375 392.84,174.909 C392.84,175.807 392.378,176.647 391.454,177.429 C390.516,178.21 389.514,178.6 388.446,178.6 C387.821,178.6 387.294,178.438 386.864,178.112 C386.46,177.761 386.258,177.318 386.258,176.784 C386.258,175.886 386.727,175.046 387.665,174.265 C388.576,173.483 389.572,173.093 390.653,173.093"/>
<path class="Note" d="M390.653,178.093 C391.278,178.093 391.805,178.255 392.235,178.581 C392.639,178.933 392.84,179.375 392.84,179.909 C392.84,180.808 392.378,181.647 391.454,182.429 C390.516,183.21 389.514,183.6 388.446,183.6 C387.821,183.6 387.294,183.438 386.864,183.112 C386.46,182.761 386.258,182.318 386.258,181.784 C386.258,180.886 386.727,180.046 387.665,179.265 C388.576,178.483 389.572,178.093 390.653,178.093"/>
<path class="Note" d="M390.653,120.593 C391.278,120.593 391.805,120.755 392.235,121.081 C392.639,121.432 392.84,121.875 392.84,122.409 C392.84,123.307 392.378,124.147 391.454,124.929 C390.516,125.71 389.514,126.1 388.446,126.1 C387.821,126.1 387.294,125.938 386.864,125.612 C386.46,125.261 386.258,124.818 386.258,124.284 C386.258,123.386 386.727,122.546 387.665,121.764 C388.576,120.983 389.572,120.593 390.653,120.593"/>
<path class="Note" d="M359.045,170.593 C359.67,170.593 360.198,170.755 360.627,171.081 C361.031,171.432 361.233,171.875 361.233,172.409 C361.233,173.307 360.77,174.147 359.846,174.929 C358.909,175.71 357.906,176.1 356.838,176.1 C356.213,176.1 355.686,175.938 355.256,175.612 C354.853,175.261 354.651,174.818 354.651,174.284 C354.651,173.386 355.119,172.546 356.057,171.765 C356.968,170.983 357.964,170.593 359.045,170.593"/>
<path class="Note" d="M359.045,110.593 C359.67,110.593 360.198,110.755 360.627,111.081 C361.031,111.432 361.233,111.875 361.233,112.409 C361.233,113.307 360.77,114.147 359.846,114.929 C358.909,115.71 357.906,116.1 356.838,116.1 C356.213,116.1 355.686,115.938 355.256,115.612 C354.853,115.261 354.651,114.818 354.651,114.284 C354.651,113.386 355.119,112.546 356.057,111.764 C356.968,110.983 357.964,110.593 359.045,110.593"/>
<path class="Note" d="M359.045,120.593 C359.67,120.593 360.198,120.755 360.627,121.081 C361.031,121.432 361.233,121.875 361.233,122.409 C361.233,123.307 360.77,124.147 359.846,124.929 C358.909,125.71 357.906,126.1 356.838,126.1 C356.213,126.1 355.686,125.938 355.256,125.612 C354.853,125.261 354.651,124.818 354.651,124.284 C354.651,123.386 355.119,122.546 356.057,121.764 C356.968,120.983 357.964,120.593 359.045,120.593"/>
<path class="Note" d="M359.045,130.593 C359.67,130.593 360.198,130.755 360.627,131.081 C361.031,131.432 361.233,131.875 361.233,132.409 C361.233,133.307 360.77,134.147 359.846,134.929 C358.909,135.71 357.906,136.1 356.838,136.1 C356.213,136.1 355.686,135.938 355.256,135.612 C354.853,135.261 354.651,134.818 354.651,134.284 C354.651,133.386 355.119,132.546 356.057,131.765 C356.968,130.983 357.964,130.593 359.045,130.593"/>
<path class="Note" d="M335.845,178.093 C336.47,178.093 336.998,178.255 337.427,178.581 C337.831,178.933 338.033,179.375 338.033,179.909 C338.033,180.808 337.57,181.647 336.646,182.429 C335.708,183.21 334.706,183.6 333.638,183.6 C333.013,183.6 332.486,183.438 332.056,183.112 C331.653,182.761 331.451,182.318 331.451,181.784 C331.451,180.886 331.919,180.046 332.857,179.265 C333.768,178.483 334.764,178.093 335.845,178.093"/>
<path class="Note" d="M321.959,178.093 C322.584,178.093 323.112,178.255 323.541,178.581 C323.945,178.933 324.147,179.375 324.147,179.909 C324.147,180.808 323.685,181.647 322.76,182.429 C321.823,183.21 320.82,183.6 319.752,183.6 C319.127,183.6 318.6,183.438 318.17,183.112 C317.767,182.761 317.565,182.318 317.565,181.784 C317.565,180.886 318.034,180.046 318.971,179.265 C319.882,178.483 320.879,178.093 321.959,178.093"/>
<path class="Note" d="M321.959,108.093 C322.584,108.093 323.112,108.255 323.541,108.581 C323.945,108.932 324.147,109.375 324.147,109.909 C324.147,110.807 323.685,111.647 322.76,112.429 C321.823,113.21 320.82,113.6 319.752,113.6 C319.127,113.6 318.6,113.438 318.17,113.112 C317.767,112.761 317.565,112.318 317.565,111.784 C317.565,110.886 318.034,110.046 318.971,109.264 C319.882,108.483 320.879,108.093 321.959,108.093"/>
<path class="Note" d="M299.742,170.593 C300.367,170.593 300.894,170.755 301.324,171.081 C301.728,171.432 301.929,171.875 301.929,172.409 C301.929,173.307 301.467,174.147 300.543,174.929 C299.605,175.71 298.603,176.1 297.535,176.1 C296.91,176.1 296.382,175.938 295.953,175.612 C295.549,175.261 295.347,174.818 295.347,174.284 C295.347,173.386 295.816,172.546 296.754,171.765 C297.665,170.983 298.661,170.593 299.742,170.593"/>
<path class="Note" d="M299.742,180.593 C300.367,180.593 300.894,180.755 301.324,181.081 C301.728,181.433 301.929,181.875 301.929,182.409 C301.929,183.308 301.467,184.147 300.543,184.929 C299.605,185.71 298.603,186.1 297.535,186.1 C296.91,186.1 296.382,185.938 295.953,185.612 C295.549,185.261 295.347,184.818 295.347,184.284 C295.347,183.386 295.816,182.546 296.754,181.765 C297.665,180.983 298.661,180.593 299.742,180.593"/>
<path class="Note" d="M299.742,115.593 C300.367,115.593 300.894,115.755 301.324,116.081 C301.728,116.432 301.929,116.875 301.929,117.409 C301.929,118.307 301.467,119.147 300.543,119.929 C299.605,120.71 298.603,121.1 297.535,121.1 C296.91,121.1 296.382,120.938 295.953,120.612 C295.549,120.261 295.347,119.818 295.347,119.284 C295.347,118.386 295.816,117.546 296.754,116.764 C297.665,115.983 298.661,115.593 299.742,115.593"/>
<path class="Note" d="M299.742,128.093 C300.367,128.093 300.894,128.255 301.324,128.581 C301.728,128.932 301.929,129.375 301.929,129.909 C301.929,130.807 301.467,131.647 300.543,132.429 C299.605,133.21 298.603,133.6 297.535,133.6 C296.91,133.6 296.382,133.438 295.953,133.112 C295.549,132.761 295.347,132.318 295.347,131.784 C295.347,130.886 295.816,130.046 296.754,129.265 C297.665,128.483 298.661,128.093 299.742,128.093"/>
<path class="Note" d="M269.193,173.093 C269.818,173.093 270.345,173.255 270.775,173.581 C271.179,173.932 271.38,174.375 271.38,174.909 C271.38,175.807 270.918,176.647 269.994,177.429 C269.056,178.21 268.054,178.6 266.986,178.6 C266.361,178.6 265.833,178.438 265.404,178.112 C265,177.761 264.798,177.318 264.798,176.784 C264.798,175.886 265.267,175.046 266.205,174.265 C267.116,173.483 268.112,173.093 269.193,173.093"/>
<path class="Note" d="M269.193,113.093 C269.818,113.093 270.345,113.255 270.775,113.581 C271.179,113.932 271.38,114.375 271.38,114.909 C271.38,115.807 270.918,116.647 269.994,117.429 C269.056,118.21 268.054,118.6 266.986,118.6 C266.361,118.6 265.833,118.438 265.404,118.112 C265,117.761 264.798,117.318 264.798,116.784 C264.798,115.886 265.267,115.046 266.205,114.264 C267.116,113.483 268.112,113.093 269.193,113.093"/>
<path class="Note" d="M269.193,120.593 C269.818,120.593 270.345,120.755 270.775,121.081 C271.179,121.432 271.38,121.875 271.38,122.409 C271.38,123.307 270.918,124.147 269.994,124.929 C269.056,125.71 268.054,126.1 266.986,126.1 C266.361,126.1 265.833,125.938 265.404,125.612 C265,125.261 264.798,124.818 264.798,124.284 C264.798,123.386 265.267,122.546 266.205,121.764 C267.116,120.983 268.112,120.593 269.193,120.593"/>
<path class="Note" d="M246.975,123.093 C247.6,123.093 248.128,123.255 248.557,123.581 C248.961,123.932 249.163,124.375 249.163,124.909 C249.163,125.807 248.701,126.647 247.776,127.429 C246.839,128.21 245.836,128.6 244.768,128.6 C244.143,128.6 243.616,128.438 243.186,128.112 C242.783,127.761 242.581,127.318 242.581,126.784 C242.581,125.886 243.05,125.046 243.987,124.264 C244.899,123.483 245.895,123.093 246.975,123.093"/>
<path class="Note" d="M246.975,133.093 C247.6,133.093 248.128,133.255 248.557,133.581 C248.961,133.932 249.163,134.375 249.163,134.909 C249.163,135.807 248.701,136.647 247.776,137.429 C246.839,138.21 245.836,138.6 244.768,138.6 C244.143,138.6 243.616,138.438 243.186,138.112 C242.783,137.761 242.581,137.318 242.581,136.784 C242.581,135.886 243.05,135.046 243.987,134.265 C244.899,133.483 245.895,133.093 246.975,133.093"/>
<path class="Note" d="M224.758,180.593 C225.383,180.593 225.91,180.755 226.34,181.081 C226.744,181.433 226.945,181.875 226.945,182.409 C226.945,183.308 226.483,184.147 225.559,184.929 C224.621,185.71 223.619,186.1 222.551,186.1 C221.926,186.1 221.399,185.938 220.969,185.612 C220.565,185.261 220.363,184.818 220.363,184.284 C220.363,183.386 220.832,182.546 221.77,181.765 C222.681,180.983 223.677,180.593 224.758,180.593"/>
<path class="Note" d="M224.758,113.093 C225.383,113.093 225.91,113.255 226.34,113.581 C226.744,113.932 226.945,114.375 226.945,114.909 C226.945,115.807 226.483,116.647 225.559,117.429 C224.621,118.21 223.619,118.6 222.551,118.6 C221.926,118.6 221.399,118.438 220.969,118.112 C220.565,117.761 220.363,117.318 220.363,116.784 C220.363,115.886 220.832,115.046 221.77,114.264 C222.681,113.483 223.677,113.093 224.758,113.093"/>
<path class="Note" d="M224.758,120.593 C225.383,120.593 225.91,120.755 226.34,121.081 C226.744,121.432 226.945,121.875 226.945,122.409 C226.945,123.307 226.483,124.147 225.559,124.929 C224.621,125.71 223.619,126.1 222.551,126.1 C221.926,126.1 221.399,125.938 220.969,125.612 C220.565,125.261 220.363,124.818 220.363,124.284 C220.363,123.386 220.832,122.546 221.77,121.764 C222.681,120.983 223.677,120.593 224.758,120.593"/>
<path class="Note" d="M197.873,170.593 C198.498,170.593 199.025,170.755 199.455,171.081 C199.858,171.432 200.06,171.875 200.06,172.409 C200.06,173.307 199.598,174.147 198.674,174.929 C197.736,175.71 196.733,176.1 195.666,176.1 C195.041,176.1 194.513,175.938 194.084,175.612 C193.68,175.261 193.478,174.818 193.478,174.284 C193.478,173.386 193.947,172.546 194.884,171.765 C195.796,170.983 196.792,170.593 197.873,170.593"/>
<path class="Note" d="M197.873,178.093 C198.498,178.093 199.025,178.255 199.455,178.581 C199.858,178.933 200.06,179.375 200.06,179.909 C200.06,180.808 199.598,181.647 198.674,182.429 C197.736,183.21 196.733,183.6 195.666,183.6 C195.041,183.6 194.513,183.438 194.084,183.112 C193.68,182.761 193.478,182.318 193.478,181.784 C193.478,180.886 193.947,180.046 194.884,179.265 C195.796,178.483 196.792,178.093 197.873,178.093"/>
<path class="Note" d="M197.873,115.593 C198.498,115.593 199.025,115.755 199.455,116.081 C199.858,116.432 200.06,116.875 200.06,117.409 C200.06,118.307 199.598,119.147 198.674,119.929 C197.736,120.71 196.733,121.1 195.666,121.1 C195.041,121.1 194.513,120.938 194.084,120.612 C193.68,120.261 193.478,119.818 193.478,119.284 C193.478,118.386 193.947,117.546 194.884,116.764 C195.796,115.983 196.792,115.593 197.873,115.593"/>
<path class="Note" d="M197.873,120.593 C198.498,120.593 199.025,120.755 199.455,121.081 C199.858,121.432 200.06,121.875 200.06,122.409 C200.06,123.307 199.598,124.147 198.674,124.929 C197.736,125.71 196.733,126.1 195.666,126.1 C195.041,126.1 194.513,125.938 194.084,125.612 C193.68,125.261 193.478,124.818 193.478,124.284 C193.478,123.386 193.947,122.546 194.884,121.764 C195.796,120.983 196.792,120.593 197.873,120.593"/>
<path class="Note" d="M177.788,178.093 C178.413,178.093 178.94,178.255 179.37,178.581 C179.773,178.933 179.975,179.375 179.975,179.909 C179.975,180.808 179.513,181.647 178.588,182.429 C177.651,183.21 176.648,183.6 175.581,183.6 C174.956,183.6 174.428,183.438 173.998,183.112 C173.595,182.761 173.393,182.318 173.393,181.784 C173.393,180.886 173.862,180.046 174.799,179.265 C175.711,178.483 176.707,178.093 177.788,178.093"/>
<path class="Note" d="M177.788,125.593 C178.413,125.593 178.94,125.755 179.37,126.081 C179.773,126.432 179.975,126.875 179.975,127.409 C179.975,128.307 179.513,129.147 178.588,129.929 C177.651,130.71 176.648,131.1 175.581,131.1 C174.956,131.1 174.428,130.938 173.998,130.612 C173.595,130.261 173.393,129.818 173.393,129.284 C173.393,128.386 173.862,127.546 174.799,126.764 C175.711,125.983 176.707,125.593 177.788,125.593"/>
<path class="Note" d="M177.788,130.593 C178.413,130.593 178.94,130.755 179.37,131.081 C179.773,131.432 179.975,131.875 179.975,132.409 C179.975,133.307 179.513,134.147 178.588,134.929 C177.651,135.71 176.648,136.1 175.581,136.1 C174.956,136.1 174.428,135.938 173.998,135.612 C173.595,135.261 173.393,134.818 173.393,134.284 C173.393,133.386 173.862,132.546 174.799,131.765 C175.711,130.983 176.707,130.593 177.788,130.593"/>
<path class="Note" d="M157.702,160.593 C158.327,160.593 158.855,160.755 159.284,161.081 C159.688,161.432 159.89,161.875 159.89,162.409 C159.89,163.307 159.428,164.147 158.503,164.929 C157.566,165.71 156.563,166.1 155.495,166.1 C154.87,166.1 154.343,165.938 153.913,165.612 C153.51,165.261 153.308,164.818 153.308,164.284 C153.308,163.386 153.777,162.546 154.714,161.765 C155.626,160.983 156.622,160.593 157.702,160.593"/>
<path class="Note" d="M157.702,165.593 C158.327,165.593 158.855,165.755 159.284,166.081 C159.688,166.432 159.89,166.875 159.89,167.409 C159.89,168.307 159.428,169.147 158.503,169.929 C157.566,170.71 156.563,171.1 155.495,171.1 C154.87,171.1 154.343,170.938 153.913,170.612 C153.51,170.261 153.308,169.818 153.308,169.284 C153.308,168.386 153.777,167.546 154.714,166.765 C155.626,165.983 156.622,165.593 157.702,165.593"/>
<path class="Note" d="M157.702,108.093 C158.327,108.093 158.855,108.255 159.284,108.581 C159.688,108.932 159.89,109.375 159.89,109.909 C159.89,110.807 159.428,111.647 158.503,112.429 C157.566,113.21 156.563,113.6 155.495,113.6 C154.87,113.6 154.343,113.438 153.913,113.112 C153.51,112.761 153.308,112.318 153.308,111.784 C153.308,110.886 153.777,110.046 154.714,109.264 C155.626,108.483 156.622,108.093 157.702,108.093"/>
<path class="Note" d="M157.702,115.593 C158.327,115.593 158.855,115.755 159.284,116.081 C159.688,116.432 159.89,116.875 159.89,117.409 C159.89,118.307 159.428,119.147 158.503,119.929 C157.566,120.71 156.563,121.1 155.495,121.1 C154.87,121.1 154.343,120.938 153.913,120.612 C153.51,120.261 153.308,119.818 153.308,119.284 C153.308,118.386 153.777,117.546 154.714,116.764 C155.626,115.983 156.622,115.593 157.702,115.593"/>
<path class="Note" d="M157.702,120.593 C158.327,120.593 158.855,120.755 159.284,121.081 C159.688,121.432 159.89,121.875 159.89,122.409 C159.89,123.307 159.428,124.147 158.503,124.929 C157.566,125.71 156.563,126.1 155.495,126.1 C154.87,126.1 154.343,125.938 153.913,125.612 C153.51,125.261 153.308,124.818 153.308,124.284 C153.308,123.386 153.777,122.546 154.714,121.764 C155.626,120.983 156.622,120.593 157.702,120.593"/>
<path class="Note" d="M137.617,165.593 C138.242,165.593 138.769,165.755 139.199,166.081 C139.603,166.432 139.805,166.875 139.805,167.409 C139.805,168.307 139.342,169.147 138.418,169.929 C137.48,170.71 136.478,171.1 135.41,171.1 C134.785,171.1 134.258,170.938 133.828,170.612 C133.424,170.261 133.223,169.818 133.223,169.284 C133.223,168.386 133.691,167.546 134.629,166.765 C135.54,165.983 136.536,165.593 137.617,165.593"/>
<path class="Note" d="M137.617,178.093 C138.242,178.093 138.769,178.255 139.199,178.581 C139.603,178.933 139.805,179.375 139.805,179.909 C139.805,180.808 139.342,181.647 138.418,182.429 C137.48,183.21 136.478,183.6 135.41,183.6 C134.785,183.6 134.258,183.438 133.828,183.112 C133.424,182.761 133.223,182.318 133.223,181.784 C133.223,180.886 133.691,180.046 134.629,179.265 C135.54,178.483 136.536,178.093 137.617,178.093"/>
<path class="Note" d="M137.617,125.593 C138.242,125.593 138.769,125.755 139.199,126.081 C139.603,126.432 139.805,126.875 139.805,127.409 C139.805,128.307 139.342,129.147 138.418,129.929 C137.48,130.71 136.478,131.1 135.41,131.1 C134.785,131.1 134.258,130.938 133.828,130.612 C133.424,130.261 133.223,129.818 133.223,129.284 C133.223,128.386 133.691,127.546 134.629,126.764 C135.54,125.983 136.536,125.593 137.617,125.593"/>
<path class="Note" d="M137.617,130.593 C138.242,130.593 138.769,130.755 139.199,131.081 C139.603,131.432 139.805,131.875 139.805,132.409 C139.805,133.307 139.342,134.147 138.418,134.929 C137.48,135.71 136.478,136.1 135.41,136.1 C134.785,136.1 134.258,135.938 133.828,135.612 C133.424,135.261 133.223,134.818 133.223,134.284 C133.223,133.386 133.691,132.546 134.629,131.765 C135.54,130.983 136.536,130.593 137.617,130.593"/>
<path class="Note" d="M117.532,170.593 C118.157,170.593 118.684,170.755 119.114,171.081 C119.518,171.432 119.719,171.875 119.719,172.409 C119.719,173.307 119.257,174.147 118.333,174.929 C117.395,175.71 116.393,176.1 115.325,176.1 C114.7,176.1 114.173,175.938 113.743,175.612 C113.339,175.261 113.137,174.818 113.137,174.284 C113.137,173.386 113.606,172.546 114.544,171.765 C115.455,170.983 116.451,170.593 117.532,170.593"/>
<path class="Note" d="M117.532,178.093 C118.157,178.093 118.684,178.255 119.114,178.581 C119.518,178.933 119.719,179.375 119.719,179.909 C119.719,180.808 119.257,181.647 118.333,182.429 C117.395,183.21 116.393,183.6 115.325,183.6 C114.7,183.6 114.173,183.438 113.743,183.112 C113.339,182.761 113.137,182.318 113.137,181.784 C113.137,180.886 113.606,180.046 114.544,179.265 C115.455,178.483 116.451,178.093 117.532,178.093"/>
<path class="Note" d="M92.4254,163.093 C93.0504,163.093 93.5778,163.255 94.0074,163.581 C94.4111,163.932 94.6129,164.375 94.6129,164.909 C94.6129,165.807 94.1507,166.647 93.2262,167.429 C92.2887,168.21 91.2861,168.6 90.2184,168.6 C89.5934,168.6 89.066,168.438 88.6363,168.112 C88.2327,167.761 88.0309,167.318 88.0309,166.784 C88.0309,165.886 88.4996,165.046 89.4371,164.265 C90.3486,163.483 91.3447,163.093 92.4254,163.093"/>
<path class="Note" d="M92.4254,170.593 C93.0504,170.593 93.5778,170.755 94.0074,171.081 C94.4111,171.432 94.6129,171.875 94.6129,172.409 C94.6129,173.307 94.1507,174.147 93.2262,174.929 C92.2887,175.71 91.2861,176.1 90.2184,176.1 C89.5934,176.1 89.066,175.938 88.6363,175.612 C88.2327,175.261 88.0309,174.818 88.0309,174.284 C88.0309,173.386 88.4996,172.546 89.4371,171.765 C90.3486,170.983 91.3447,170.593 92.4254,170.593"/>
<path class="Note" d="M92.4254,180.593 C93.0504,180.593 93.5778,180.755 94.0074,181.081 C94.4111,181.433 94.6129,181.875 94.6129,182.409 C94.6129,183.308 94.1507,184.147 93.2262,184.929 C92.2887,185.71 91.2861,186.1 90.2184,186.1 C89.5934,186.1 89.066,185.938 88.6363,185.612 C88.2327,185.261 88.0309,184.818 88.0309,184.284 C88.0309,183.386 88.4996,182.546 89.4371,181.765 C90.3486,180.983 91.3447,180.593 92.4254,180.593"/>
<path class="Note" d="M92.4254,110.593 C93.0504,110.593 93.5778,110.755 94.0074,111.081 C94.4111,111.432 94.6129,111.875 94.6129,112.409 C94.6129,113.307 94.1507,114.147 93.2262,114.929 C92.2887,115.71 91.2861,116.1 90.2184,116.1 C89.5934,116.1 89.066,115.938 88.6363,115.612 C88.2327,115.261 88.0309,114.818 88.0309,114.284 C88.0309,113.386 88.4996,112.546 89.4371,111.764 C90.3486,110.983 91.3447,110.593 92.4254,110.593"/>
<path class="Note" d="M92.4254,115.593 C93.0504,115.593 93.5778,115.755 94.0074,116.081 C94.4111,116.432 94.6129,116.875 94.6129,117.409 C94.6129,118.307 94.1507,119.147 93.2262,119.929 C92.2887,120.71 91.2861,121.1 90.2184,121.1 C89.5934,121.1 89.066,120.938 88.6363,120.612 C88.2327,120.261 88.0309,119.818 88.0309,119.284 C88.0309,118.386 88.4996,117.546 89.4371,116.764 C90.3486,115.983 91.3447,115.593 92.4254,115.593"/>
<path class="Clef" d="M54.2723,316.569 C54.0769,316.374 53.9793,316.133 53.9793,315.847 C53.9793,315.56 54.0769,315.319 54.2723,315.124 C54.4676,314.929 54.7085,314.831 54.9949,314.831 C55.2814,314.831 55.5223,314.929 55.7176,315.124 C55.9129,315.319 56.0105,315.56 56.0105,315.847 C56.0105,316.133 55.9129,316.374 55.7176,316.569 C55.5223,316.765 55.2814,316.862 54.9949,316.862 C54.7085,316.862 54.4676,316.765 54.2723,316.569 M54.2723,321.569 C54.0769,321.374 53.9793,321.133 53.9793,320.847 C53.9793,320.56 54.0769,320.319 54.2723,320.124 C54.4676,319.929 54.7085,319.831 54.9949,319.831 C55.2814,319.831 55.5223,319.929 55.7176,320.124 C55.9129,320.319 56.0105,320.56 56.0105,320.847 C56.0105,321.133 55.9129,321.374 55.7176,321.569 C55.5223,321.765 55.2814,321.862 54.9949,321.862 C54.7085,321.862 54.4676,321.765 54.2723,321.569 M47.4949,313.093 C49.2267,313.093 50.646,313.529 51.7527,314.401 C52.8204,315.313 53.3543,316.55 53.3543,318.112 C53.3543,319.167 53.146,320.131 52.7293,321.003 C52.3387,321.914 51.8243,322.722 51.1863,323.425 C50.5353,324.141 49.7475,324.818 48.823,325.456 C47.9246,326.081 47.0001,326.641 46.0496,327.136 C44.1225,328.112 43.0548,328.601 42.8465,328.601 C42.6772,328.601 42.5926,328.516 42.5926,328.347 C42.5926,328.282 42.6186,328.223 42.6707,328.171 C43.3348,327.78 44.1486,327.279 45.1121,326.667 C45.7371,326.263 46.4663,325.703 47.2996,324.987 C48.1069,324.31 48.7319,323.672 49.1746,323.073 C49.6303,322.487 50.047,321.758 50.4246,320.886 C50.7501,320.013 50.9129,319.154 50.9129,318.308 C50.9129,317.045 50.6004,315.944 49.9754,315.007 C49.3504,314.069 48.5236,313.601 47.4949,313.601 C46.7657,313.601 46.1407,313.835 45.6199,314.304 C45.06,314.785 44.6564,315.391 44.409,316.12 C44.6564,316.016 44.8842,315.964 45.0926,315.964 C45.6394,315.964 46.1082,316.159 46.4988,316.55 C46.8894,316.966 47.0848,317.442 47.0848,317.976 C47.0848,318.535 46.896,319.037 46.5184,319.479 C46.1147,319.883 45.6394,320.085 45.0926,320.085 C44.5066,320.085 43.9793,319.883 43.5105,319.479 C43.0678,319.037 42.8465,318.535 42.8465,317.976 C42.8465,316.634 43.3022,315.489 44.2137,314.538 C45.1121,313.575 46.2059,313.093 47.4949,313.093"/>
<path class="Clef" d="M50.1902,270.729 C50.1902,270.729 50.2293,270.729 50.3074,270.729 C50.3595,270.716 50.4051,270.71 50.4441,270.71 C51.9025,270.71 53.1004,271.224 54.0379,272.253 C54.9754,273.268 55.4441,274.453 55.4441,275.808 C55.4441,277.487 54.7475,278.854 53.3543,279.909 C52.9897,280.196 52.5144,280.43 51.9285,280.612 C51.9936,281.459 52.0262,282.142 52.0262,282.663 C52.0262,282.767 52.0131,283.145 51.9871,283.796 C51.935,285.007 51.5184,286.055 50.7371,286.94 C49.9819,287.813 49.0444,288.249 47.9246,288.249 C46.8699,288.249 45.9715,287.878 45.2293,287.136 C44.4871,286.38 44.116,285.469 44.116,284.401 C44.116,283.841 44.3309,283.366 44.7605,282.976 C45.2032,282.585 45.7176,282.39 46.3035,282.39 C46.8243,282.39 47.2605,282.591 47.6121,282.995 C47.9767,283.373 48.159,283.841 48.159,284.401 C48.159,284.909 47.9767,285.345 47.6121,285.71 C47.2475,286.074 46.8113,286.257 46.3035,286.257 C46.0952,286.257 45.8934,286.218 45.698,286.14 C46.271,286.986 47.0327,287.409 47.9832,287.409 C48.8816,287.409 49.6173,287.045 50.1902,286.315 C50.7892,285.56 51.1147,284.681 51.1668,283.679 C51.1928,283.054 51.2059,282.696 51.2059,282.604 C51.2059,281.875 51.1798,281.276 51.1277,280.808 C50.4767,280.912 49.8973,280.964 49.3894,280.964 C47.5796,280.964 46.0366,280.248 44.7605,278.815 C43.5105,277.37 42.8855,275.651 42.8855,273.659 C42.8855,273.242 42.9246,272.819 43.0027,272.39 C43.0809,272.038 43.1785,271.654 43.2957,271.237 C43.3608,271.003 43.5366,270.625 43.823,270.104 C43.9272,269.948 44.0444,269.753 44.1746,269.518 C44.3048,269.284 44.396,269.128 44.448,269.05 C44.5782,268.789 44.8322,268.438 45.2098,267.995 C45.3139,267.878 45.4213,267.748 45.532,267.604 C45.6427,267.461 45.7371,267.344 45.8152,267.253 C45.8934,267.162 45.9519,267.09 45.991,267.038 C46.0301,266.986 46.323,266.641 46.8699,266.003 C47.0001,265.873 47.1271,265.733 47.2508,265.583 C47.3745,265.433 47.4754,265.316 47.5535,265.231 C47.6316,265.147 47.6902,265.085 47.7293,265.046 C47.2605,263.496 46.9676,262.259 46.8504,261.335 C46.7592,260.593 46.7137,259.577 46.7137,258.288 C46.7137,257.155 46.9741,256.094 47.4949,255.104 C48.0027,254.076 48.7124,253.236 49.6238,252.585 C49.6889,252.546 49.754,252.526 49.8191,252.526 C49.9103,252.526 49.9754,252.546 50.0144,252.585 C50.7176,253.431 51.323,254.532 51.8309,255.886 C52.3517,257.24 52.6121,258.47 52.6121,259.577 C52.6121,260.827 52.3126,261.999 51.7137,263.093 C51.0366,264.252 50.1642,265.449 49.0965,266.686 C49.3699,267.546 49.7345,268.893 50.1902,270.729 M51.8504,279.811 C52.5275,279.564 53.0548,279.141 53.4324,278.542 C53.8491,277.969 54.0574,277.324 54.0574,276.608 C54.0574,275.684 53.7449,274.864 53.1199,274.147 C52.4819,273.405 51.6681,272.989 50.6785,272.897 C51.2384,275.645 51.629,277.949 51.8504,279.811 M44.2918,275.3 C44.2918,276.589 44.8126,277.722 45.8543,278.698 C46.922,279.649 48.1199,280.124 49.448,280.124 C49.9949,280.124 50.5288,280.085 51.0496,280.007 C50.8413,278.028 50.4311,275.658 49.8191,272.897 C49.0769,272.976 48.4845,273.236 48.0418,273.679 C47.6121,274.134 47.3973,274.649 47.3973,275.222 C47.3973,276.211 47.9246,277.012 48.9793,277.624 C49.0704,277.715 49.116,277.813 49.116,277.917 C49.116,278.021 49.0704,278.119 48.9793,278.21 C48.9012,278.301 48.8035,278.347 48.6863,278.347 C48.6733,278.347 48.6147,278.334 48.5105,278.308 C47.7684,277.904 47.1954,277.383 46.7918,276.745 C46.4142,276.068 46.2254,275.384 46.2254,274.694 C46.2254,273.796 46.5053,272.982 47.0652,272.253 C47.6512,271.524 48.4129,271.055 49.3504,270.847 C48.9858,269.388 48.6863,268.249 48.4519,267.429 C48.2436,267.663 47.993,267.946 47.7,268.278 C47.407,268.61 47.2345,268.809 47.1824,268.874 C46.7137,269.486 46.3556,269.961 46.1082,270.3 C45.6655,270.912 45.34,271.439 45.1316,271.882 C44.9103,272.377 44.715,272.917 44.5457,273.503 C44.3764,274.063 44.2918,274.662 44.2918,275.3 M50.8152,255.436 C49.8387,255.918 49.0704,256.608 48.5105,257.507 C47.9376,258.431 47.6512,259.427 47.6512,260.495 C47.6512,261.433 47.8855,262.696 48.3543,264.284 C49.2918,263.151 49.9949,262.103 50.4637,261.14 C50.9585,260.124 51.2059,259.063 51.2059,257.956 C51.2059,257.123 51.0756,256.283 50.8152,255.436"/>
<path class="Clef" d="M54.2723,169.069 C54.0769,168.874 53.9793,168.633 53.9793,168.347 C53.9793,168.06 54.0769,167.819 54.2723,167.624 C54.4676,167.429 54.7085,167.331 54.9949,167.331 C55.2814,167.331 55.5223,167.429 55.7176,167.624 C55.9129,167.819 56.0105,168.06 56.0105,168.347 C56.0105,168.633 55.9129,168.874 55.7176,169.069 C55.5223,169.265 55.2814,169.362 54.9949,169.362 C54.7085,169.362 54.4676,169.265 54.2723,169.069 M54.2723,174.069 C54.0769,173.874 53.9793,173.633 53.9793,173.347 C53.9793,173.06 54.0769,172.819 54.2723,172.624 C54.4676,172.429 54.7085,172.331 54.9949,172.331 C55.2814,172.331 55.5223,172.429 55.7176,172.624 C55.9129,172.819 56.0105,173.06 56.0105,173.347 C56.0105,173.633 55.9129,173.874 55.7176,174.069 C55.5223,174.265 55.2814,174.362 54.9949,174.362 C54.7085,174.362 54.4676,174.265 54.2723,174.069 M47.4949,165.593 C49.2267,165.593 50.646,166.029 51.7527,166.901 C52.8204,167.813 53.3543,169.05 53.3543,170.612 C53.3543,171.667 53.146,172.63 52.7293,173.503 C52.3387,174.414 51.8243,175.222 51.1863,175.925 C50.5353,176.641 49.7475,177.318 48.823,177.956 C47.9246,178.581 47.0001,179.141 46.0496,179.636 C44.1225,180.612 43.0548,181.1 42.8465,181.1 C42.6772,181.1 42.5926,181.016 42.5926,180.847 C42.5926,180.781 42.6186,180.723 42.6707,180.671 C43.3348,180.28 44.1486,179.779 45.1121,179.167 C45.7371,178.763 46.4663,178.203 47.2996,177.487 C48.1069,176.81 48.7319,176.172 49.1746,175.573 C49.6303,174.987 50.047,174.258 50.4246,173.386 C50.7501,172.513 50.9129,171.654 50.9129,170.807 C50.9129,169.544 50.6004,168.444 49.9754,167.507 C49.3504,166.569 48.5236,166.1 47.4949,166.1 C46.7657,166.1 46.1407,166.335 45.6199,166.804 C45.06,167.285 44.6564,167.891 44.409,168.62 C44.6564,168.516 44.8842,168.464 45.0926,168.464 C45.6394,168.464 46.1082,168.659 46.4988,169.05 C46.8894,169.466 47.0848,169.942 47.0848,170.475 C47.0848,171.035 46.896,171.537 46.5184,171.979 C46.1147,172.383 45.6394,172.585 45.0926,172.585 C44.5066,172.585 43.9793,172.383 43.5105,171.979 C43.0678,171.537 42.8465,171.035 42.8465,170.475 C42.8465,169.134 43.3022,167.988 44.2137,167.038 C45.1121,166.074 46.2059,165.593 47.4949,165.593"/>
<path class="Clef" d="M50.1902,123.229 C50.1902,123.229 50.2293,123.229 50.3074,123.229 C50.3595,123.216 50.4051,123.21 50.4441,123.21 C51.9025,123.21 53.1004,123.724 54.0379,124.753 C54.9754,125.768 55.4441,126.953 55.4441,128.307 C55.4441,129.987 54.7475,131.354 53.3543,132.409 C52.9897,132.695 52.5144,132.93 51.9285,133.112 C51.9936,133.959 52.0262,134.642 52.0262,135.163 C52.0262,135.267 52.0131,135.645 51.9871,136.296 C51.935,137.507 51.5184,138.555 50.7371,139.44 C49.9819,140.313 49.0444,140.749 47.9246,140.749 C46.8699,140.749 45.9715,140.378 45.2293,139.636 C44.4871,138.88 44.116,137.969 44.116,136.901 C44.116,136.341 44.3309,135.866 44.7605,135.475 C45.2032,135.085 45.7176,134.889 46.3035,134.889 C46.8243,134.889 47.2605,135.091 47.6121,135.495 C47.9767,135.873 48.159,136.341 48.159,136.901 C48.159,137.409 47.9767,137.845 47.6121,138.21 C47.2475,138.574 46.8113,138.757 46.3035,138.757 C46.0952,138.757 45.8934,138.718 45.698,138.639 C46.271,139.486 47.0327,139.909 47.9832,139.909 C48.8816,139.909 49.6173,139.544 50.1902,138.815 C50.7892,138.06 51.1147,137.181 51.1668,136.179 C51.1928,135.554 51.2059,135.195 51.2059,135.104 C51.2059,134.375 51.1798,133.776 51.1277,133.307 C50.4767,133.412 49.8973,133.464 49.3894,133.464 C47.5796,133.464 46.0366,132.748 44.7605,131.315 C43.5105,129.87 42.8855,128.151 42.8855,126.159 C42.8855,125.742 42.9246,125.319 43.0027,124.889 C43.0809,124.538 43.1785,124.154 43.2957,123.737 C43.3608,123.503 43.5366,123.125 43.823,122.604 C43.9272,122.448 44.0444,122.253 44.1746,122.018 C44.3048,121.784 44.396,121.628 44.448,121.55 C44.5782,121.289 44.8322,120.938 45.2098,120.495 C45.3139,120.378 45.4213,120.248 45.532,120.104 C45.6427,119.961 45.7371,119.844 45.8152,119.753 C45.8934,119.662 45.9519,119.59 45.991,119.538 C46.0301,119.486 46.323,119.141 46.8699,118.503 C47.0001,118.373 47.1271,118.233 47.2508,118.083 C47.3745,117.933 47.4754,117.816 47.5535,117.731 C47.6316,117.647 47.6902,117.585 47.7293,117.546 C47.2605,115.996 46.9676,114.759 46.8504,113.835 C46.7592,113.093 46.7137,112.077 46.7137,110.788 C46.7137,109.655 46.9741,108.594 47.4949,107.604 C48.0027,106.576 48.7124,105.736 49.6238,105.085 C49.6889,105.046 49.754,105.026 49.8191,105.026 C49.9103,105.026 49.9754,105.046 50.0144,105.085 C50.7176,105.931 51.323,107.031 51.8309,108.386 C52.3517,109.74 52.6121,110.97 52.6121,112.077 C52.6121,113.327 52.3126,114.499 51.7137,115.593 C51.0366,116.751 50.1642,117.949 49.0965,119.186 C49.3699,120.046 49.7345,121.393 50.1902,123.229 M51.8504,132.311 C52.5275,132.064 53.0548,131.641 53.4324,131.042 C53.8491,130.469 54.0574,129.824 54.0574,129.108 C54.0574,128.184 53.7449,127.363 53.1199,126.647 C52.4819,125.905 51.6681,125.488 50.6785,125.397 C51.2384,128.145 51.629,130.449 51.8504,132.311 M44.2918,127.8 C44.2918,129.089 44.8126,130.222 45.8543,131.198 C46.922,132.149 48.1199,132.624 49.448,132.624 C49.9949,132.624 50.5288,132.585 51.0496,132.507 C50.8413,130.528 50.4311,128.158 49.8191,125.397 C49.0769,125.475 48.4845,125.736 48.0418,126.179 C47.6121,126.634 47.3973,127.149 47.3973,127.722 C47.3973,128.711 47.9246,129.512 48.9793,130.124 C49.0704,130.215 49.116,130.313 49.116,130.417 C49.116,130.521 49.0704,130.619 48.9793,130.71 C48.9012,130.801 48.8035,130.847 48.6863,130.847 C48.6733,130.847 48.6147,130.834 48.5105,130.807 C47.7684,130.404 47.1954,129.883 46.7918,129.245 C46.4142,128.568 46.2254,127.884 46.2254,127.194 C46.2254,126.296 46.5053,125.482 47.0652,124.753 C47.6512,124.024 48.4129,123.555 49.3504,123.347 C48.9858,121.888 48.6863,120.749 48.4519,119.929 C48.2436,120.163 47.993,120.446 47.7,120.778 C47.407,121.11 47.2345,121.309 47.1824,121.374 C46.7137,121.986 46.3556,122.461 46.1082,122.8 C45.6655,123.412 45.34,123.939 45.1316,124.382 C44.9103,124.876 44.715,125.417 44.5457,126.003 C44.3764,126.563 44.2918,127.162 44.2918,127.8 M50.8152,107.936 C49.8387,108.418 49.0704,109.108 48.5105,110.007 C47.9376,110.931 47.6512,111.927 47.6512,112.995 C47.6512,113.932 47.8855,115.195 48.3543,116.784 C49.2918,115.651 49.9949,114.603 50.4637,113.639 C50.9585,112.624 51.2059,111.563 51.2059,110.456 C51.2059,109.623 51.0756,108.783 50.8152,107.936"/>
<path class="KeySig" d="M67.5395,332.077 C67.5395,332.325 67.4158,332.448 67.1684,332.448 C66.921,332.448 66.7973,332.325 66.7973,332.077 L66.7973,329.186 L65.1371,329.811 L65.1371,332.976 C65.1371,333.223 65.0134,333.347 64.766,333.347 C64.5186,333.347 64.3949,333.223 64.3949,332.976 L64.3949,330.065 L63.7699,330.3 C63.7569,330.313 63.7048,330.319 63.6137,330.319 C63.5095,330.319 63.4184,330.28 63.3402,330.202 C63.2621,330.124 63.2231,330.033 63.2231,329.929 L63.2231,328.718 C63.2231,328.522 63.3077,328.399 63.477,328.347 L64.3949,328.034 L64.3949,324.831 L63.7699,325.046 C63.7569,325.059 63.7048,325.065 63.6137,325.065 C63.5095,325.065 63.4184,325.026 63.3402,324.948 C63.2621,324.87 63.2231,324.779 63.2231,324.675 L63.2231,323.464 C63.2231,323.282 63.3077,323.164 63.477,323.112 L64.3949,322.761 L64.3949,319.616 C64.3949,319.369 64.5186,319.245 64.766,319.245 C65.0134,319.245 65.1371,319.369 65.1371,319.616 L65.1371,322.507 L66.7973,321.882 L66.7973,318.718 C66.7973,318.47 66.921,318.347 67.1684,318.347 C67.4158,318.347 67.5395,318.47 67.5395,318.718 L67.5395,321.628 L68.184,321.394 C68.197,321.381 68.2426,321.374 68.3207,321.374 C68.4119,321.374 68.5095,321.413 68.6137,321.491 C68.6918,321.569 68.7309,321.66 68.7309,321.765 L68.7309,322.976 C68.7309,323.158 68.6397,323.282 68.4574,323.347 L67.5395,323.659 L67.5395,326.862 L68.184,326.647 C68.197,326.634 68.2426,326.628 68.3207,326.628 C68.4119,326.628 68.5095,326.667 68.6137,326.745 C68.6918,326.823 68.7309,326.914 68.7309,327.019 L68.7309,328.229 C68.7309,328.399 68.6397,328.516 68.4574,328.581 L67.5395,328.933 L67.5395,332.077 M66.7973,323.952 L65.1371,324.538 L65.1371,327.741 L66.7973,327.155 L66.7973,323.952 "/>
<path class="KeySig" d="M62.5395,324.577 C62.5395,324.825 62.4158,324.948 62.1684,324.948 C61.921,324.948 61.7973,324.825 61.7973,324.577 L61.7973,321.686 L60.1371,322.311 L60.1371,325.476 C60.1371,325.723 60.0134,325.847 59.766,325.847 C59.5186,325.847 59.3949,325.723 59.3949,325.476 L59.3949,322.565 L58.7699,322.8 C58.7569,322.813 58.7048,322.819 58.6137,322.819 C58.5095,322.819 58.4184,322.78 58.3402,322.702 C58.2621,322.624 58.223,322.533 58.223,322.429 L58.223,321.218 C58.223,321.022 58.3077,320.899 58.477,320.847 L59.3949,320.534 L59.3949,317.331 L58.7699,317.546 C58.7569,317.559 58.7048,317.565 58.6137,317.565 C58.5095,317.565 58.4184,317.526 58.3402,317.448 C58.2621,317.37 58.223,317.279 58.223,317.175 L58.223,315.964 C58.223,315.782 58.3077,315.664 58.477,315.612 L59.3949,315.261 L59.3949,312.116 C59.3949,311.869 59.5186,311.745 59.766,311.745 C60.0134,311.745 60.1371,311.869 60.1371,312.116 L60.1371,315.007 L61.7973,314.382 L61.7973,311.218 C61.7973,310.97 61.921,310.847 62.1684,310.847 C62.4158,310.847 62.5395,310.97 62.5395,311.218 L62.5395,314.128 L63.184,313.894 C63.197,313.881 63.2426,313.874 63.3207,313.874 C63.4119,313.874 63.5095,313.913 63.6137,313.991 C63.6918,314.069 63.7309,314.16 63.7309,314.265 L63.7309,315.476 C63.7309,315.658 63.6397,315.782 63.4574,315.847 L62.5395,316.159 L62.5395,319.362 L63.184,319.147 C63.197,319.134 63.2426,319.128 63.3207,319.128 C63.4119,319.128 63.5095,319.167 63.6137,319.245 C63.6918,319.323 63.7309,319.414 63.7309,319.519 L63.7309,320.729 C63.7309,320.899 63.6397,321.016 63.4574,321.081 L62.5395,321.433 L62.5395,324.577 M61.7973,316.452 L60.1371,317.038 L60.1371,320.241 L61.7973,319.655 L61.7973,316.452 "/>
<path class="KeySig" d="M67.5395,274.577 C67.5395,274.824 67.4158,274.948 67.1684,274.948 C66.921,274.948 66.7973,274.824 66.7973,274.577 L66.7973,271.686 L65.1371,272.311 L65.1371,275.476 C65.1371,275.723 65.0134,275.847 64.766,275.847 C64.5186,275.847 64.3949,275.723 64.3949,275.476 L64.3949,272.565 L63.7699,272.8 C63.7569,272.813 63.7048,272.819 63.6137,272.819 C63.5095,272.819 63.4184,272.78 63.3402,272.702 C63.2621,272.624 63.2231,272.533 63.2231,272.429 L63.2231,271.218 C63.2231,271.022 63.3077,270.899 63.477,270.847 L64.3949,270.534 L64.3949,267.331 L63.7699,267.546 C63.7569,267.559 63.7048,267.565 63.6137,267.565 C63.5095,267.565 63.4184,267.526 63.3402,267.448 C63.2621,267.37 63.2231,267.279 63.2231,267.175 L63.2231,265.964 C63.2231,265.782 63.3077,265.664 63.477,265.612 L64.3949,265.261 L64.3949,262.116 C64.3949,261.869 64.5186,261.745 64.766,261.745 C65.0134,261.745 65.1371,261.869 65.1371,262.116 L65.1371,265.007 L66.7973,264.382 L66.7973,261.218 C66.7973,260.97 66.921,260.847 67.1684,260.847 C67.4158,260.847 67.5395,260.97 67.5395,261.218 L67.5395,264.128 L68.184,263.893 C68.197,263.88 68.2426,263.874 68.3207,263.874 C68.4119,263.874 68.5095,263.913 68.6137,263.991 C68.6918,264.069 68.7309,264.16 68.7309,264.265 L68.7309,265.476 C68.7309,265.658 68.6397,265.782 68.4574,265.847 L67.5395,266.159 L67.5395,269.362 L68.184,269.147 C68.197,269.134 68.2426,269.128 68.3207,269.128 C68.4119,269.128 68.5095,269.167 68.6137,269.245 C68.6918,269.323 68.7309,269.414 68.7309,269.518 L68.7309,270.729 C68.7309,270.899 68.6397,271.016 68.4574,271.081 L67.5395,271.433 L67.5395,274.577 M66.7973,266.452 L65.1371,267.038 L65.1371,270.241 L66.7973,269.655 L66.7973,266.452 "/>
<path class="KeySig" d="M62.5395,267.077 C62.5395,267.324 62.4158,267.448 62.1684,267.448 C61.921,267.448 61.7973,267.324 61.7973,267.077 L61.7973,264.186 L60.1371,264.811 L60.1371,267.976 C60.1371,268.223 60.0134,268.347 59.766,268.347 C59.5186,268.347 59.3949,268.223 59.3949,267.976 L59.3949,265.065 L58.7699,265.3 C58.7569,265.313 58.7048,265.319 58.6137,265.319 C58.5095,265.319 58.4184,265.28 58.3402,265.202 C58.2621,265.124 58.223,265.033 58.223,264.929 L58.223,263.718 C58.223,263.522 58.3077,263.399 58.477,263.347 L59.3949,263.034 L59.3949,259.831 L58.7699,260.046 C58.7569,260.059 58.7048,260.065 58.6137,260.065 C58.5095,260.065 58.4184,260.026 58.3402,259.948 C58.2621,259.87 58.223,259.779 58.223,259.675 L58.223,258.464 C58.223,258.282 58.3077,258.164 58.477,258.112 L59.3949,257.761 L59.3949,254.616 C59.3949,254.369 59.5186,254.245 59.766,254.245 C60.0134,254.245 60.1371,254.369 60.1371,254.616 L60.1371,257.507 L61.7973,256.882 L61.7973,253.718 C61.7973,253.47 61.921,253.347 62.1684,253.347 C62.4158,253.347 62.5395,253.47 62.5395,253.718 L62.5395,256.628 L63.184,256.393 C63.197,256.38 63.2426,256.374 63.3207,256.374 C63.4119,256.374 63.5095,256.413 63.6137,256.491 C63.6918,256.569 63.7309,256.66 63.7309,256.765 L63.7309,257.976 C63.7309,258.158 63.6397,258.282 63.4574,258.347 L62.5395,258.659 L62.5395,261.862 L63.184,261.647 C63.197,261.634 63.2426,261.628 63.3207,261.628 C63.4119,261.628 63.5095,261.667 63.6137,261.745 C63.6918,261.823 63.7309,261.914 63.7309,262.018 L63.7309,263.229 C63.7309,263.399 63.6397,263.516 63.4574,263.581 L62.5395,263.933 L62.5395,267.077 M61.7973,258.952 L60.1371,259.538 L60.1371,262.741 L61.7973,262.155 L61.7973,258.952 "/>
<path class="KeySig" d="M67.5395,184.577 C67.5395,184.824 67.4158,184.948 67.1684,184.948 C66.921,184.948 66.7973,184.824 66.7973,184.577 L66.7973,181.686 L65.1371,182.311 L65.1371,185.475 C65.1371,185.723 65.0134,185.847 64.766,185.847 C64.5186,185.847 64.3949,185.723 64.3949,185.475 L64.3949,182.565 L63.7699,182.8 C63.7569,182.813 63.7048,182.819 63.6137,182.819 C63.5095,182.819 63.4184,182.78 63.3402,182.702 C63.2621,182.624 63.2231,182.533 63.2231,182.429 L63.2231,181.218 C63.2231,181.022 63.3077,180.899 63.477,180.847 L64.3949,180.534 L64.3949,177.331 L63.7699,177.546 C63.7569,177.559 63.7048,177.565 63.6137,177.565 C63.5095,177.565 63.4184,177.526 63.3402,177.448 C63.2621,177.37 63.2231,177.279 63.2231,177.175 L63.2231,175.964 C63.2231,175.781 63.3077,175.664 63.477,175.612 L64.3949,175.261 L64.3949,172.116 C64.3949,171.869 64.5186,171.745 64.766,171.745 C65.0134,171.745 65.1371,171.869 65.1371,172.116 L65.1371,175.007 L66.7973,174.382 L66.7973,171.218 C66.7973,170.97 66.921,170.847 67.1684,170.847 C67.4158,170.847 67.5395,170.97 67.5395,171.218 L67.5395,174.128 L68.184,173.893 C68.197,173.88 68.2426,173.874 68.3207,173.874 C68.4119,173.874 68.5095,173.913 68.6137,173.991 C68.6918,174.069 68.7309,174.16 68.7309,174.265 L68.7309,175.475 C68.7309,175.658 68.6397,175.781 68.4574,175.847 L67.5395,176.159 L67.5395,179.362 L68.184,179.147 C68.197,179.134 68.2426,179.128 68.3207,179.128 C68.4119,179.128 68.5095,179.167 68.6137,179.245 C68.6918,179.323 68.7309,179.414 68.7309,179.518 L68.7309,180.729 C68.7309,180.899 68.6397,181.016 68.4574,181.081 L67.5395,181.432 L67.5395,184.577 M66.7973,176.452 L65.1371,177.038 L65.1371,180.241 L66.7973,179.655 L66.7973,176.452 "/>
<path class="KeySig" d="M62.5395,177.077 C62.5395,177.324 62.4158,177.448 62.1684,177.448 C61.921,177.448 61.7973,177.324 61.7973,177.077 L61.7973,174.186 L60.1371,174.811 L60.1371,177.975 C60.1371,178.223 60.0134,178.347 59.766,178.347 C59.5186,178.347 59.3949,178.223 59.3949,177.975 L59.3949,175.065 L58.7699,175.3 C58.7569,175.313 58.7048,175.319 58.6137,175.319 C58.5095,175.319 58.4184,175.28 58.3402,175.202 C58.2621,175.124 58.223,175.033 58.223,174.929 L58.223,173.718 C58.223,173.522 58.3077,173.399 58.477,173.347 L59.3949,173.034 L59.3949,169.831 L58.7699,170.046 C58.7569,170.059 58.7048,170.065 58.6137,170.065 C58.5095,170.065 58.4184,170.026 58.3402,169.948 C58.2621,169.87 58.223,169.779 58.223,169.675 L58.223,168.464 C58.223,168.281 58.3077,168.164 58.477,168.112 L59.3949,167.761 L59.3949,164.616 C59.3949,164.369 59.5186,164.245 59.766,164.245 C60.0134,164.245 60.1371,164.369 60.1371,164.616 L60.1371,167.507 L61.7973,166.882 L61.7973,163.718 C61.7973,163.47 61.921,163.347 62.1684,163.347 C62.4158,163.347 62.5395,163.47 62.5395,163.718 L62.5395,166.628 L63.184,166.393 C63.197,166.38 63.2426,166.374 63.3207,166.374 C63.4119,166.374 63.5095,166.413 63.6137,166.491 C63.6918,166.569 63.7309,166.66 63.7309,166.765 L63.7309,167.975 C63.7309,168.158 63.6397,168.281 63.4574,168.347 L62.5395,168.659 L62.5395,171.862 L63.184,171.647 C63.197,171.634 63.2426,171.628 63.3207,171.628 C63.4119,171.628 63.5095,171.667 63.6137,171.745 C63.6918,171.823 63.7309,171.914 63.7309,172.018 L63.7309,173.229 C63.7309,173.399 63.6397,173.516 63.4574,173.581 L62.5395,173.932 L62.5395,177.077 M61.7973,168.952 L60.1371,169.538 L60.1371,172.741 L61.7973,172.155 L61.7973,168.952 "/>
<path class="KeySig" d="M67.5395,127.077 C67.5395,127.324 67.4158,127.448 67.1684,127.448 C66.921,127.448 66.7973,127.324 66.7973,127.077 L66.7973,124.186 L65.1371,124.811 L65.1371,127.975 C65.1371,128.223 65.0134,128.347 64.766,128.347 C64.5186,128.347 64.3949,128.223 64.3949,127.975 L64.3949,125.065 L63.7699,125.3 C63.7569,125.313 63.7048,125.319 63.6137,125.319 C63.5095,125.319 63.4184,125.28 63.3402,125.202 C63.2621,125.124 63.2231,125.033 63.2231,124.929 L63.2231,123.718 C63.2231,123.522 63.3077,123.399 63.477,123.347 L64.3949,123.034 L64.3949,119.831 L63.7699,120.046 C63.7569,120.059 63.7048,120.065 63.6137,120.065 C63.5095,120.065 63.4184,120.026 63.3402,119.948 C63.2621,119.87 63.2231,119.779 63.2231,119.675 L63.2231,118.464 C63.2231,118.281 63.3077,118.164 63.477,118.112 L64.3949,117.761 L64.3949,114.616 C64.3949,114.369 64.5186,114.245 64.766,114.245 C65.0134,114.245 65.1371,114.369 65.1371,114.616 L65.1371,117.507 L66.7973,116.882 L66.7973,113.718 C66.7973,113.47 66.921,113.347 67.1684,113.347 C67.4158,113.347 67.5395,113.47 67.5395,113.718 L67.5395,116.628 L68.184,116.393 C68.197,116.38 68.2426,116.374 68.3207,116.374 C68.4119,116.374 68.5095,116.413 68.6137,116.491 C68.6918,116.569 68.7309,116.66 68.7309,116.764 L68.7309,117.975 C68.7309,118.158 68.6397,118.281 68.4574,118.347 L67.5395,118.659 L67.5395,121.862 L68.184,121.647 C68.197,121.634 68.2426,121.628 68.3207,121.628 C68.4119,121.628 68.5095,121.667 68.6137,121.745 C68.6918,121.823 68.7309,121.914 68.7309,122.018 L68.7309,123.229 C68.7309,123.399 68.6397,123.516 68.4574,123.581 L67.5395,123.932 L67.5395,127.077 M66.7973,118.952 L65.1371,119.538 L65.1371,122.741 L66.7973,122.155 L66.7973,118.952 "/>
<path class="KeySig" d="M62.5395,119.577 C62.5395,119.824 62.4158,119.948 62.1684,119.948 C61.921,119.948 61.7973,119.824 61.7973,119.577 L61.7973,116.686 L60.1371,117.311 L60.1371,120.475 C60.1371,120.723 60.0134,120.847 59.766,120.847 C59.5186,120.847 59.3949,120.723 59.3949,120.475 L59.3949,117.565 L58.7699,117.8 C58.7569,117.813 58.7048,117.819 58.6137,117.819 C58.5095,117.819 58.4184,117.78 58.3402,117.702 C58.2621,117.624 58.223,117.533 58.223,117.429 L58.223,116.218 C58.223,116.022 58.3077,115.899 58.477,115.847 L59.3949,115.534 L59.3949,112.331 L58.7699,112.546 C58.7569,112.559 58.7048,112.565 58.6137,112.565 C58.5095,112.565 58.4184,112.526 58.3402,112.448 C58.2621,112.37 58.223,112.279 58.223,112.175 L58.223,110.964 C58.223,110.781 58.3077,110.664 58.477,110.612 L59.3949,110.261 L59.3949,107.116 C59.3949,106.869 59.5186,106.745 59.766,106.745 C60.0134,106.745 60.1371,106.869 60.1371,107.116 L60.1371,110.007 L61.7973,109.382 L61.7973,106.218 C61.7973,105.97 61.921,105.847 62.1684,105.847 C62.4158,105.847 62.5395,105.97 62.5395,106.218 L62.5395,109.128 L63.184,108.893 C63.197,108.88 63.2426,108.874 63.3207,108.874 C63.4119,108.874 63.5095,108.913 63.6137,108.991 C63.6918,109.069 63.7309,109.16 63.7309,109.264 L63.7309,110.475 C63.7309,110.658 63.6397,110.781 63.4574,110.847 L62.5395,111.159 L62.5395,114.362 L63.184,114.147 C63.197,114.134 63.2426,114.128 63.3207,114.128 C63.4119,114.128 63.5095,114.167 63.6137,114.245 C63.6918,114.323 63.7309,114.414 63.7309,114.518 L63.7309,115.729 C63.7309,115.899 63.6397,116.016 63.4574,116.081 L62.5395,116.432 L62.5395,119.577 M61.7973,111.452 L60.1371,112.038 L60.1371,115.241 L61.7973,114.655 L61.7973,111.452 "/>
<path class="TimeSig" d="M77.2379,170.554 C77.2379,170.684 77.3095,170.807 77.4527,170.925 C77.6611,171.081 77.8238,171.198 77.941,171.276 C78.0973,171.367 78.26,171.576 78.4293,171.901 C78.5725,172.214 78.6442,172.598 78.6442,173.054 C78.6442,173.952 78.3121,174.642 77.6481,175.124 C76.971,175.606 76.1116,175.847 75.0699,175.847 C74.2236,175.847 73.5074,175.638 72.9215,175.222 C72.2965,174.831 71.984,174.284 71.984,173.581 C71.984,173.242 72.1142,172.93 72.3746,172.643 C72.6481,172.396 72.9606,172.272 73.3121,172.272 C73.6767,172.272 73.9762,172.403 74.2106,172.663 C74.471,172.91 74.6012,173.216 74.6012,173.581 C74.6012,173.75 74.471,173.932 74.2106,174.128 C73.9371,174.31 73.8004,174.486 73.8004,174.655 C73.8004,174.903 73.9241,175.085 74.1715,175.202 C74.4319,175.319 74.7314,175.378 75.0699,175.378 C75.5257,175.378 75.8512,175.156 76.0465,174.714 C76.2288,174.232 76.3199,173.679 76.3199,173.054 L76.3199,172.722 C76.3199,172.344 76.3069,172.012 76.2809,171.725 C76.2548,171.504 76.1637,171.302 76.0074,171.12 C75.8642,170.938 75.6363,170.847 75.3238,170.847 L73.7223,170.847 C73.54,170.847 73.4488,170.749 73.4488,170.554 C73.4488,170.384 73.54,170.287 73.7223,170.261 L75.3238,170.261 C75.6884,170.261 75.9488,170.143 76.1051,169.909 C76.2353,169.727 76.3069,169.401 76.3199,168.932 L76.3199,168.288 L76.3199,168.132 C76.3199,166.921 75.8772,166.315 74.9918,166.315 C74.2106,166.315 73.8134,166.53 73.8004,166.96 C73.8004,167.103 73.9241,167.259 74.1715,167.429 C74.4059,167.598 74.5231,167.754 74.5231,167.897 C74.5231,168.223 74.4059,168.503 74.1715,168.737 C73.9501,168.959 73.6767,169.069 73.3512,169.069 C73.0387,169.069 72.7718,168.959 72.5504,168.737 C72.329,168.49 72.2184,168.21 72.2184,167.897 C72.2184,167.285 72.4918,166.784 73.0387,166.393 C73.6116,166.029 74.2626,165.847 74.9918,165.847 C75.9684,165.847 76.7757,166.035 77.4137,166.413 C78.0517,166.778 78.3707,167.35 78.3707,168.132 C78.3707,168.692 78.3121,169.115 78.1949,169.401 C78.0777,169.701 77.9475,169.883 77.8043,169.948 C77.6481,170.013 77.5179,170.091 77.4137,170.182 C77.2965,170.287 77.2379,170.41 77.2379,170.554"/>
<path class="TimeSig" d="M75.7731,176.1 C76.1637,176.1 76.4957,176.055 76.7692,175.964 C77.0426,175.873 77.2184,175.827 77.2965,175.827 C77.3876,175.827 77.4593,175.853 77.5113,175.905 C77.5504,175.944 77.5764,175.99 77.5895,176.042 C77.5895,176.068 77.5764,176.107 77.5504,176.159 L71.8668,182.761 L75.2067,182.761 L75.2067,180.143 C75.2067,179.974 75.2522,179.831 75.3434,179.714 C75.4996,179.584 75.6298,179.505 75.734,179.479 C75.9033,179.401 76.1116,179.219 76.359,178.933 C76.5673,178.698 76.8147,178.288 77.1012,177.702 C77.1402,177.624 77.1988,177.585 77.277,177.585 C77.4332,177.585 77.5244,177.676 77.5504,177.858 L77.5504,182.761 L78.9762,182.761 C79.1585,182.761 79.2626,182.858 79.2887,183.054 C79.2887,183.249 79.1845,183.347 78.9762,183.347 L77.5504,183.347 L77.5504,183.503 C77.5504,184.024 77.6806,184.466 77.941,184.831 C78.2405,185.196 78.5921,185.378 78.9957,185.378 C79.152,185.378 79.2301,185.456 79.2301,185.612 C79.2301,185.768 79.152,185.847 78.9957,185.847 C78.7223,185.847 78.2796,185.808 77.6676,185.729 C77.1077,185.638 76.6715,185.593 76.359,185.593 C76.0335,185.593 75.5973,185.638 75.0504,185.729 C74.4645,185.808 74.0283,185.847 73.7418,185.847 C73.5856,185.847 73.5074,185.768 73.5074,185.612 C73.5074,185.456 73.5856,185.378 73.7418,185.378 C74.1455,185.378 74.497,185.196 74.7965,184.831 C75.0699,184.466 75.2067,184.024 75.2067,183.503 L75.2067,183.347 L71.8668,183.347 C71.6455,183.347 71.4892,183.294 71.3981,183.19 C71.2939,183.112 71.2418,183.008 71.2418,182.878 C71.2418,182.839 71.3395,182.702 71.5348,182.468 C71.7561,182.207 71.9905,181.888 72.2379,181.511 C72.5244,181.068 72.7978,180.612 73.0582,180.143 C73.3447,179.61 73.5725,178.998 73.7418,178.308 C73.9371,177.604 74.0348,176.888 74.0348,176.159 C74.0348,175.951 74.1259,175.847 74.3082,175.847 C74.3473,175.847 74.4319,175.866 74.5621,175.905 C74.6012,175.918 74.6826,175.938 74.8063,175.964 C74.93,175.99 75.0309,176.016 75.109,176.042 C75.3434,176.081 75.5647,176.1 75.7731,176.1"/>
<path class="TimeSig" d="M77.2379,118.054 C77.2379,118.184 77.3095,118.307 77.4527,118.425 C77.6611,118.581 77.8238,118.698 77.941,118.776 C78.0973,118.867 78.26,119.076 78.4293,119.401 C78.5725,119.714 78.6442,120.098 78.6442,120.554 C78.6442,121.452 78.3121,122.142 77.6481,122.624 C76.971,123.106 76.1116,123.347 75.0699,123.347 C74.2236,123.347 73.5074,123.138 72.9215,122.722 C72.2965,122.331 71.984,121.784 71.984,121.081 C71.984,120.742 72.1142,120.43 72.3746,120.143 C72.6481,119.896 72.9606,119.772 73.3121,119.772 C73.6767,119.772 73.9762,119.903 74.2106,120.163 C74.471,120.41 74.6012,120.716 74.6012,121.081 C74.6012,121.25 74.471,121.432 74.2106,121.628 C73.9371,121.81 73.8004,121.986 73.8004,122.155 C73.8004,122.403 73.9241,122.585 74.1715,122.702 C74.4319,122.819 74.7314,122.878 75.0699,122.878 C75.5257,122.878 75.8512,122.656 76.0465,122.214 C76.2288,121.732 76.3199,121.179 76.3199,120.554 L76.3199,120.222 C76.3199,119.844 76.3069,119.512 76.2809,119.225 C76.2548,119.004 76.1637,118.802 76.0074,118.62 C75.8642,118.438 75.6363,118.347 75.3238,118.347 L73.7223,118.347 C73.54,118.347 73.4488,118.249 73.4488,118.054 C73.4488,117.884 73.54,117.787 73.7223,117.761 L75.3238,117.761 C75.6884,117.761 75.9488,117.643 76.1051,117.409 C76.2353,117.227 76.3069,116.901 76.3199,116.432 L76.3199,115.788 L76.3199,115.632 C76.3199,114.421 75.8772,113.815 74.9918,113.815 C74.2106,113.815 73.8134,114.03 73.8004,114.46 C73.8004,114.603 73.9241,114.759 74.1715,114.929 C74.4059,115.098 74.5231,115.254 74.5231,115.397 C74.5231,115.723 74.4059,116.003 74.1715,116.237 C73.9501,116.459 73.6767,116.569 73.3512,116.569 C73.0387,116.569 72.7718,116.459 72.5504,116.237 C72.329,115.99 72.2184,115.71 72.2184,115.397 C72.2184,114.785 72.4918,114.284 73.0387,113.893 C73.6116,113.529 74.2626,113.347 74.9918,113.347 C75.9684,113.347 76.7757,113.535 77.4137,113.913 C78.0517,114.278 78.3707,114.85 78.3707,115.632 C78.3707,116.192 78.3121,116.615 78.1949,116.901 C78.0777,117.201 77.9475,117.383 77.8043,117.448 C77.6481,117.513 77.5179,117.591 77.4137,117.682 C77.2965,117.787 77.2379,117.91 77.2379,118.054"/>
<path class="TimeSig" d="M75.7731,123.6 C76.1637,123.6 76.4957,123.555 76.7692,123.464 C77.0426,123.373 77.2184,123.327 77.2965,123.327 C77.3876,123.327 77.4593,123.353 77.5113,123.405 C77.5504,123.444 77.5764,123.49 77.5895,123.542 C77.5895,123.568 77.5764,123.607 77.5504,123.659 L71.8668,130.261 L75.2067,130.261 L75.2067,127.643 C75.2067,127.474 75.2522,127.331 75.3434,127.214 C75.4996,127.084 75.6298,127.005 75.734,126.979 C75.9033,126.901 76.1116,126.719 76.359,126.432 C76.5673,126.198 76.8147,125.788 77.1012,125.202 C77.1402,125.124 77.1988,125.085 77.277,125.085 C77.4332,125.085 77.5244,125.176 77.5504,125.358 L77.5504,130.261 L78.9762,130.261 C79.1585,130.261 79.2626,130.358 79.2887,130.554 C79.2887,130.749 79.1845,130.847 78.9762,130.847 L77.5504,130.847 L77.5504,131.003 C77.5504,131.524 77.6806,131.966 77.941,132.331 C78.2405,132.695 78.5921,132.878 78.9957,132.878 C79.152,132.878 79.2301,132.956 79.2301,133.112 C79.2301,133.268 79.152,133.347 78.9957,133.347 C78.7223,133.347 78.2796,133.307 77.6676,133.229 C77.1077,133.138 76.6715,133.093 76.359,133.093 C76.0335,133.093 75.5973,133.138 75.0504,133.229 C74.4645,133.307 74.0283,133.347 73.7418,133.347 C73.5856,133.347 73.5074,133.268 73.5074,133.112 C73.5074,132.956 73.5856,132.878 73.7418,132.878 C74.1455,132.878 74.497,132.695 74.7965,132.331 C75.0699,131.966 75.2067,131.524 75.2067,131.003 L75.2067,130.847 L71.8668,130.847 C71.6455,130.847 71.4892,130.794 71.3981,130.69 C71.2939,130.612 71.2418,130.508 71.2418,130.378 C71.2418,130.339 71.3395,130.202 71.5348,129.968 C71.7561,129.707 71.9905,129.388 72.2379,129.011 C72.5244,128.568 72.7978,128.112 73.0582,127.643 C73.3447,127.11 73.5725,126.498 73.7418,125.807 C73.9371,125.104 74.0348,124.388 74.0348,123.659 C74.0348,123.451 74.1259,123.347 74.3082,123.347 C74.3473,123.347 74.4319,123.366 74.5621,123.405 C74.6012,123.418 74.6826,123.438 74.8063,123.464 C74.93,123.49 75.0309,123.516 75.109,123.542 C75.3434,123.581 75.5647,123.6 75.7731,123.6"/>
<path class="Rest" d="M139.256,269.284 C139.256,269.05 139.386,268.789 139.647,268.503 C139.842,268.295 140.129,268.047 140.506,267.761 C140.793,267.565 141.073,267.272 141.346,266.882 C141.606,266.504 141.737,266.094 141.737,265.651 C141.737,265.13 141.567,264.668 141.229,264.265 L140.526,263.425 C140.474,263.373 140.448,263.308 140.448,263.229 C140.448,263.151 140.487,263.08 140.565,263.015 C140.656,262.949 140.734,262.917 140.799,262.917 C140.89,262.917 140.962,262.956 141.014,263.034 L144.041,266.628 C144.172,266.797 144.237,266.966 144.237,267.136 C144.237,267.37 144.106,267.63 143.846,267.917 C143.677,268.099 143.397,268.347 143.006,268.659 C142.707,268.841 142.42,269.134 142.147,269.538 C141.886,269.916 141.756,270.326 141.756,270.768 C141.756,271.315 141.912,271.778 142.225,272.155 L143.905,274.128 C143.944,274.167 143.976,274.232 144.002,274.323 C144.002,274.414 143.97,274.492 143.905,274.558 C143.813,274.623 143.735,274.655 143.67,274.655 C143.644,274.655 143.54,274.584 143.358,274.44 C143.162,274.284 142.902,274.134 142.576,273.991 C142.212,273.848 141.854,273.776 141.502,273.776 C141.177,273.776 140.91,273.867 140.701,274.05 C140.519,274.232 140.428,274.584 140.428,275.104 C140.428,275.899 140.617,276.524 140.994,276.979 C141.034,277.032 141.04,277.097 141.014,277.175 C140.988,277.227 140.942,277.253 140.877,277.253 C140.786,277.253 140.584,277.018 140.272,276.55 C139.946,276.055 139.64,275.489 139.354,274.851 C139.054,274.173 138.905,273.614 138.905,273.171 C138.905,272.611 139.172,272.331 139.705,272.331 C140.317,272.331 141.112,272.539 142.088,272.956 L139.451,269.792 C139.321,269.623 139.256,269.453 139.256,269.284"/>
<path class="Rest" d="M526.884,174.284 C526.884,174.05 527.014,173.789 527.274,173.503 C527.47,173.294 527.756,173.047 528.134,172.761 C528.42,172.565 528.7,172.272 528.974,171.882 C529.234,171.504 529.364,171.094 529.364,170.651 C529.364,170.13 529.195,169.668 528.857,169.265 L528.153,168.425 C528.101,168.373 528.075,168.307 528.075,168.229 C528.075,168.151 528.114,168.08 528.192,168.015 C528.284,167.949 528.362,167.917 528.427,167.917 C528.518,167.917 528.59,167.956 528.642,168.034 L531.669,171.628 C531.799,171.797 531.864,171.966 531.864,172.136 C531.864,172.37 531.734,172.63 531.474,172.917 C531.304,173.099 531.024,173.347 530.634,173.659 C530.334,173.841 530.048,174.134 529.774,174.538 C529.514,174.916 529.384,175.326 529.384,175.768 C529.384,176.315 529.54,176.778 529.853,177.155 L531.532,179.128 C531.571,179.167 531.604,179.232 531.63,179.323 C531.63,179.414 531.597,179.492 531.532,179.557 C531.441,179.623 531.363,179.655 531.298,179.655 C531.272,179.655 531.168,179.584 530.985,179.44 C530.79,179.284 530.53,179.134 530.204,178.991 C529.84,178.848 529.482,178.776 529.13,178.776 C528.804,178.776 528.537,178.867 528.329,179.05 C528.147,179.232 528.056,179.584 528.056,180.104 C528.056,180.899 528.245,181.524 528.622,181.979 C528.661,182.031 528.668,182.097 528.642,182.175 C528.616,182.227 528.57,182.253 528.505,182.253 C528.414,182.253 528.212,182.018 527.899,181.55 C527.574,181.055 527.268,180.488 526.982,179.85 C526.682,179.173 526.532,178.613 526.532,178.171 C526.532,177.611 526.799,177.331 527.333,177.331 C527.945,177.331 528.739,177.539 529.716,177.956 L527.079,174.792 C526.949,174.623 526.884,174.453 526.884,174.284"/>
<path class="Rest" d="M417.749,174.284 C417.749,174.05 417.879,173.789 418.14,173.503 C418.335,173.294 418.621,173.047 418.999,172.761 C419.285,172.565 419.565,172.272 419.839,171.882 C420.099,171.504 420.229,171.094 420.229,170.651 C420.229,170.13 420.06,169.668 419.722,169.265 L419.018,168.425 C418.966,168.373 418.94,168.307 418.94,168.229 C418.94,168.151 418.979,168.08 419.058,168.015 C419.149,167.949 419.227,167.917 419.292,167.917 C419.383,167.917 419.455,167.956 419.507,168.034 L422.534,171.628 C422.664,171.797 422.729,171.966 422.729,172.136 C422.729,172.37 422.599,172.63 422.339,172.917 C422.17,173.099 421.89,173.347 421.499,173.659 C421.199,173.841 420.913,174.134 420.64,174.538 C420.379,174.916 420.249,175.326 420.249,175.768 C420.249,176.315 420.405,176.778 420.718,177.155 L422.397,179.128 C422.436,179.167 422.469,179.232 422.495,179.323 C422.495,179.414 422.462,179.492 422.397,179.557 C422.306,179.623 422.228,179.655 422.163,179.655 C422.137,179.655 422.033,179.584 421.851,179.44 C421.655,179.284 421.395,179.134 421.069,178.991 C420.705,178.848 420.347,178.776 419.995,178.776 C419.67,178.776 419.403,178.867 419.194,179.05 C419.012,179.232 418.921,179.584 418.921,180.104 C418.921,180.899 419.11,181.524 419.487,181.979 C419.526,182.031 419.533,182.097 419.507,182.175 C419.481,182.227 419.435,182.253 419.37,182.253 C419.279,182.253 419.077,182.018 418.765,181.55 C418.439,181.055 418.133,180.488 417.847,179.85 C417.547,179.173 417.397,178.613 417.397,178.171 C417.397,177.611 417.664,177.331 418.198,177.331 C418.81,177.331 419.604,177.539 420.581,177.956 L417.944,174.792 C417.814,174.623 417.749,174.453 417.749,174.284"/>
<path class="Rest" d="M114.544,119.245 C114.921,119.245 115.208,119.349 115.403,119.557 C115.598,119.792 115.702,120.013 115.716,120.222 C115.742,120.417 115.807,120.638 115.911,120.886 C116.028,121.094 116.178,121.198 116.36,121.198 C116.503,121.198 116.718,121.035 117.005,120.71 C117.265,120.423 117.454,120.169 117.571,119.948 C117.636,119.818 117.727,119.753 117.844,119.753 L117.864,119.753 C117.994,119.766 118.085,119.831 118.137,119.948 L115.676,128.347 C115.546,128.477 115.364,128.542 115.13,128.542 C114.895,128.542 114.713,128.477 114.583,128.347 L116.926,121.823 C116.093,122.123 115.39,122.272 114.817,122.272 C114.348,122.272 113.945,122.123 113.606,121.823 C113.255,121.537 113.079,121.159 113.079,120.69 C113.079,120.287 113.222,119.948 113.508,119.675 C113.795,119.388 114.14,119.245 114.544,119.245"/>
<path class="Rest" d="M103.084,119.245 C103.475,119.245 103.755,119.349 103.924,119.557 C104.106,119.779 104.217,120 104.256,120.222 C104.269,120.443 104.334,120.664 104.451,120.886 C104.529,121.094 104.673,121.198 104.881,121.198 C105.011,121.198 105.207,121.042 105.467,120.729 C105.766,120.365 105.955,120.104 106.033,119.948 C106.098,119.818 106.19,119.753 106.307,119.753 C106.307,119.753 106.313,119.753 106.326,119.753 C106.444,119.766 106.528,119.831 106.58,119.948 L103.006,133.347 C102.876,133.477 102.694,133.542 102.459,133.542 C102.225,133.542 102.042,133.477 101.912,133.347 L103.924,126.804 C103.052,127.116 102.342,127.272 101.795,127.272 C101.326,127.272 100.923,127.123 100.584,126.823 C100.233,126.537 100.057,126.159 100.057,125.69 C100.057,125.287 100.194,124.948 100.467,124.675 C100.753,124.388 101.098,124.245 101.502,124.245 C101.893,124.245 102.173,124.349 102.342,124.557 C102.537,124.779 102.654,125 102.694,125.222 C102.733,125.482 102.798,125.703 102.889,125.886 C102.98,126.094 103.123,126.198 103.319,126.198 C103.475,126.198 103.696,126.016 103.983,125.651 C104.282,125.313 104.464,125.046 104.529,124.85 L105.447,121.823 C104.614,122.123 103.917,122.272 103.358,122.272 C102.889,122.272 102.485,122.123 102.147,121.823 C101.795,121.537 101.619,121.159 101.619,120.69 C101.619,120.287 101.763,119.948 102.049,119.675 C102.335,119.388 102.68,119.245 103.084,119.245"/>
<path class="Beam" fill-rule="evenodd" d="M527.001,138.347 L547.297,137.055 L547.297,139.555 L527.001,140.847 L527.001,138.347 "/>
<path class="Beam" fill-rule="evenodd" d="M487.708,138.347 L508.005,137.055 L508.005,139.555 L487.708,140.847 L487.708,138.347 "/>
<path class="Beam" fill-rule="evenodd" d="M295.347,143.347 L318.215,135.627 L318.215,138.127 L295.347,145.847 L295.347,143.347 "/>
<path class="Beam" fill-rule="evenodd" d="M220.363,144.597 L243.231,151.029 L243.231,153.529 L220.363,147.097 L220.363,144.597 "/>
<path class="Beam" fill-rule="evenodd" d="M173.393,147.097 L194.128,140.644 L194.128,143.144 L173.393,149.597 L173.393,147.097 "/>
<path class="Beam" fill-rule="evenodd" d="M133.223,193.347 L153.958,188.185 L153.958,190.685 L133.223,195.847 L133.223,193.347 "/>
<path class="Beam" fill-rule="evenodd" d="M133.223,147.097 L153.958,140.644 L153.958,143.144 L133.223,149.597 L133.223,147.097 "/>
<path class="Beam" fill-rule="evenodd" d="M88.0309,195.847 L113.787,194.564 L113.787,197.064 L88.0309,198.347 L88.0309,195.847 "/>
<path class="Hook" d="M338.008,163.347 C338.008,164.011 338.152,164.675 338.438,165.339 C338.712,165.99 339.05,166.608 339.454,167.194 L340.626,168.913 C341.016,169.447 341.355,170.065 341.641,170.768 C341.928,171.419 342.071,172.077 342.071,172.741 C342.071,173.353 341.915,173.991 341.602,174.655 C341.993,175.449 342.188,176.224 342.188,176.979 C342.188,178.177 341.908,179.401 341.348,180.651 C341.257,180.807 341.133,180.886 340.977,180.886 C340.847,180.886 340.73,180.834 340.626,180.729 C340.548,180.651 340.508,180.554 340.508,180.436 C340.508,180.436 340.508,180.404 340.508,180.339 C341.068,179.232 341.348,178.112 341.348,176.979 C341.348,176.472 341.251,176.003 341.055,175.573 C340.821,175.065 340.535,174.597 340.196,174.167 C339.766,173.607 339.428,173.203 339.18,172.956 C338.842,172.617 338.451,172.246 338.008,171.843 L338.008,173.347 L337.383,173.347 L337.383,163.347 L338.008,163.347 M341.075,173.679 C341.166,173.405 341.212,173.093 341.212,172.741 C341.212,172.285 341.12,171.823 340.938,171.354 C340.743,170.886 340.469,170.41 340.118,169.929 C339.792,169.525 339.46,169.128 339.122,168.737 C338.861,168.451 338.49,168.073 338.008,167.604 C338.008,168.138 338.119,168.705 338.341,169.304 C338.575,169.863 338.816,170.352 339.063,170.768 C339.35,171.211 339.701,171.712 340.118,172.272 C340.535,172.832 340.854,173.301 341.075,173.679"/>
<path class="Hook" d="M324.123,163.347 C324.123,164.011 324.266,164.675 324.552,165.339 C324.826,165.99 325.164,166.608 325.568,167.194 L326.74,168.913 C327.13,169.447 327.469,170.065 327.755,170.768 C328.042,171.419 328.185,172.077 328.185,172.741 C328.185,173.353 328.029,173.991 327.716,174.655 C328.107,175.449 328.302,176.224 328.302,176.979 C328.302,178.177 328.022,179.401 327.462,180.651 C327.371,180.807 327.248,180.886 327.091,180.886 C326.961,180.886 326.844,180.834 326.74,180.729 C326.662,180.651 326.623,180.554 326.623,180.436 C326.623,180.436 326.623,180.404 326.623,180.339 C327.182,179.232 327.462,178.112 327.462,176.979 C327.462,176.472 327.365,176.003 327.169,175.573 C326.935,175.065 326.649,174.597 326.31,174.167 C325.88,173.607 325.542,173.203 325.294,172.956 C324.956,172.617 324.565,172.246 324.123,171.843 L324.123,173.347 L323.498,173.347 L323.498,163.347 L324.123,163.347 M327.189,173.679 C327.28,173.405 327.326,173.093 327.326,172.741 C327.326,172.285 327.235,171.823 327.052,171.354 C326.857,170.886 326.584,170.41 326.232,169.929 C325.906,169.525 325.574,169.128 325.236,168.737 C324.975,168.451 324.604,168.073 324.123,167.604 C324.123,168.138 324.233,168.705 324.455,169.304 C324.689,169.863 324.93,170.352 325.177,170.768 C325.464,171.211 325.815,171.712 326.232,172.272 C326.649,172.832 326.968,173.301 327.189,173.679"/>
<path class="Hook" d="M299.898,186.374 C300.198,186.374 300.517,186.862 300.855,187.839 C301.181,188.802 301.343,189.72 301.343,190.593 C301.343,191.335 301.161,192.071 300.797,192.8 C300.419,193.581 299.97,194.258 299.449,194.831 L297.847,196.628 C297.353,197.201 296.91,197.865 296.519,198.62 C296.155,199.349 295.972,200.091 295.972,200.847 L295.347,200.847 L295.347,195.847 L295.972,195.847 C296.324,195.625 296.845,195.274 297.535,194.792 C297.847,194.558 298.316,194.167 298.941,193.62 C299.449,193.151 299.833,192.669 300.093,192.175 C300.367,191.654 300.504,191.127 300.504,190.593 C300.504,189.356 300.146,188.125 299.429,186.901 C299.429,186.901 299.429,186.875 299.429,186.823 C299.429,186.706 299.468,186.608 299.547,186.53 C299.651,186.426 299.768,186.374 299.898,186.374"/>
<path class="Hook" d="M198.029,183.874 C198.328,183.874 198.647,184.362 198.986,185.339 C199.312,186.302 199.474,187.22 199.474,188.093 C199.474,188.835 199.292,189.571 198.927,190.3 C198.55,191.081 198.101,191.758 197.58,192.331 L195.978,194.128 C195.483,194.701 195.041,195.365 194.65,196.12 C194.286,196.849 194.103,197.591 194.103,198.347 L193.478,198.347 L193.478,193.347 L194.103,193.347 C194.455,193.125 194.976,192.774 195.666,192.292 C195.978,192.058 196.447,191.667 197.072,191.12 C197.58,190.651 197.964,190.169 198.224,189.675 C198.498,189.154 198.634,188.627 198.634,188.093 C198.634,186.856 198.276,185.625 197.56,184.401 C197.56,184.401 197.56,184.375 197.56,184.323 C197.56,184.206 197.599,184.108 197.677,184.03 C197.782,183.926 197.899,183.874 198.029,183.874"/>
<path class="Hook" d="M179.326,168.972 L179.326,163.972 L179.951,163.972 C179.951,164.714 180.094,165.456 180.381,166.198 C180.693,167.005 181.038,167.709 181.416,168.307 C181.689,168.737 182.099,169.395 182.646,170.28 C183.063,170.957 183.414,171.667 183.701,172.409 C183.987,173.151 184.131,173.893 184.131,174.636 C184.131,175.99 183.851,177.37 183.291,178.776 C183.2,178.932 183.076,179.011 182.92,179.011 C182.789,179.011 182.672,178.959 182.568,178.854 C182.49,178.776 182.451,178.679 182.451,178.561 L182.451,178.464 C183.011,177.175 183.291,175.899 183.291,174.636 C183.291,173.985 183.095,173.281 182.705,172.526 C182.314,171.758 181.917,171.146 181.513,170.69 C181.058,170.156 180.537,169.584 179.951,168.972 L179.326,168.972 "/>
<path class="Hook" d="M88.6559,131.843 C89.1767,131.543 89.6715,131.237 90.1403,130.925 C90.635,130.573 91.0778,130.222 91.4684,129.87 C91.9371,129.44 92.2952,128.998 92.5426,128.542 C92.803,128.047 92.9332,127.559 92.9332,127.077 C92.9332,126.621 92.8421,126.159 92.6598,125.69 C92.5166,125.873 92.0934,126.289 91.3903,126.94 C90.8564,127.435 90.4007,127.884 90.0231,128.288 C89.6845,128.653 89.372,129.108 89.0856,129.655 C88.7991,130.215 88.6559,130.781 88.6559,131.354 L88.6559,131.843 M94.027,122.585 C94.027,123.366 93.7796,124.141 93.2848,124.909 C93.6103,125.599 93.7731,126.322 93.7731,127.077 C93.7731,127.715 93.5973,128.36 93.2457,129.011 C92.8681,129.714 92.4449,130.287 91.9762,130.729 L90.4528,132.214 C89.9449,132.735 89.5218,133.301 89.1832,133.913 C88.8317,134.538 88.6559,135.182 88.6559,135.847 L88.0309,135.847 L88.0309,125.847 L88.6559,125.847 L88.6559,127.35 C91.6767,125.775 93.1871,124.186 93.1871,122.585 C93.1871,122.233 93.096,121.823 92.9137,121.354 C92.9137,121.354 92.9137,121.328 92.9137,121.276 C92.9137,121.172 92.9528,121.068 93.0309,120.964 C93.135,120.86 93.2522,120.807 93.3824,120.807 C93.5127,120.807 93.6298,120.886 93.734,121.042 C93.8512,121.25 93.9163,121.452 93.9293,121.647 C93.9423,121.738 93.9554,121.856 93.9684,121.999 L94.0074,122.214 C94.0205,122.305 94.027,122.429 94.027,122.585"/>
<path class="Tempo" d="M73.7009,91.2265 C73.5409,91.0865 73.3209,91.0165 73.0609,91.0165 C72.0709,91.0165 71.2809,91.7465 71.2809,92.5265 C71.2809,92.9965 71.6609,93.2765 72.1509,93.2765 C72.9509,93.2765 73.9409,92.5265 73.9409,91.7665 L73.9409,86.6465 L73.7009,86.6465 L73.7009,91.2265 "/>
<path class="Tempo" d="M82.5771,90.0365 L77.0571,90.0365 L77.0571,89.0765 L82.5771,89.0765 L82.5771,90.0365 M82.5771,92.4765 L77.0571,92.4765 L77.0571,91.5165 L82.5771,91.5165 L82.5771,92.4765 M87.1871,87.5665 C87.1071,87.5665 87.0121,87.5832 86.9021,87.6165 C86.7921,87.6498 86.6755,87.6898 86.5521,87.7365 C86.4288,87.7832 86.3571,87.8098 86.3371,87.8165 L86.3371,87.5565 L88.8571,86.4665 L89.0271,86.4665 L89.0271,92.1665 C89.0271,92.5532 89.0938,92.8048 89.2271,92.9215 C89.3605,93.0382 89.6538,93.0998 90.1071,93.1065 L90.1071,93.3465 L86.3571,93.3465 L86.3571,93.1065 C86.8505,93.0998 87.1721,93.0348 87.3221,92.9115 C87.4721,92.7882 87.5471,92.5198 87.5471,92.1065 L87.5471,88.2565 C87.5471,87.7965 87.4271,87.5665 87.1871,87.5665 M90.9971,88.5065 C91.5038,87.1465 92.2371,86.4665 93.1971,86.4665 C93.7371,86.4665 94.1805,86.6382 94.5271,86.9815 C94.8738,87.3248 95.0471,87.7632 95.0471,88.2965 C95.0471,89.0298 94.6671,89.7565 93.9071,90.4765 L92.2871,92.0165 L93.7971,92.0165 C94.3105,92.0165 94.6405,91.9765 94.7871,91.8965 C94.9338,91.8165 95.0805,91.5965 95.2271,91.2365 L95.4671,91.2365 L95.0171,93.3465 L90.8571,93.3465 L90.8571,93.1165 C91.9971,91.9032 92.7538,91.0082 93.1271,90.4315 C93.5005,89.8548 93.6871,89.3365 93.6871,88.8765 C93.6871,88.5365 93.5771,88.2398 93.3571,87.9865 C93.1371,87.7332 92.8505,87.6065 92.4971,87.6065 C91.9838,87.6065 91.5771,87.9065 91.2771,88.5065 L90.9971,88.5065 M95.9271,89.9465 C95.9271,88.9665 96.1438,88.1415 96.5771,87.4715 C97.0105,86.8015 97.5471,86.4665 98.1871,86.4665 C98.8338,86.4665 99.3721,86.8015 99.8021,87.4715 C100.232,88.1415 100.447,88.9765 100.447,89.9765 C100.447,90.9832 100.234,91.8182 99.8071,92.4815 C99.3805,93.1448 98.8438,93.4765 98.1971,93.4765 C97.5305,93.4765 96.9855,93.1465 96.5621,92.4865 C96.1388,91.8265 95.9271,90.9798 95.9271,89.9465 M98.1971,93.1965 C98.4171,93.1965 98.5838,93.0465 98.6971,92.7465 C98.8105,92.4465 98.8671,91.9065 98.8671,91.1265 L98.8671,88.8365 C98.8671,88.0965 98.8138,87.5632 98.7071,87.2365 C98.6005,86.9098 98.4238,86.7465 98.1771,86.7465 C97.9371,86.7465 97.7655,86.9065 97.6621,87.2265 C97.5588,87.5465 97.5071,88.0832 97.5071,88.8365 L97.5071,91.1265 C97.5071,91.8665 97.5605,92.3965 97.6671,92.7165 C97.7738,93.0365 97.9505,93.1965 98.1971,93.1965"/>
<path class="Bracket" fill-rule="evenodd" d="M36.755,286.64 C36.755,280.799 32.7322,275.122 32.7322,269.526 C32.7322,266.708 33.8293,263.971 37.2122,261.521 C37.2579,261.49 37.2808,261.439 37.2808,261.408 C37.2808,261.316 37.0293,261.235 36.8465,261.235 C36.755,261.235 36.595,261.245 36.4808,261.316 C32.0922,264.461 30.6293,268.097 30.6293,271.773 C30.6293,277.695 34.9265,283.414 34.9265,289.091 C34.9265,291.909 33.8293,294.564 30.4465,297.015 L30.4465,297.097 L30.4465,297.178 C33.8293,299.629 34.9265,302.284 34.9265,305.102 C34.9265,310.78 30.6293,316.498 30.6293,322.421 C30.6293,326.097 32.0922,329.732 36.4808,332.877 C36.595,332.948 36.755,332.959 36.8465,332.959 C37.0293,332.959 37.2808,332.877 37.2808,332.785 C37.2808,332.754 37.2579,332.703 37.2122,332.673 C33.8293,330.222 32.7322,327.485 32.7322,324.667 C32.7322,319.071 36.755,313.394 36.755,307.553 C36.755,303.836 35.2922,300.283 30.995,297.097 C35.2922,293.911 36.755,290.357 36.755,286.64"/>
<path class="Bracket" fill-rule="evenodd" d="M36.755,139.14 C36.755,133.299 32.7322,127.622 32.7322,122.026 C32.7322,119.208 33.8293,116.471 37.2122,114.02 C37.2579,113.99 37.2808,113.939 37.2808,113.908 C37.2808,113.816 37.0293,113.735 36.8465,113.735 C36.755,113.735 36.595,113.745 36.4808,113.816 C32.0922,116.961 30.6293,120.597 30.6293,124.273 C30.6293,130.195 34.9265,135.913 34.9265,141.591 C34.9265,144.409 33.8293,147.064 30.4465,149.515 L30.4465,149.597 L30.4465,149.678 C33.8293,152.129 34.9265,154.784 34.9265,157.602 C34.9265,163.28 30.6293,168.998 30.6293,174.921 C30.6293,178.597 32.0922,182.232 36.4808,185.377 C36.595,185.448 36.755,185.459 36.8465,185.459 C37.0293,185.459 37.2808,185.377 37.2808,185.285 C37.2808,185.254 37.2579,185.203 37.2122,185.173 C33.8293,182.722 32.7322,179.985 32.7322,177.167 C32.7322,171.571 36.755,165.894 36.755,160.053 C36.755,156.336 35.2922,152.782 30.995,149.597 C35.2922,146.411 36.755,142.857 36.755,139.14"/>
</svg>
